<?xml version="1.0" encoding="utf-8"?>
<!-- Generator: Adobe Illustrator 16.0.4, SVG Export Plug-In . SVG Version: 6.00 Build 0)  -->
<!DOCTYPE svg PUBLIC "-//W3C//DTD SVG 1.1//EN" "http://www.w3.org/Graphics/SVG/1.1/DTD/svg11.dtd">
<svg version="1.1" id="Layer_1" xmlns="http://www.w3.org/2000/svg" xmlns:xlink="http://www.w3.org/1999/xlink" x="0px" y="0px"
	 width="400px" height="580px" viewBox="0 0 400 580" enable-background="new 0 0 400 580" xml:space="preserve">
<rect x="-1.145" y="-1.193" opacity="0.3" enable-background="new    " width="400" height="580"/>
<rect y="35.5" opacity="0.3" fill="#FFFFFF" enable-background="new    " width="400" height="141"/>
<text transform="matrix(1 0 0 1 74.0591 76.7373)" font-family="'Helvetica-Bold'" font-size="35.9315">Houston POGO</text>
<text transform="matrix(0.9841 0 0 1 84.9824 119.8555)" font-family="'Helvetica-Bold'" font-size="35.9315">Comunity Day </text>
<text transform="matrix(0.9841 0 0 1 56.9824 162.9736)" font-family="'Helvetica-Bold'" font-size="35.9315">Meetup Locations </text>
<g>
	<g>
		<g>
			<circle fill="none" stroke="#000000" stroke-width="6" cx="171.721" cy="375.302" r="117.698"/>
		</g>
		<g>
			<circle fill="#93D7F6" stroke="#000000" stroke-width="2" stroke-miterlimit="10" cx="171.721" cy="375.302" r="117.698"/>
		</g>
	</g>
	<g>
		<rect x="79.77" y="352.531" fill="#FFFFFF" stroke="#000000" stroke-miterlimit="10" width="10.334" height="20.933"/>
	</g>
	<g>
		<rect x="263.365" y="360.016" fill="#B2B9C9" stroke="#000000" stroke-miterlimit="10" width="12.72" height="17.127"/>
	</g>
	<g>
		<path fill="#9FC3DD" stroke="#000000" stroke-miterlimit="10" d="M267.35,393.693h20.629c0.941-5.993,1.439-12.133,1.439-18.393
			c0-1.85-0.055-3.688-0.139-5.517h-21.93V393.693L267.35,393.693z"/>
	</g>
	<g>
		<path fill="#B39191" stroke="#000000" stroke-miterlimit="10" d="M54.069,373.971c-0.007,0.446-0.046,0.883-0.046,1.332
			c0,6.258,0.499,12.397,1.439,18.391h21.089v-19.723H54.069z"/>
	</g>
	<g>
		<polyline fill="#B2B9C9" stroke="#000000" stroke-miterlimit="10" points="87.126,393.693 109.194,393.693 105.516,353.234 
			87.126,360.591 87.126,393.693 		"/>
	</g>
	<g>
		<rect x="195.973" y="356.913" fill="#7FAAB8" stroke="#000000" stroke-miterlimit="10" width="21.378" height="36.78"/>
	</g>
	<g>
		<rect x="105.516" y="338.521" fill="#EEE1C2" stroke="#000000" stroke-miterlimit="10" width="14.712" height="55.17"/>
	</g>
	<g>
		<rect x="186.433" y="345.879" fill="#EEE1C2" stroke="#000000" stroke-miterlimit="10" width="14.711" height="47.814"/>
	</g>
	<g>
		<rect x="153.331" y="336.684" fill="#9FC3DD" stroke="#000000" stroke-miterlimit="10" width="14.712" height="57.01"/>
	</g>
	<g>
		<rect x="222.754" y="360.591" fill="#B2B9C9" stroke="#000000" stroke-miterlimit="10" width="21.378" height="33.103"/>
	</g>
	<g>
		<rect x="245.973" y="366.107" fill="#B39191" stroke="#000000" stroke-miterlimit="10" width="21.377" height="27.584"/>
	</g>
	<g>
		<path fill="#43AC5F" stroke="#000000" stroke-miterlimit="10" d="M55.463,393.693C64.293,449.958,112.976,493,171.721,493
			c58.746,0,107.427-43.042,116.257-99.307H55.463z"/>
	</g>
	<g>
		<path fill="#71BF64" stroke="#000000" stroke-miterlimit="10" d="M271.432,437.829c8.284-13.187,14.033-28.121,16.547-44.136
			H55.463c2.514,16.015,8.264,30.949,16.548,44.136H271.432L271.432,437.829z"/>
	</g>
	<g>
		<path fill="#97CB5E" stroke="#000000" stroke-miterlimit="10" d="M61.203,415.761H282.24c2.59-7.063,4.543-14.438,5.74-22.067
			H55.463C56.66,401.32,58.612,408.695,61.203,415.761z"/>
	</g>
	<g>
		<path fill="#B4D781" stroke="#000000" stroke-miterlimit="10" d="M56.896,401.049h229.649c0.546-2.428,1.044-4.873,1.434-7.355
			H55.463C55.853,396.176,56.351,398.621,56.896,401.049z"/>
	</g>
	<g>
		<path fill="#674548" stroke="#000000" stroke-miterlimit="10" d="M225.99,479.739c-20.333-32.239-54.269-86.046-54.269-86.046
			l-54.269,86.046c16.241,8.458,34.69,13.261,54.269,13.261C191.3,493,209.749,488.197,225.99,479.739z"/>
	</g>
	<g>
		<path fill="#8C675C" stroke="#000000" stroke-miterlimit="10" d="M185.639,415.761c-8.172-12.958-13.918-22.067-13.918-22.067
			l-13.918,22.067H185.639z"/>
	</g>
	<g>
		<polyline fill="#FEF0DC" stroke="#000000" stroke-miterlimit="10" points="186.433,393.693 186.433,325.648 168.043,314.615 
			168.043,393.693 		"/>
	</g>
	<g>
		<polygon fill="#DFE2BF" stroke="#000000" stroke-miterlimit="10" points="134.94,301.742 134.94,393.693 153.331,393.693 
			153.331,311.396 153.331,288.869 		"/>
	</g>
	<g>
		<rect x="212.18" y="317.374" fill="#CCCEB2" stroke="#000000" stroke-miterlimit="10" width="14.711" height="76.319"/>
	</g>
	<g>
		<polyline fill="#A29B91" stroke="#000000" stroke-miterlimit="10" points="120.229,393.693 120.229,375.303 98.16,375.303 
			98.16,393.693 		"/>
	</g>
	<g>
		<polyline fill="#9FC3DD" stroke="#000000" stroke-miterlimit="10" points="141.377,393.693 141.377,349.557 120.229,349.557 
			120.229,393.693 		"/>
	</g>
	<g>
		<polyline fill="#89B7C6" stroke="#000000" stroke-miterlimit="10" points="201.145,393.693 201.145,378.98 179.077,382.659 
			179.077,393.693 		"/>
	</g>
	<g>
		<rect x="237.926" y="356.913" fill="#FEF0DC" stroke="#000000" stroke-miterlimit="10" width="14.713" height="36.78"/>
	</g>
	<g>
		<path fill="#FFFFFF" stroke="#000000" stroke-miterlimit="10" d="M171.721,393.693l48.655,88.775
			c1.899-0.861,3.771-1.771,5.614-2.729L171.721,393.693z"/>
	</g>
	<g>
		<path fill="#FFFFFF" stroke="#000000" stroke-miterlimit="10" d="M171.721,393.693l-54.269,86.046
			c1.843,0.959,3.715,1.869,5.614,2.729L171.721,393.693z"/>
	</g>
	<g>
		<path fill="#E9B668" stroke="#000000" stroke-miterlimit="10" d="M181.92,492.509l-10.199-98.815l3.414,99.205
			C177.413,492.83,179.675,492.703,181.92,492.509z"/>
	</g>
	<g>
		<path fill="#E9B668" stroke="#000000" stroke-miterlimit="10" d="M171.721,393.693l-10.199,98.813
			c2.245,0.193,4.507,0.321,6.786,0.39L171.721,393.693z"/>
	</g>
	<g>
		<rect x="72.414" y="367.947" fill="#9FC3DD" stroke="#000000" stroke-miterlimit="10" width="14.712" height="25.746"/>
	</g>
	<g>
		<rect x="205.514" y="383.693" fill="#A29B91" stroke="#000000" stroke-miterlimit="10" width="24.596" height="10"/>
	</g>
	<g>
		<rect x="153.331" y="358.062" fill="#B39191" stroke="#000000" stroke-miterlimit="10" width="8.191" height="35.631"/>
	</g>
	<g>
		<rect x="109.194" y="386.337" fill="#9F8382" stroke="#000000" stroke-miterlimit="10" width="20.995" height="7.356"/>
	</g>
	<g>
		<rect x="91.876" y="386.337" fill="#EEE1C2" stroke="#000000" stroke-miterlimit="10" width="9.842" height="7.356"/>
	</g>
	<g>
		<rect x="157.454" y="386.337" fill="#EEE1C2" stroke="#000000" stroke-miterlimit="10" width="8.137" height="7.356"/>
	</g>
	<g>
		<rect x="226.893" y="386.337" fill="#EEE1C2" stroke="#000000" stroke-miterlimit="10" width="13.104" height="7.356"/>
	</g>
	<g>
		<rect x="185.639" y="388.359" fill="#9F8382" stroke="#000000" stroke-miterlimit="10" width="10.334" height="5.334"/>
	</g>
	<g>
		<rect x="234.948" y="381.74" fill="#9F8382" stroke="#000000" stroke-miterlimit="10" width="10.334" height="11.953"/>
	</g>
	<g>
		<rect x="262.184" y="384.65" fill="#9F8382" stroke="#000000" stroke-miterlimit="10" width="21.564" height="9.043"/>
	</g>
	<g>
		<rect x="67.247" y="381.74" fill="#9F8382" stroke="#000000" stroke-miterlimit="10" width="10.334" height="11.953"/>
	</g>
	<g>
		<rect x="136.779" y="381.74" fill="#B2B9C9" stroke="#000000" stroke-miterlimit="10" width="7.808" height="11.953"/>
	</g>
	<g>
		<rect x="213.448" y="388.359" fill="#B2B9C9" stroke="#000000" stroke-miterlimit="10" width="7.807" height="5.334"/>
	</g>
	<g>
		<rect x="64.606" y="388.359" fill="#B2B9C9" stroke="#000000" stroke-miterlimit="10" width="7.808" height="5.334"/>
	</g>
	<g>
		<rect x="99.241" y="390.016" fill="#B2B9C9" stroke="#000000" stroke-miterlimit="10" width="15.003" height="3.678"/>
	</g>
</g>
<g>
	<g>
		<g>
			<g>
				<path fill="#51BA67" d="M20.642,271.188c0,25.386,20.58,45.964,45.962,45.964c25.386,0,45.965-20.58,45.965-45.964
					s-20.58-45.963-45.965-45.963C41.221,225.225,20.642,245.805,20.642,271.188z"/>
			</g>
			<g>
				<path fill="#0BB285" d="M112.569,271.188c0-25.384-20.58-45.963-45.965-45.963c-25.383,0-45.962,20.58-45.962,45.963"/>
			</g>
			<g>
				<path fill="#34373B" d="M20.642,272.3c-0.614,0-1.112-0.498-1.112-1.112c0-25.958,21.117-47.075,47.074-47.075
					c0.614,0,1.112,0.498,1.112,1.112c0,0.614-0.499,1.112-1.112,1.112c-24.73,0-44.851,20.121-44.851,44.852
					C21.753,271.802,21.256,272.3,20.642,272.3z"/>
			</g>
			<g>
				<path fill="#34373B" d="M66.604,318.266c-0.613,0-1.112-0.5-1.112-1.113c0-0.61,0.499-1.109,1.112-1.109
					c24.732,0,44.854-20.121,44.854-44.853c0-0.614,0.498-1.112,1.112-1.112c0.614,0,1.112,0.498,1.112,1.112
					C113.682,297.146,92.562,318.266,66.604,318.266z"/>
			</g>
		</g>
		<g>
			<g>
				<path fill="#48BD9B" d="M31.27,271.188c0,19.516,15.822,35.333,35.334,35.333c19.517,0,35.334-15.817,35.334-35.333
					c0-19.513-15.817-35.334-35.334-35.334C47.091,235.854,31.27,251.675,31.27,271.188z"/>
			</g>
			<g>
				<path fill="#81C88C" d="M31.27,271.188c0,19.516,15.822,35.333,35.334,35.333c19.517,0,35.334-15.817,35.334-35.333H31.27
					L31.27,271.188z"/>
			</g>
			<g>
				<path fill="#447DC0" d="M101.752,274.843H58.935v-38.144c-3.566,0.79-6.927,2.118-9.998,3.896v61.189
					c3.07,1.776,6.433,3.104,9.998,3.896v-20.839h40.267C100.516,281.711,101.391,278.354,101.752,274.843z"/>
			</g>
			<g>
				<path fill="#34373B" d="M103.051,271.188c0-20.096-16.35-36.446-36.447-36.446c-0.762,0-1.533,0.023-2.292,0.071
					c-0.613,0.038-1.079,0.565-1.041,1.178c0.037,0.589,0.526,1.043,1.109,1.043c0.023,0,0.047,0,0.07-0.002
					c0.713-0.044,1.438-0.066,2.155-0.066c18.871,0,34.223,15.352,34.223,34.222c0,0.717-0.022,1.442-0.066,2.154
					c-0.008,0.136,0.011,0.267,0.048,0.389H60.047v-36.144c0.569-0.141,0.937-0.704,0.823-1.289
					c-0.117-0.603-0.702-0.998-1.305-0.877c-0.265,0.052-0.526,0.125-0.791,0.183c-0.027,0.003-0.053,0.002-0.08,0.008
					c-0.289,0.064-0.575,0.137-0.861,0.208c-0.416,0.103-0.827,0.213-1.239,0.331c-0.348,0.1-0.694,0.203-1.039,0.313
					c-0.204,0.064-0.413,0.117-0.615,0.185c-0.04,0.014-0.076,0.034-0.113,0.051c-1.428,0.488-2.824,1.065-4.181,1.728
					c-0.042,0.015-0.086,0.027-0.128,0.048c-0.194,0.095-0.381,0.207-0.574,0.307c-0.295,0.153-0.589,0.311-0.882,0.471
					c-0.916,0.505-1.82,1.034-2.687,1.614c-0.511,0.341-0.648,1.032-0.307,1.542c0.214,0.322,0.567,0.495,0.925,0.495
					c0.213,0,0.427-0.062,0.617-0.188c0.07-0.046,0.145-0.087,0.215-0.133v57.195c-9.294-6.127-15.444-16.65-15.444-28.59
					c0-0.718,0.022-1.441,0.066-2.154c0.039-0.612-0.427-1.14-1.04-1.178c-0.603-0.039-1.141,0.429-1.179,1.041
					c-0.046,0.758-0.071,1.529-0.071,2.292c0,13.43,7.307,25.178,18.149,31.5c0.026,0.021,0.047,0.043,0.074,0.06
					c0.215,0.125,0.435,0.239,0.652,0.358c0.109,0.062,0.217,0.123,0.328,0.185c0.468,0.252,0.939,0.496,1.417,0.729
					c0.015,0.006,0.03,0.016,0.044,0.021c0.478,0.229,0.962,0.446,1.449,0.655c0.182,0.078,0.365,0.149,0.548,0.227
					c0.304,0.125,0.609,0.246,0.916,0.361c0.228,0.086,0.456,0.171,0.685,0.252c0.263,0.093,0.528,0.182,0.794,0.27
					c0.256,0.084,0.51,0.17,0.768,0.248c0.178,0.055,0.358,0.104,0.537,0.153c0.604,0.174,1.214,0.333,1.831,0.478
					c0.116,0.025,0.23,0.059,0.346,0.084c0.009,0.002,0.019,0,0.029,0.002c2.54,0.562,5.174,0.867,7.88,0.867
					c0.762,0,1.534-0.023,2.292-0.07c0.613-0.037,1.079-0.564,1.041-1.18c-0.038-0.611-0.573-1.078-1.179-1.041
					c-0.713,0.045-1.438,0.066-2.155,0.066c-2.243,0-4.433-0.225-6.557-0.639v-18.818h37.541c-0.11,0.095-0.204,0.212-0.272,0.351
					c-0.661,1.34-1.415,2.646-2.245,3.887c-0.341,0.51-0.204,1.202,0.306,1.543c0.19,0.125,0.405,0.187,0.618,0.187
					c0.358,0,0.711-0.173,0.925-0.493c0.883-1.32,1.688-2.714,2.392-4.14c0.23-0.465,0.1-1.011-0.278-1.334h0.168
					c0.448,0,0.852-0.269,1.025-0.683c0.329-0.783,0.627-1.576,0.899-2.379c0.003-0.008,0.009-0.014,0.011-0.021
					c0.007-0.022,0.013-0.045,0.021-0.067c0.222-0.662,0.42-1.33,0.604-2.002c0.033-0.119,0.067-0.238,0.099-0.357
					c0.175-0.67,0.33-1.344,0.466-2.023c0.012-0.058,0.028-0.114,0.04-0.172c0.003-0.019,0.002-0.037,0.005-0.056
					c0.208-1.069,0.374-2.147,0.486-3.235c0.027-0.271-0.051-0.538-0.208-0.757c0.188-0.186,0.312-0.436,0.33-0.719
					C103.027,272.722,103.051,271.951,103.051,271.188z M58.935,283.729c-0.613,0-1.112,0.498-1.112,1.111v19.424
					c-0.009-0.002-0.018-0.006-0.026-0.008c-0.607-0.162-1.208-0.343-1.805-0.538c-0.148-0.049-0.295-0.1-0.442-0.149
					c-0.468-0.158-0.933-0.332-1.395-0.512c-0.17-0.063-0.342-0.133-0.511-0.201c-0.483-0.195-0.962-0.408-1.437-0.631
					c-0.116-0.054-0.235-0.104-0.352-0.158c-0.562-0.27-1.118-0.557-1.666-0.855c-0.047-0.023-0.093-0.055-0.141-0.081v-59.882
					c0.083-0.046,0.167-0.089,0.251-0.134c2.384-1.296,4.904-2.306,7.523-3v36.729c0,0.614,0.498,1.112,1.111,1.112h41.562
					c-0.089,0.646-0.2,1.288-0.327,1.926c-0.137,0.691-0.296,1.382-0.478,2.067c-0.054,0.205-0.122,0.408-0.181,0.613
					c-0.135,0.476-0.272,0.949-0.428,1.418c-0.196,0.588-0.403,1.172-0.631,1.75H58.935L58.935,283.729z"/>
				<path fill="#34373B" d="M34.403,256.579c0.158,0.077,0.326,0.114,0.491,0.114c0.41,0,0.804-0.228,0.998-0.621
					c0.659-1.336,1.415-2.646,2.245-3.886c0.341-0.51,0.204-1.201-0.306-1.542c-0.509-0.339-1.201-0.205-1.542,0.306
					c-0.885,1.323-1.689,2.716-2.392,4.14C33.626,255.64,33.853,256.307,34.403,256.579z"/>
				<path fill="#34373B" d="M31.718,265.434c0.073,0.015,0.145,0.021,0.216,0.021c0.521,0,0.986-0.368,1.089-0.897
					c0.288-1.465,0.676-2.923,1.155-4.338c0.197-0.582-0.115-1.213-0.697-1.41c-0.583-0.197-1.213,0.116-1.409,0.697
					c-0.51,1.507-0.923,3.062-1.229,4.622C30.723,264.732,31.116,265.316,31.718,265.434z"/>
				<path fill="#34373B" d="M40.036,249.005c0.309,0,0.617-0.128,0.836-0.379c0.987-1.125,2.056-2.192,3.177-3.175
					c0.46-0.404,0.508-1.107,0.103-1.568c-0.406-0.46-1.106-0.509-1.569-0.104c-1.193,1.047-2.332,2.184-3.382,3.381
					c-0.405,0.461-0.359,1.164,0.103,1.568C39.514,248.914,39.776,249.005,40.036,249.005z"/>
				<path fill="#34373B" d="M85.598,299.662c-1.241,0.83-2.55,1.586-3.889,2.245c-0.551,0.271-0.777,0.938-0.506,1.489
					c0.194,0.393,0.589,0.621,0.999,0.621c0.166,0,0.333-0.037,0.491-0.115c1.426-0.702,2.82-1.508,4.143-2.394
					c0.51-0.342,0.647-1.03,0.306-1.543C86.799,299.457,86.108,299.32,85.598,299.662z"/>
				<path fill="#34373B" d="M92.338,293.751c-0.988,1.125-2.056,2.192-3.177,3.175c-0.461,0.405-0.508,1.107-0.103,1.569
					c0.22,0.251,0.528,0.379,0.837,0.379c0.26,0,0.521-0.09,0.732-0.276c1.193-1.046,2.332-2.184,3.382-3.38
					c0.405-0.461,0.359-1.163-0.102-1.569C93.445,293.244,92.741,293.291,92.338,293.751z"/>
				<path fill="#34373B" d="M77.558,303.622c-1.417,0.479-2.878,0.864-4.342,1.151c-0.603,0.117-0.995,0.703-0.877,1.306
					c0.104,0.53,0.568,0.897,1.089,0.897c0.071,0,0.143-0.006,0.215-0.021c1.559-0.307,3.116-0.719,4.625-1.227
					c0.582-0.195,0.894-0.828,0.698-1.41C78.771,303.739,78.143,303.43,77.558,303.622z"/>
			</g>
		</g>
	</g>
	<g>
		<circle fill="#F58E90" cx="77.791" cy="255.637" r="10.529"/>
	</g>
	<g>
		<ellipse fill="#EE2A28" cx="77.791" cy="255.637" rx="10.529" ry="8.065"/>
	</g>
	<g>
		<path fill="#FFFFFF" d="M67.261,255.637c0,5.816,4.714,10.529,10.53,10.529c5.814,0,10.529-4.713,10.529-10.529H67.261z"/>
	</g>
	<g>
		<path fill="#D8E5EA" d="M77.791,263.703c5.814,0,10.529-3.61,10.529-8.065H67.261C67.261,260.092,71.975,263.703,77.791,263.703z"
			/>
	</g>
	<path fill="#34373B" d="M89.432,255.637c0-6.418-5.223-11.64-11.641-11.64c-6.419,0-11.641,5.222-11.641,11.64
		c0,6.044,4.63,11.023,10.529,11.585v7.621c0,0.614,0.498,1.112,1.112,1.112c0.614,0,1.112-0.498,1.112-1.112v-7.621
		C84.802,266.66,89.432,261.681,89.432,255.637z M77.791,246.221c4.816,0,8.793,3.636,9.345,8.305H68.444
		C68.998,249.856,72.975,246.221,77.791,246.221z M77.791,265.054c-4.816,0-8.793-3.635-9.346-8.305h18.692
		C86.583,261.42,82.606,265.054,77.791,265.054z"/>
	<g>
		<g>
			<circle fill="#A7BBC1" cx="77.79" cy="256.844" r="3.481"/>
		</g>
		<g>
			<circle fill="#FFFFFF" cx="77.79" cy="255.66" r="3.482"/>
		</g>
		<g>
			<path fill="#D8E5EA" d="M75.328,258.122c-1.359-1.358-1.359-3.564,0-4.924c1.361-1.359,3.564-1.359,4.924,0"/>
		</g>
		<g>
			<path fill="#34373B" d="M77.791,260.251c-1.176,0-2.353-0.448-3.249-1.343c-0.867-0.868-1.345-2.021-1.345-3.249
				c0-1.227,0.478-2.381,1.345-3.248c1.792-1.791,4.707-1.791,6.496,0c0.868,0.867,1.345,2.021,1.345,3.248
				c0,1.228-0.479,2.381-1.345,3.249C80.143,259.803,78.967,260.251,77.791,260.251z M77.791,253.292
				c-0.607,0-1.215,0.232-1.677,0.693c-0.448,0.447-0.695,1.042-0.695,1.675c0,0.633,0.247,1.229,0.695,1.676
				c0.923,0.92,2.426,0.924,3.351,0c0.448-0.447,0.694-1.042,0.694-1.676c0-0.633-0.247-1.229-0.694-1.676
				C79.003,253.522,78.397,253.292,77.791,253.292z"/>
		</g>
	</g>
</g>
<g>
	<path fill="#7FC999" d="M390.819,436.099c-0.12,0.938-1.473,2.516-4.054,4.732c-3.497,2.961-9.514,6.213-18.054,9.76
		c-8.422,3.467-15.234,5.551-20.438,6.252c1.031,2.104,6.475,8.16,16.324,18.172c0.599,0.549,0.874,2.027,0.835,4.441
		c0,2.416-0.275,4.033-0.835,4.852c-0.951,1.559-7.765,2.959-20.437,4.205c-13.229,1.365-22.582,1.229-28.065-0.406
		c-0.555-0.156-1.051-1.615-1.487-4.385c-0.356-2.297-0.537-4.32-0.537-6.075c0-1.091,0.22-4.091,0.653-8.997l0.599-7.014
		c-7.189,0.74-15.254,0.584-24.19-0.469l-11.262-1.812l-0.354,1.521c-0.279,1.051-0.638,1.771-1.074,2.162l-6.437,3.621
		c-4.328,2.299-6.948,3.737-7.862,4.326c-6.396,4.012-10.627,6.27-12.692,6.775c-3.854,0.938-11.103,0.779-21.748-0.467
		c-10.089-1.209-15.929-2.356-17.517-3.449c-0.875-0.584-1.312-2.414-1.312-5.492c-0.04-2.997,0.318-4.867,1.072-5.607
		c0.597-0.547,2.425-1.309,5.481-2.279l6.851-1.985c2.146-0.661,7.47-2.688,15.971-6.077c-9.652-5.492-14.6-13.732-14.837-24.719
		c-0.079-4.867,0.954-9.428,3.099-13.676c2.266-4.398,5.482-7.867,9.652-10.396c0.238-2.533,1.072-5.98,2.504-10.345l2.145-5.845
		c-8.383-0.896-14.24-3.524-17.578-7.889l-14.357-4.207l-6.557-0.525c-0.396-0.235-0.236-1.09,0.479-2.569l1.134-2.104
		c-2.861-1.326-4.352-2.377-4.471-3.155c-0.08-0.468,0.497-1.188,1.729-2.16l1.847-1.287c-2.185-1.985-3.277-3.291-3.277-3.912
		c0-0.354,0.815-0.938,2.443-1.754l2.384-1.11c-1.111-2.806-1.447-4.538-1.016-5.201l2.804-0.116l2.321,0.584l0.479-1.928
		c0.354-1.324,0.733-2.104,1.132-2.338c0.396-0.232,1.471,0.369,3.219,1.811l2.441,2.223l6.258,0.992
		c1.35-3.855,3.336-8.141,5.959-12.854l5.184-9.23c0.834-1.676,1.311-3.371,1.429-5.084l-0.058-2.104l-9.533-1.286l-11.143-1.345
		c-1.113,0-4.353,1.306-9.713,3.916c-5.047,2.493-9.019,3.485-11.917,2.979c-1.708-0.271-4.408-2.123-8.103-5.553
		c-3.933-3.662-6.296-6.759-7.09-9.292c-0.755-2.491,0.079-6.427,2.502-11.803c2.82-6.271,6.496-9.992,11.024-11.161
		c1.43-0.351,3.674-0.039,6.732,0.936l5.778,2.104c1.033,0.271,2.979,0.059,5.84-0.645c2.662-0.662,5.383-1.56,8.164-2.688
		c1.746-0.701,3.654-2.396,5.72-5.084l5.72-8.122c5.084-7.363,9.754-11.356,14.004-11.979c2.741-0.428,5.879,0.04,9.413,1.402
		c1.788,0.663,3.277,1.364,4.472,2.104c6.594-5.61,13.723-7.226,21.39-4.85c7.468,2.298,13.765,7.772,18.889,16.42
		c3.22,5.532,6.315,12.896,9.296,22.089c4.408,13.479,8.224,29.938,11.439,49.377c7.03,1.4,17.14,4.305,30.327,8.709l4.11-0.41
		c2.821-0.195,4.369-0.061,4.647,0.41c0.437,0.737-0.556,2.783-2.979,6.135l2.386,0.699c1.63,0.547,2.462,1.033,2.503,1.461
		c0.119,0.662-1.153,1.97-3.813,3.916l1.847,0.758c1.23,0.587,1.849,1.171,1.849,1.755c0,0.937-1.549,2.2-4.646,3.797l1.251,0.996
		c0.833,0.737,1.25,1.321,1.25,1.752c0,0.7-2.361,1.851-7.09,3.446c-1.548,4.363-2.8,6.584-3.754,6.662
		c-0.596,0.039-1.728-0.762-3.396-2.396l-2.385-2.513l-10.308-0.118c2.859,8.688,9.532,17.436,20.021,26.238
		c10.25,8.607,21.55,15.113,33.902,19.518C389.151,433.196,390.977,434.618,390.819,436.099"/>
	<path fill="#6651A2" d="M338.73,355.541l-19.188-4.793c-4.369-24.309-7.469-38.781-9.297-43.416
		c19.704,5.727,29.596,9.018,29.675,9.875c0.079,0.855-4.189,5.727-12.812,14.609c18.906,2.726,28.44,4.479,28.601,5.258
		C355.911,337.854,350.25,344.009,338.73,355.541"/>
	<path fill="#6651A2" d="M378.188,428.442l-7.269-3.215c-5.364-2.607-9.296-4.984-11.799-7.129
		c2.938-4.676,6.753-9.934,11.438-15.775c5.442-6.701,8.761-9.857,9.951-9.468c1.352,0.431,1.43,6,0.236,16.714L378.188,428.442"/>
	<path fill="#ED8599" d="M268.85,336.994l-9.293,27.349c-2.464,6.699-5.898,11.568-10.31,14.607
		c-3.854,2.647-7.488,3.467-10.903,2.454c-3.496-1.014-5.957-3.856-7.39-8.53c-1.668-5.418-1.647-12.545,0.062-21.39
		c1.508-8.023,6.971-17.159,16.385-27.404c11.996-0.818,21.472-1.948,28.424-3.389C274.55,321.664,272.229,327.1,268.85,336.994"/>
	<path fill="#CE7486" d="M272.663,326.359c-1.032,2.492-2.503,6.522-4.408,12.096c-3.179-2.727-8.58-3.74-16.207-3.039
		c-8.422,0.74-14.618,3.662-18.59,8.766c2.024-3.855,4.288-7.635,6.792-11.336c2.781-4.053,5.163-6.974,7.15-8.766
		c11.996-0.818,21.47-1.948,28.422-3.389C275.027,321.314,273.975,323.203,272.663,326.359"/>
	<path fill="#453A84" d="M331.891,354.174l23.061-16.303l-16.805,18.113L331.891,354.174"/>
	<path fill="#453A84" d="M326.767,332.086L325.932,336l-0.894-2.57c-0.556-1.908-0.675-3.391-0.358-4.441
		c0.198-0.66,2.584-2.744,7.151-6.252l7.626-5.609L326.767,332.086"/>
	<path fill="#453A84" d="M381.107,394.609c0.516,1.792,0.078,8.024-1.312,18.698l-2.203,15.484l-4.291-2.512L381.107,394.609"/>
	<path fill="#49AA7C" d="M341.244,386.312l-39.86-2.805c-2.226-0.508-4.35-1.852-6.376-4.031c-1.826-1.988-2.801-3.684-2.92-5.084
		l27.647,3.445c15.214,2.104,23.236,3.701,24.069,4.791c1.032,1.287,2.267,4.111,3.694,8.477L341.244,386.312"/>
	<path fill="#49AA7C" d="M203.605,374.802l3.396-1.461c2.345-0.975,3.754-1.461,4.229-1.461l6.138,1.052l5.303,0.993l1.906,5.9
		l-13.524-4.265L203.605,374.802"/>
	<path fill="#49AA7C" d="M236.793,323.496l3.993,0.232l7.149,0.117c-1.59,1.598-3.277,3.467-5.064,5.607
		c-3.574,4.286-5.878,7.831-6.912,10.635l-5.302-0.643l3.933-6.484C237.014,328.326,237.746,325.171,236.793,323.496"/>
	<path fill="#49AA7C" d="M226.248,432.593c0.715,1.051,1.629,1.969,2.74,2.746c3.574,2.57,8.322,3.352,14.24,2.338l2.024,2.807
		c1.828,2.258,3.952,4.4,6.376,6.428c7.746,6.506,17.021,10.635,27.824,12.387l-0.118,2.045c-0.237,1.482-0.874,2.438-1.905,2.865
		c-7.311,3.154-11.878,5.512-13.705,7.07c-2.266,1.906-4.25,3.291-5.957,4.146c-3.338,1.754-7.013,2.668-11.023,2.746l-20.496-1.459
		c-9.059-1.131-13.902-2.203-14.539-3.215c-0.676-1.012-1.055-2.844-1.132-5.494c-0.08-2.609,0.159-4.227,0.715-4.848
		c0.317,1.246,5.462,2.588,15.433,4.029l22.762,0.643c4.171-0.936,6.613-2.861,7.328-5.783c0.754-3.039-1.229-5.104-5.957-6.195
		c-7.15-1.674-12.592-4.207-16.328-7.596c-4.211-3.818-7.229-9.486-9.057-17.004L226.248,432.593"/>
	<path fill="#49AA7C" d="M266.496,444.766c10.447,1.092,18.471-0.137,24.072-3.682l0.953,2.221c0.953,1.83,2.166,3.621,3.635,5.375
		c4.688,5.531,11.202,9.506,19.543,11.922v1.637c-14.301,0.816-26.674,0.041-37.12-2.338c-19.228-4.441-31.778-13.867-37.656-28.281
		C245.682,439.137,254.54,443.518,266.496,444.766"/>
	<path fill="#49AA7C" d="M351.113,431.71c0.158,4.051-0.118,7.83-0.835,11.336c-2.226,11.26-8.361,17.881-18.41,19.867
		c-10.487,2.062-20.062,0.332-28.722-5.199c-8.42-5.338-13.326-12.449-14.715-21.328c2.303,2.842,6.553,4.926,12.75,6.25
		c5.997,1.287,12.451,1.6,19.363,0.938c7.352-0.703,13.646-2.396,18.889-5.086c5.88-2.998,9.613-6.914,11.2-11.746L351.113,431.71"
		/>
	<path fill="#49AA7C" d="M379.021,445.798c-7.189,4.129-17.459,7.832-30.807,11.104l-2.921-3.916
		c3.179-5.104,4.926-8.609,5.245-10.52l14.896-0.584c10.925-0.816,18.89-2.354,23.895-4.617
		C386.508,440.579,383.073,443.423,379.021,445.798"/>
	<path fill="#49AA7C" d="M314.433,478.64c0.834,2.223,9.437,2.885,25.801,1.986c16.364-0.936,24.629-2.492,24.785-4.676l0.301,3.682
		c0.039,2.611-0.358,4.229-1.19,4.852c-2.624,1.986-10.687,3.467-24.191,4.439c-13.507,1.012-21.33,0.684-23.477-0.992
		c-0.479-0.352-0.953-1.93-1.432-4.732C314.552,480.626,314.353,479.106,314.433,478.64"/>
	<path fill="#922F00" d="M229.645,365.802c0.558,7.052,2.76,12.076,6.613,15.076l-4.171-1.053c-2.858-2.726-4.668-5.396-5.422-8.005
		c-1.271-4.17-0.756-9.485,1.55-15.951l1.786,0.292L229.645,365.802"/>
	<path fill="#FFF3C2" d="M298.582,352.889c-1.191,0.818-2.402,2.182-3.634,4.088c-2.384,3.741-3.535,8.241-3.456,13.502
		c0.078,5.222,2.086,9.019,6.018,11.396c1.946,1.207,3.893,1.869,5.84,1.985c-10.088,2.492-20.772,8.103-32.057,16.831
		c-5.641,4.359-10.27,8.473-13.883,12.326c-5.602-1.832-9.91-5.859-12.93-12.096c-0.953-1.947-1.709-4.012-2.268-6.192l-0.594-2.629
		l2.146-4.793c5.877,0.623,10.901-0.312,15.072-2.806c5.045-3.039,9.594-8.668,13.646-16.888L298.582,352.889"/>
	<path fill="#49AA7C" d="M278.88,349.732c0.646,5.182,0.668,10.244,0.068,15.192l-7.185,3.974
		C274.574,363.641,276.945,357.251,278.88,349.732"/>
	<path fill="#DBD2A9" d="M271.532,384.034c-2.98,4.754-6.615,8.297-10.903,10.635c-3.973,2.145-7.746,2.883-11.322,2.221
		c-3.654-0.661-6.195-2.646-7.627-5.96l1.252-3.683l2.859,0.646l7.148-0.47c7.629-1.985,13.865-8.161,18.711-18.522l6.195-3.974
		C277.014,372.29,274.908,378.657,271.532,384.034"/>
	<path fill="#FFFFFF" d="M193.238,327.586l7.03-0.352c0,4.832-0.356,7.305-1.072,7.422
		C198.48,334.734,196.495,332.377,193.238,327.586"/>
	<path fill="#FFFFFF" d="M206.705,325.133l8.699-4.268c0.354,7.83,0.078,12.019-0.836,12.564c-0.557,0.35-2.045-0.938-4.469-3.857
		L206.705,325.133"/>
	<path fill="#FFFFFF" d="M235.781,340.208l-2.562,5.259c-5.283-3.193-7.707-5.238-7.269-6.136c0.235-0.429,1.946-0.409,5.123,0.06
		L235.781,340.208"/>
	<path fill="#FFFFFF" d="M231.551,350.199l-1.49,6.838c-5.36-3.43-7.901-5.59-7.625-6.486c0.157-0.546,1.728-0.777,4.705-0.701
		L231.551,350.199"/>
	<path fill="#FFFFFF" d="M220.171,369.425c-3.021-3.43-4.371-5.434-4.053-6.021c0.358-0.622,2.644-0.155,6.853,1.404
		c4.051,1.44,6.258,2.414,6.613,2.92l1.191,5.086l-0.896,1.168c-0.835,0.74-1.729,1.052-2.68,0.935
		C225.65,374.802,223.309,372.971,220.171,369.425"/>
	<path fill="#FFFFFF" d="M253.479,375.27l-3.992-6.138c-2.623-4.166-3.733-6.407-3.338-6.719c0.639-0.509,2.604-0.138,5.899,1.108
		c1.749,0.662,3.894,1.578,6.435,2.748L253.479,375.27"/>
	<path fill="#FFFFFF" d="M262.713,355.283l-3.934-3.33c-2.619-2.299-3.854-3.721-3.693-4.268l5.125-0.351l4.887,0.646
		L262.713,355.283"/>
	<path fill="#FFFFFF" d="M266.705,342.486l-4.17-2.805c-2.741-1.947-4.072-3.117-3.993-3.508c0.119-0.584,1.45-0.877,3.993-0.877
		l6.434,0.178L266.705,342.486"/>
	<path fill="#0D131A" d="M200.209,366.736c-0.041-0.467,0.555-1.17,1.788-2.104l1.786-1.229c-2.461-2.103-3.634-3.485-3.515-4.146
		c0.079-0.428,0.914-1.033,2.503-1.812l2.383-0.993c-1.072-3.154-1.391-5.082-0.953-5.783l3.039-0.117l2.562,0.701l0.478-2.278
		c0.438-1.559,0.936-2.375,1.49-2.453c0.992-0.078,3.217,1.36,6.672,4.323l1.609,0.351l3.396,0.177l0.656,1.108l0.594,1.11
		l-4.526-0.524l-2.205-0.469l-2.741-1.929c-1.51-1.131-2.44-1.656-2.799-1.578c-0.279,0.078-0.537,0.661-0.777,1.754l-0.354,2.277
		l-2.321-0.583l-2.684-0.354c-0.197,0.157-0.021,1.071,0.536,2.748l0.835,2.452l-2.324,0.819c-1.551,0.624-2.361,1.148-2.441,1.576
		c-0.158,0.662,0.953,1.947,3.336,3.856l-1.729,1.11c-1.15,0.814-1.749,1.4-1.789,1.752c-0.039,0.545,1.49,1.715,4.589,3.506
		l-1.19,1.752c-0.795,1.171-1.112,1.832-0.953,1.988c0.478,0.506,2.402,0.701,5.781,0.584l5.658,1.521
		c4.053,1.209,6.812,2.182,8.281,2.922c0.479,0.777,0.975,1.4,1.49,1.869l1.729,1.577l-17.041-5.962l-4.172-0.113
		c-2.344-0.158-3.652-0.488-3.933-0.994c-0.199-0.39,0.021-1.209,0.653-2.455c0.598-1.168,1.094-1.928,1.492-2.277
		C201.878,368.743,200.25,367.518,200.209,366.736"/>
	<path fill="#0D131A" d="M237.746,323.262c0.756,1.521,0.497,3.721-0.773,6.604l-5.005,9.407h-2.739
		c2.898-4.479,4.785-7.869,5.658-10.168c0.913-2.338,1.055-4.323,0.418-5.961L237.746,323.262"/>
	<path fill="#0D131A" d="M279.1,342.369c1.111-1.752,2.045-2.824,2.799-3.213c0.797-0.391,0.6,0.486-0.596,2.629
		c-0.832,1.559-1.785,4.558-2.859,9c-3.139,12.775-6.713,21.972-10.726,27.581c-4.767,6.698-11.28,10.186-19.543,10.459
		c-8.104,0.272-14.558-1.207-19.364-4.441c-4.848-3.229-7.549-7.928-8.104-14.084c0.516,0.818,1.37,1.562,2.562,2.222
		c1.15,4.987,4.09,8.608,8.816,10.871c4.25,2.024,9.73,2.881,16.443,2.569c6.636-0.312,12.217-3.271,16.744-8.883
		c4.688-5.765,8.381-14.529,11.082-26.294l1.015-4.092C277.848,344.861,278.423,343.422,279.1,342.369"/>
	<path fill="#0D131A" d="M225.354,353.414c-1.351,3.777-2.164,7.538-2.441,11.277l-2.085-0.646
		c0.396-4.051,1.291-8.022,2.681-11.919C223.825,352.402,224.439,352.83,225.354,353.414"/>
	<path fill="#0D131A" d="M229.882,343.129l-3.276,6.896h-2.383c0.834-2.221,2.025-4.869,3.574-7.947L229.882,343.129"/>
	<path fill="#0D131A" d="M341.186,316.893c0.039,0.353-0.416,1.168-1.367,2.455l-6.496,7.188l-6.02,6.543
		c-0.199,0.233-0.418,0.955-0.654,2.162c-0.438,1.754-0.873,1.676-1.312-0.234c-0.396-1.907-0.258-3.231,0.417-3.973l7.389-7.654
		c3.219-3.351,4.786-5.183,4.707-5.493c-0.196-0.623-9.115-3.523-26.754-8.705l-0.771-3.039c2.503,0.623,7.765,2.26,15.789,4.907
		c7.349,2.416,11.639,3.876,12.871,4.384C340.37,316.018,341.106,316.504,341.186,316.893"/>
	<path fill="#0D131A" d="M354.294,335.768c1.469,0.352,2.265,0.799,2.383,1.344c0.12,0.391-0.239,1.109-1.069,2.162l-15.972,16.598
		c-1.43-0.157-2.361-0.393-2.801-0.703c11.282-11.143,16.883-16.85,16.804-17.121c-0.039-0.312-4.41-1.207-13.106-2.688
		l-14.659-2.221l1.551-2.337c0.953,0,5.382,0.761,13.286,2.277L354.294,335.768"/>
	<path fill="#0D131A" d="M277.729,319.289c3.974-0.857,6.354-1.17,7.149-0.936c0.835,0.231-0.536,0.936-4.11,2.104
		c-3.692,1.207-9.375,2.279-17.041,3.214l-23.418,1.228l-14.418-1.871l-9.595-1.283c-0.595,0.076-3.534,1.283-8.817,3.623
		c-5.004,2.26-9.017,3.428-12.036,3.506c-2.662,0.078-6.159-1.852-10.487-5.785c-4.568-4.168-6.852-7.945-6.852-11.335
		c0-5.299,1.688-10.44,5.064-15.427c3.496-5.184,7.289-7.772,11.38-7.772c1.352,0,3.496,0.546,6.437,1.636
		c2.938,1.053,4.887,1.58,5.84,1.58c3.257,0,9.076-1.541,17.457-4.619l10.667-4.15l1.429-0.35c0.239,0.154,0.102,0.428-0.417,0.817
		c-3.14,2.532-8.262,4.986-15.372,7.362c-6.436,2.145-11.104,3.215-14.002,3.215c-1.15,0-3.1-0.507-5.839-1.521
		c-2.702-1.013-4.846-1.52-6.436-1.52c-3.217,0-6.276,2.201-9.176,6.604c-2.94,4.44-4.409,9.154-4.409,14.144
		c0,2.843,2.185,6.135,6.555,9.874c3.893,3.354,6.674,5.045,8.341,5.084c2.701,0.039,6.554-1.107,11.56-3.445
		c5.402-2.533,8.225-3.818,8.463-3.856c1.07-0.194,5.043,0.292,11.916,1.46l12.75,1.93l19.365-0.936
		C267.062,321.119,273.081,320.262,277.729,319.289"/>
	<path fill="#0D131A" d="M253.598,264.36c1.627,0.624,3.793,1.714,6.494,3.272c-1.033,0.545-1.787,0.994-2.266,1.343
		c-1.51-0.934-3.217-1.713-5.123-2.337c-1.986-0.623-3.754-0.935-5.303-0.935c-5.522,0-10.488,3.331-14.896,9.993l-5.602,8.239
		c-2.344,2.961-4.866,5.122-7.566,6.486l-3.693-0.176c3.06-1.169,5.879-3.291,8.461-6.369l6.139-8.824
		c2.423-3.701,4.668-6.37,6.73-8.005c2.9-2.376,6.276-3.681,10.129-3.915C249.048,263.016,251.213,263.425,253.598,264.36"/>
	<path fill="#0D131A" d="M384.682,430.257c3.895,1.594,6.197,2.959,6.912,4.09c0.794,1.322,0.159,3.1-1.907,5.316
		c-3.179,3.428-8.399,6.758-15.67,9.992c-7.229,3.232-15.569,5.979-25.024,8.236l-1.608-2.045
		c9.574-2.219,17.914-4.928,25.026-8.121c7.147-3.193,11.996-6.408,14.538-9.643c1.351-1.637,1.807-2.746,1.37-3.33
		c-0.318-0.428-1.968-1.266-4.945-2.512c-14.062-5.922-25.462-12.758-34.201-20.51c-8.023-7.133-14.498-15.703-19.425-25.714h2.859
		c4.808,9.506,11.104,17.704,18.89,24.601C360.113,418.179,371.176,424.724,384.682,430.257"/>
	<path fill="#0D131A" d="M235.904,413.021c0-8.299,2.104-17.297,6.316-26.996l2.62,0.23c-1.55,2.611-2.979,6.723-4.29,12.33
		c-1.311,5.57-1.966,10.305-1.966,14.201c0,17.879,7.981,30.793,23.952,38.74c13.347,6.623,30.846,9.311,52.493,8.062v2.455
		c-21.568,1.244-39.347-1.541-53.326-8.354C244.505,445.276,235.904,431.72,235.904,413.021"/>
	<path fill="#0D131A" d="M315.862,325.949l5.243,25.127l-2.922-0.584l-4.943-23.783c-4.808-24.27-11.184-41.508-19.127-51.714
		c-5.801-7.519-12.592-11.278-20.377-11.278c-7.668,0-14.799,4.363-21.393,13.09l-7.148,10.109
		c-2.582,3.545-4.866,5.861-6.854,6.953c-2.226,1.208-7.447,2.436-15.672,3.682c-7.785,1.207-12.83,2.648-15.133,4.324l-3.576,2.279
		c-0.953,0.428-0.518-0.332,1.312-2.279c2.463-2.648,7.408-4.578,14.836-5.785c8.817-1.441,14.521-2.805,17.102-4.09
		c1.669-0.818,3.714-3,6.139-6.545l7.147-10.402c6.953-9.232,14.698-13.849,23.239-13.849c10.523,0,19.443,6.292,26.752,18.875
		C306.686,290.713,311.811,306.004,315.862,325.949"/>
	<path fill="#0D131A" d="M197.409,309.764c0.438,0,0.755,0.194,0.953,0.584c0.239,0.43,0.159,0.916-0.238,1.461
		c-0.597,0.74-0.973,1.772-1.132,3.1l-0.238,1.811l-0.596-1.4c-0.318-1.092-0.458-2.045-0.417-2.863
		C195.741,310.659,196.296,309.764,197.409,309.764"/>
	<path fill="#0D131A" d="M227.855,355.166c0.158,0.508,0.537,0.838,1.133,0.995c-1.471,3.233-2.204,6.426-2.204,9.582l-1.608-0.291
		C225.413,362.023,226.309,358.596,227.855,355.166"/>
	<path fill="#0D131A" d="M269.923,336.525c-1.43,4.365-3.534,11.26-6.315,20.687c-2.621,8.024-5.383,13.968-8.28,17.822
		c-3.774,5.063-8.384,7.596-13.824,7.596c-7.312,0-12.215-2.629-14.717-7.887l2.263-0.353c2.544,4.051,6.695,6.077,12.454,6.077
		c7.351,0,13.901-7.907,19.663-23.725c5.48-18.468,9.691-30.349,12.633-35.646l4.17-0.761
		C275.146,323.535,272.466,328.932,269.923,336.525"/>
	<path fill="#0D131A" d="M231.253,376.671c-2.185-3.623-3.159-8.356-2.92-14.198c0.597-13.791,6.772-26.783,18.53-38.977
		l2.086,0.232c-11.203,11.377-17.28,23.897-18.233,37.573c-0.397,5.726,0.339,10.38,2.205,13.966
		c1.907,3.662,4.628,5.491,8.164,5.491l-0.181,1.462C236.773,382.223,233.557,380.372,231.253,376.671"/>
	<path fill="#0D131A" d="M278.443,348.389l1.607-0.875l2.146-1.93c0.953-1.285,1.43-1.52,1.43-0.701
		c0,0.857-0.516,1.889-1.548,3.098c-1.472,1.752-3.06,3.138-4.769,4.148L278.443,348.389"/>
	<path fill="#0D131A" d="M302.039,350.375l-4.827,4.15c-5.321,2.998-9.69,5.513-13.106,7.535
		c-6.315,3.739-11.223,7.147-14.719,10.229c0.397-1.287,1.231-2.903,2.504-4.854c2.58-2.182,7.17-5.084,13.765-8.705
		C290.816,355.889,296.279,353.104,302.039,350.375"/>
	<path fill="#0D131A" d="M256.934,385.786c-0.396,3.584-0.416,8.045-0.06,13.383c0.278,4.168,0.754,8.297,1.431,12.387l-2.683,0.18
		c-0.833-2.146-1.33-5.887-1.489-11.223c-0.119-4.831,0.061-9.622,0.536-14.374l1.132,0.114L256.934,385.786"/>
	<path fill="#0D131A" d="M242.812,389.116c-0.158,5.299,1.371,10.092,4.588,14.375c2.74,3.664,5.998,6.156,9.771,7.479
		c7.55-7.168,15.192-13.068,22.938-17.704c5.841-3.545,12.574-6.779,20.199-9.701l5.186,0.994
		c-7.905,1.674-17.04,6.075-27.409,13.204c-7.824,5.377-13.923,10.385-18.291,15.021c-1.11,1.168-1.888,1.771-2.323,1.811
		l-2.859-1.109c-2.661-1.402-5.186-3.523-7.566-6.367c-3.378-4.092-5.422-8.707-6.138-13.851L242.812,389.116"/>
	<path fill="#0D131A" d="M241.621,278.092c3.693-5.025,8.48-7.343,14.357-6.953l-2.145,2.337c-2.188-0.039-4.191,0.409-6.02,1.344
		c-1.51,0.818-3.217,2.201-5.125,4.149c-1.07,1.051-1.748,1.479-2.023,1.285C240.391,280.06,240.708,279.339,241.621,278.092"/>
	<path fill="#0D131A" d="M309.129,348.506c3.535,0,7.13,0.448,10.785,1.344c3.893,0.938,13.979,3.838,30.268,8.707l5.482-0.232
		c2.424,0.115,3.834,0.508,4.229,1.168c0.278,0.391-0.155,1.48-1.311,3.271l-2.74,3.623l-1.251-0.353
		c2.342-3.312,3.396-5.199,3.157-5.666c-0.198-0.429-2.801-0.371-7.807,0.174c-8.5-2.844-16.444-5.159-23.833-6.952
		c-7.825-1.947-13.446-2.922-16.862-2.922c-4.092,0-7.626,1.344-10.604,4.031c-2.662,2.377-4.49,5.453-5.482,9.232
		c-0.993,3.662-0.973,7.069,0.061,10.226c1.112,3.391,3.178,5.729,6.196,7.012c3.058,1.326,10.368,2.396,21.928,3.216l21.033,0.877
		c2.899,3.038,4.567,4.5,5.004,4.381c0.317-0.037,0.796-0.642,1.433-1.812l1.729-3.854c4.13-1.677,6.296-2.808,6.493-3.392
		c0.08-0.192-0.377-0.604-1.37-1.226l-2.801-1.579c-1.509-0.701-2.085-1.188-1.729-1.462c0.359-0.231,1.331-0.036,2.921,0.587
		c1.432,0.581,2.741,1.305,3.935,2.159c1.071,0.819,1.628,1.403,1.668,1.756c0.12,1.013-2.482,2.492-7.808,4.438l-1.188,3.156
		c-0.953,2.104-1.848,3.213-2.683,3.33c-0.795,0.153-2.204-0.563-4.229-2.164l-2.86-2.396l-17.637-0.408
		c-12.513-0.547-20.615-1.479-24.311-2.805c-3.496-1.246-6.021-3.817-7.567-7.715c-1.431-3.66-1.688-7.654-0.774-11.978
		c0.953-4.481,2.938-8.144,5.959-10.987C299.934,350.102,304.124,348.506,309.129,348.506"/>
	<path fill="#0D131A" d="M353.4,365.102l4.824,0.877c2.186,0.623,3.376,1.228,3.575,1.812c0.159,0.392-0.199,1.033-1.071,1.931
		l-3.1,2.452c-0.636,0.392-1.23,0.486-1.787,0.293c-0.557-0.231-0.518-0.545,0.119-0.937l2.562-1.985
		c0.675-0.625,0.974-1.071,0.894-1.344c-0.04-0.234-0.933-0.623-2.682-1.171c-1.628-0.545-2.879-0.875-3.752-0.993
		c-1.033-0.193-1.435-0.408-1.193-0.644C352.03,365.198,352.566,365.102,353.4,365.102"/>
	<path fill="#0D131A" d="M355.844,370.943c1.469,0.47,2.76,1.013,3.872,1.636c1.232,0.664,1.887,1.248,1.968,1.754
		c0.157,0.937-1.489,2.377-4.945,4.324l-1.37-0.117c-0.519-0.312-0.576-0.603-0.178-0.877l3.932-3.099
		c0-0.388-1.609-1.244-4.826-2.569c-2.024-0.777-2.721-1.306-2.086-1.576C352.804,370.146,354.017,370.32,355.844,370.943"/>
	<path fill="#0D131A" d="M288.215,418.804c1.59-7.479,4.528-12.975,8.819-16.479c1.351-1.092,2.164-1.461,2.442-1.109
		c0.236,0.352-0.26,1.168-1.49,2.453c-3.574,3.701-6.06,8.979-7.447,15.836c-1.391,6.582-1.331,12.33,0.179,17.238
		c2.224,7.285,6.95,13.207,14.183,17.764c5.641,3.545,11.103,5.531,16.386,5.961c1.828,0.156,2.701,0.467,2.622,0.938
		c-0.118,0.504-1.093,0.682-2.921,0.523c-7.468-0.547-14.28-3.078-20.438-7.598c-6.316-4.635-10.388-10.283-12.214-16.945
		C286.784,431.892,286.745,425.698,288.215,418.804"/>
	<path fill="#0D131A" d="M343.092,468.706c0.318-0.156,0.954,0.311,1.907,1.402l4.171,4.498l3.099,3.621
		c0.317,0.699,0.397,2.146,0.237,4.324l-0.354,4.676l-1.907,0.585l0.06-4.677c-0.08-2.143-0.236-3.523-0.477-4.146l-2.562-3.623
		l-3.457-4.615C342.974,469.583,342.734,468.899,343.092,468.706"/>
	<path fill="#0D131A" d="M333.499,477.062l1.071,1.928c0.358,1.4,0.08,4.557-0.833,9.469l-1.073,0.174l-1.072,0.115
		c0.278-1.129,0.438-2.785,0.479-4.965c0.039-2.225-0.062-3.646-0.299-4.268l-0.953-2.688l-1.371-3.506
		c-0.834-1.83-1.072-2.848-0.716-3.039c0.316-0.193,1.014,0.625,2.087,2.455L333.499,477.062"/>
	<path fill="#0D131A" d="M315.683,459.765c0.718,0.193,1.056,0.41,1.017,0.645c-0.756,6.738-1.073,12.602-0.954,17.588l0.595,5.436
		c0.359,2.414,0.657,3.645,0.896,3.684c4.486,1.439,12.79,1.653,24.904,0.643c11.917-1.014,19.066-2.455,21.45-4.323
		c0.357-0.312,0.559-1.538,0.597-3.683c0.038-2.141-0.158-3.428-0.597-3.855l-6.673-6.777c-4.925-5.338-9.057-10.5-12.395-15.484
		c-0.079-0.155,0.078-0.547,0.478-1.17c0.438-0.623,0.714-0.855,0.833-0.701c4.213,5.609,8.541,10.852,12.991,15.721l6.553,6.721
		c0.795,0.815,1.073,2.688,0.834,5.608c-0.198,2.767-0.576,4.479-1.13,5.142c-1.828,2.104-10.052,3.703-24.67,4.793
		c-14.499,1.053-22.801,0.779-24.904-0.818c-0.637-0.465-1.213-2.182-1.729-5.141l-0.835-5.379c-0.16-0.699,0-3.543,0.477-8.531
		c0.398-4.516,0.774-7.906,1.133-10.166L315.683,459.765"/>
	<path fill="#0D131A" d="M349.468,424.995c-2.503-14.764-10.484-24.621-23.953-29.565c-2.423-0.896-3.555-1.578-3.396-2.048
		c0.158-0.465,1.489-0.33,3.991,0.41c6.951,2.104,12.729,6,17.34,11.688c4.17,5.141,6.951,11.158,8.341,18.055
		c1.351,6.584,1.251,12.855-0.297,18.816c-1.63,6.152-4.549,10.811-8.76,13.965c-1.628,1.209-2.503,1.6-2.621,1.17
		c-0.121-0.43,0.556-1.307,2.023-2.629c3.141-2.807,5.383-6.975,6.733-12.506C350.262,436.78,350.461,430.997,349.468,424.995"/>
	<path fill="#0D131A" d="M227.438,431.364c0.717,5.34,2.725,9.994,6.021,13.967c3.691,4.402,8.6,7.479,14.717,9.232
		c3.26,0.936,4.352,1.576,3.276,1.93c-1.072,0.35-3.375-0.039-6.911-1.17c-5.762-1.869-10.389-5.104-13.883-9.701
		c-3.26-4.244-5.186-9.152-5.78-14.725c-0.599-5.453,0.159-10.693,2.265-15.719c2.226-5.221,5.643-9.41,10.25-12.562
		c0.276-0.156,0.396,0.271,0.354,1.285c-0.078,0.975-0.338,1.615-0.772,1.928c-3.615,2.611-6.295,6.271-8.043,10.986
		C227.223,421.489,226.725,426.341,227.438,431.364"/>
	<path fill="#0D131A" d="M249.961,461.341c0.239,0.156-0.436,0.547-2.025,1.17c-7.188,2.768-11.062,4.5-11.617,5.201
		c-0.118,0.115-0.26,1.596-0.416,4.441l-0.062,5.551l-2.024-1.053c-0.237-4.48-0.299-7.168-0.178-8.062
		c0.078-1.014,0.217-1.637,0.418-1.869l2.264-1.229c4.808-1.869,8.421-3.115,10.845-3.74L249.961,461.341"/>
	<path fill="#0D131A" d="M210.994,461.577c0.357-0.273,1.152-0.586,2.384-0.938l15.491-4.793c4.966-1.635,8.46-3,10.484-4.09
		l1.551,0.408c0.796,0.391,1.094,0.625,0.894,0.703c-2.938,1.596-8.579,3.797-16.921,6.602c-7.785,2.611-11.798,4.033-12.036,4.268
		c-0.517,0.43-0.794,1.771-0.833,4.031c-0.04,2.34,0.258,4.053,0.893,5.145c0.397,0.699,5.125,1.615,14.184,2.746l19.544,1.227
		l6.494-0.877c2.384-0.699,5.104-2.201,8.163-4.498c1.312-0.975,4.068-2.59,8.281-4.852l7.209-4.031
		c0.716-0.545,1.174-1.111,1.371-1.695c0.158-0.506,0.18-1.146,0.061-1.928l2.025,0.701c0.197,1.014,0.197,1.852,0,2.514
		c-0.278,0.855-0.896,1.636-1.849,2.336l-6.493,3.393c-3.934,1.907-6.754,3.467-8.463,4.674c-4.171,3.002-7.486,4.928-9.949,5.783
		c-1.549,0.586-3.812,0.957-6.793,1.111l-16.504-1.17c-8.344-0.975-14.043-1.986-17.103-3.037l-1.608-0.818
		c-0.318-0.312-0.615-0.896-0.894-1.752c-0.356-1.246-0.616-2.77-0.774-4.559c-0.158-1.91-0.119-3.41,0.119-4.5
		C210.159,462.667,210.518,461.966,210.994,461.577"/>
	<path fill="#0D131A" d="M222.732,466.075c-0.317,0.156-0.496,1.52-0.537,4.092c-0.078,2.414-0.038,4.381,0.119,5.9l-2.024-0.525
		c-0.397-3.701-0.519-6.682-0.358-8.938c0.041-0.74,0.198-1.246,0.479-1.521l1.43-0.76l6.02-2.104l7.27-2.162
		c2.025-0.508,3.118-0.643,3.277-0.406c0.199,0.229-0.615,0.641-2.443,1.227l-7.387,2.746
		C225.83,464.712,223.884,465.53,222.732,466.075"/>
	<path fill="#0D131A" d="M247.043,362.82c-0.159,0.272,0.635,1.853,2.383,4.734c1.708,2.844,3.316,5.219,4.827,7.129
		c0.197,0.272-0.22,0.737-1.252,1.401l-4.946-7.422c-2.462-4.054-3.453-6.429-2.979-7.129c0.438-0.623,2.604-0.216,6.494,1.228
		c3.06,1.092,5.76,2.241,8.104,3.448l-0.356,0.584c-0.356,0.351-0.596,0.486-0.713,0.408c-1.513-0.854-3.756-1.851-6.735-2.979
		C248.811,363.057,247.201,362.587,247.043,362.82"/>
	<path fill="#0D131A" d="M265.098,347.104c0.236,0.039,0.256,0.312,0.061,0.816c-0.199,0.51-0.397,0.723-0.598,0.645l-4.588-0.584
		l-4.111-0.176c-0.157,0.234,0.797,1.324,2.861,3.271l4.824,4.09c0.278,0.195,0.221,0.76-0.179,1.693l-6.793-5.666
		c-2.185-2.064-3.14-3.428-2.858-4.092c0.198-0.391,1.807-0.562,4.825-0.523L265.098,347.104"/>
	<path fill="#0D131A" d="M260.629,339.098c-2.346-1.908-3.418-3.059-3.219-3.447c0.279-0.467,2.046-0.799,5.303-0.992
		c2.939-0.195,4.967-0.215,6.078-0.059l-0.061,0.875l-0.478,0.817l-5.304-0.408l-3.276,0.292l2.683,2.338l4.646,3.389
		c0.275,0.195,0.197,0.762-0.238,1.695L260.629,339.098"/>
	<path fill="#0D131A" d="M221.243,363.35c3.653,1.051,5.918,1.868,6.793,2.452c2.146,1.521,3.235,3.486,3.274,5.902
		c0.043,2.494-1.209,3.778-3.752,3.856c-1.629,0.039-4.211-1.894-7.748-5.787c-3.492-3.815-5.043-6.213-4.646-7.188
		C215.363,362.003,217.391,362.257,221.243,363.35 M221.184,369.482c3.137,3.429,5.363,5.043,6.674,4.851
		c1.229-0.192,1.865-0.976,1.906-2.338c0-1.285-0.535-2.57-1.609-3.854c-0.596-0.701-2.54-1.677-5.838-2.923
		c-3.258-1.209-4.984-1.674-5.186-1.401C216.814,364.284,218.163,366.173,221.184,369.482"/>
	<path fill="#0D131A" d="M223.389,350.609c-0.08,0.232,0.894,1.111,2.92,2.629l4.407,2.979l-0.356,1.638l-5.779-4.148
		c-2.382-1.947-3.436-3.156-3.156-3.623c0.277-0.469,1.729-0.723,4.352-0.76l5.779,0.291l-0.3,1.578l-4.647-0.645L223.389,350.609"
		/>
	<path fill="#0D131A" d="M226.665,339.74c-0.079,0.271,0.614,0.916,2.085,1.928c1.391,1.014,2.801,1.891,4.23,2.631l-0.238,1.694
		c-1.471-0.78-3.237-2.026-5.305-3.739c-2.145-1.832-3.139-3-2.979-3.507l4.944-0.233l6.375,0.877
		c-0.196,0.271-0.338,0.777-0.416,1.521c-0.952-0.312-2.621-0.646-5.006-0.993L226.665,339.74"/>
	<path fill="#0D131A" d="M195.145,331.618l-3.873-4.968l3.753,1.578l2.264,3.271l1.729,2.163c0.198-0.118,0.337-1.033,0.417-2.747
		l-0.059-3.271l0.714-0.762c0.477-0.429,0.736-0.584,0.775-0.468c0.357,1.169,0.357,2.921,0,5.259
		c-0.318,2.223-0.675,3.486-1.072,3.801C199.156,335.902,197.607,334.617,195.145,331.618"/>
	<path fill="#0D131A" d="M216.596,320.865c0.158,1.17,0.1,3.585-0.18,7.246c-0.355,4.014-0.834,6.098-1.43,6.252
		c-0.676,0.156-2.187-0.896-4.529-3.154c-2.225-2.182-3.872-4.09-4.943-5.727c-0.041-0.078,0.297-0.272,1.012-0.586
		c0.757-0.312,1.151-0.429,1.191-0.352l3.754,5.262c1.549,1.867,2.483,2.744,2.801,2.629c0.277-0.117,0.377-1.752,0.299-4.908
		c-0.038-2.961-0.157-4.986-0.356-6.077c-0.04-0.272,0.337-0.526,1.134-0.759C216.139,320.457,216.555,320.516,216.596,320.865"/>
	<path fill="#515457" d="M287.439,307.895c-3.772,2.961-8.641,4.362-14.599,4.207c-5.958-0.193-11.737-1.17-17.339-2.922
		c-5.322-1.637-8.104-3.137-8.342-4.5c-0.079-0.312,0.693-1.731,2.322-4.266c1.828-2.961,3.871-5.785,6.138-8.475
		c6.714-7.984,12.713-11.842,17.993-11.568c6.596,0.352,11.72,2.493,15.373,6.428c3.021,3.272,4.41,6.799,4.172,10.576
		C292.843,301.621,290.936,305.128,287.439,307.895"/>
	<path fill="#FFFFFF" d="M276.12,311.751c-5.085,0.312-10.132-0.099-15.136-1.228c-3.217-7.754-3.613-15.621-1.19-23.607
		c2.383-7.791,6.099-11.668,11.144-11.629c4.924,0.04,8.699,3.701,11.319,10.986c2.74,7.674,2.722,15.894-0.06,24.659
		L276.12,311.751"/>
	<path fill="#A41E3A" d="M276.298,311.398l-6.256,0.41c-2.026-3.272-3.118-7.676-3.276-13.207
		c-0.119-4.439,0.199-8.024,0.952-10.752c0.954-3.232,2.442-4.869,4.47-4.907c1.748-0.039,3.237,1.344,4.471,4.148
		c1.23,2.845,1.906,6.564,2.023,11.161C278.801,303.551,278.006,307.932,276.298,311.398"/>
	<path fill="#0D131A" d="M272.307,291.648c0.993-0.039,1.608,2.201,1.848,6.721c0.238,4.518-0.118,6.777-1.071,6.777
		c-1.033,0-1.67-2.219-1.907-6.662C270.977,294.045,271.354,291.766,272.307,291.648"/>
	<path fill="#0D131A" d="M277.251,286.857c1.312,3.116,2.065,6.777,2.267,10.985c0.119,2.61-0.041,5.161-0.479,7.655
		c-0.477,2.491-1.132,4.519-1.966,6.075l-1.906,0.06c0.873-1.284,1.548-3.058,2.024-5.317c0.517-2.569,0.694-5.354,0.537-8.354
		c-0.278-4.479-0.937-7.986-1.969-10.519c-0.992-2.454-2.203-3.643-3.634-3.564c-1.312,0.078-2.385,1.266-3.217,3.564
		c-0.993,2.688-1.433,6.311-1.312,10.871c0.04,2.844,0.438,5.529,1.19,8.062c0.635,2.337,1.43,4.107,2.383,5.314l-1.788,0.062
		c-0.992-1.599-1.807-3.646-2.441-6.138c-0.635-2.453-0.974-4.829-1.012-7.129c-0.16-4.907,0.415-8.939,1.729-12.096
		c1.189-2.884,2.68-4.362,4.469-4.44C274.113,281.91,275.822,283.545,277.251,286.857"/>
	<path fill="#FFFFFF" d="M270.221,289.838c-0.039-1.248,0.1-2.26,0.418-3.039c0.356-0.857,0.854-1.305,1.489-1.344
		c0.597,0,1.093,0.369,1.488,1.109c0.397,0.74,0.637,1.734,0.716,2.98c0.08,1.521-0.061,2.728-0.417,3.623
		c-0.356,0.856-0.834,1.285-1.431,1.285c-0.713,0-1.291-0.524-1.729-1.578C270.398,291.98,270.221,290.967,270.221,289.838"/>
	<path fill="#0D131A" d="M277.907,277.45c2.383,2.181,4.29,5.123,5.72,8.824c3.26,8.647,2.898,16.848-1.072,24.601
		c-0.08,0.193-0.457,0.391-1.132,0.584s-0.934,0.155-0.774-0.115c3.22-7.285,3.535-15.137,0.953-23.55
		c-1.11-3.662-2.642-6.564-4.588-8.707c-2.023-2.221-4.229-3.195-6.613-2.922c-5.004,0.624-8.383,4.967-10.131,13.032
		c-1.746,7.945-1.052,15.057,2.086,21.328l-1.369-0.061c-3.813-5.337-4.807-12.445-2.979-21.329
		c1.867-9.271,5.918-14.18,12.154-14.725C272.861,274.177,275.443,275.189,277.907,277.45"/>
	<path fill="#0D131A" d="M279.518,280.137c4.131,0.936,7.625,3.059,10.484,6.37c2.78,3.194,4.23,6.622,4.352,10.284
		c0.158,4.636-1.629,8.453-5.362,11.453c-3.575,2.922-8.104,4.461-13.584,4.615c-5.763,0.156-12.195-0.76-19.308-2.746
		c-6.793-1.908-10.209-3.564-10.248-4.967c-0.08-1.363,1.291-3.975,4.109-7.83c3.02-4.207,6.396-7.87,10.131-10.985
		c-0.318,1.091-0.597,2.356-0.835,3.798c-3.019,2.846-5.641,5.785-7.864,8.824c-2.146,2.922-3.119,4.83-2.92,5.727
		c0.198,1.051,3.418,2.396,9.652,4.032c6.555,1.714,12.273,2.492,17.16,2.337c4.926-0.156,8.896-1.5,11.917-4.031
		c3.177-2.609,4.707-6,4.588-10.168c-0.079-2.961-1.151-5.746-3.218-8.354c-1.985-2.494-4.469-4.363-7.447-5.611L279.518,280.137"/>
	<path fill="#0D131A" d="M381.345,391.516c1.152,0.506,1.312,5.706,0.479,15.603c-0.597,7.518-1.471,14.938-2.62,22.262
		l-2.802-1.402l0.061-0.059c1.032-4.244,2.045-10.771,3.037-19.576c1.034-9.074,1.232-13.729,0.597-13.965
		c-0.675-0.271-3.854,3.154-9.533,10.287c-5.641,7.088-9.075,11.918-10.309,14.49l-1.072-0.938l-1.013-0.936
		c2.621-4.639,6.614-10.107,11.976-16.42C376.022,393.93,379.755,390.812,381.345,391.516"/>
</g>
</svg>
