<?xml version="1.0" encoding="utf-8"?>
<!-- Generator: Adobe Illustrator 16.0.4, SVG Export Plug-In . SVG Version: 6.00 Build 0)  -->
<!DOCTYPE svg PUBLIC "-//W3C//DTD SVG 1.1//EN" "http://www.w3.org/Graphics/SVG/1.1/DTD/svg11.dtd">
<svg version="1.1" id="Layer_1" xmlns="http://www.w3.org/2000/svg" xmlns:xlink="http://www.w3.org/1999/xlink" x="0px" y="0px"
	 width="400px" height="580px" viewBox="0 0 400 580" enable-background="new 0 0 400 580" xml:space="preserve">
<rect opacity="0.3" width="400" height="580"/>
<rect y="490.5" opacity="0.3" fill="#FFFFFF" width="400" height="74.075"/>
<rect y="8.5" opacity="0.3" fill="#FFFFFF" width="400" height="141"/>
<text transform="matrix(1 0 0 1 22.0591 49.7373)"><tspan x="0" y="0" font-family="'Helvetica-Bold'" font-size="35.9315">West Houston POGO</tspan><tspan x="34.923" y="43.118" font-family="'Helvetica-Bold'" font-size="35.9315">Mapping Project </tspan><tspan x="131.744" y="86.236" font-family="'Helvetica-LightOblique'" font-size="35.9315">Demo</tspan></text>
<g>
	<g>
		<g>
			<circle fill="none" stroke="#000000" stroke-width="6" cx="171.721" cy="313.302" r="117.698"/>
		</g>
		<g>
			<circle fill="#93D7F6" stroke="#000000" stroke-width="2" stroke-miterlimit="10" cx="171.721" cy="313.302" r="117.698"/>
		</g>
	</g>
	<g>
		<rect x="79.77" y="290.531" fill="#FFFFFF" stroke="#000000" stroke-miterlimit="10" width="10.334" height="20.933"/>
	</g>
	<g>
		<rect x="263.365" y="298.016" fill="#B2B9C9" stroke="#000000" stroke-miterlimit="10" width="12.72" height="17.126"/>
	</g>
	<g>
		<path fill="#9FC3DD" stroke="#000000" stroke-miterlimit="10" d="M267.35,331.693h20.629c0.941-5.993,1.439-12.133,1.439-18.39
			c0-1.85-0.055-3.687-0.139-5.517H267.35V331.693z"/>
	</g>
	<g>
		<path fill="#B39191" stroke="#000000" stroke-miterlimit="10" d="M54.069,311.97c-0.007,0.447-0.046,0.884-0.046,1.333
			c0,6.257,0.499,12.397,1.439,18.39h21.089V311.97H54.069z"/>
	</g>
	<g>
		<polyline fill="#B2B9C9" stroke="#000000" stroke-miterlimit="10" points="87.126,331.693 109.194,331.693 105.516,291.234 
			87.126,298.591 87.126,331.693 		"/>
	</g>
	<g>
		<rect x="195.973" y="294.913" fill="#7FAAB8" stroke="#000000" stroke-miterlimit="10" width="21.379" height="36.78"/>
	</g>
	<g>
		<rect x="105.516" y="276.522" fill="#EEE1C2" stroke="#000000" stroke-miterlimit="10" width="14.712" height="55.17"/>
	</g>
	<g>
		<rect x="186.433" y="283.879" fill="#EEE1C2" stroke="#000000" stroke-miterlimit="10" width="14.712" height="47.814"/>
	</g>
	<g>
		<rect x="153.331" y="274.684" fill="#9FC3DD" stroke="#000000" stroke-miterlimit="10" width="14.712" height="57.009"/>
	</g>
	<g>
		<rect x="222.754" y="298.591" fill="#B2B9C9" stroke="#000000" stroke-miterlimit="10" width="21.378" height="33.102"/>
	</g>
	<g>
		<rect x="245.972" y="304.107" fill="#B39191" stroke="#000000" stroke-miterlimit="10" width="21.378" height="27.585"/>
	</g>
	<g>
		<path fill="#43AC5F" stroke="#000000" stroke-miterlimit="10" d="M55.463,331.693C64.293,387.958,112.976,431,171.721,431
			c58.746,0,107.427-43.042,116.258-99.307H55.463z"/>
	</g>
	<g>
		<path fill="#71BF64" stroke="#000000" stroke-miterlimit="10" d="M271.431,375.829c8.285-13.185,14.034-28.121,16.548-44.136
			H55.463c2.514,16.015,8.264,30.952,16.548,44.136H271.431z"/>
	</g>
	<g>
		<path fill="#97CB5E" stroke="#000000" stroke-miterlimit="10" d="M61.203,353.761h221.037c2.59-7.066,4.543-14.44,5.74-22.068
			H55.463C56.66,339.321,58.612,346.695,61.203,353.761z"/>
	</g>
	<g>
		<path fill="#B4D781" stroke="#000000" stroke-miterlimit="10" d="M56.896,339.049h229.649c0.546-2.428,1.044-4.873,1.434-7.356
			H55.463C55.853,334.176,56.351,336.621,56.896,339.049z"/>
	</g>
	<g>
		<path fill="#674548" stroke="#000000" stroke-miterlimit="10" d="M225.99,417.739c-20.333-32.239-54.269-86.046-54.269-86.046
			l-54.269,86.046c16.241,8.458,34.69,13.261,54.269,13.261C191.3,431,209.749,426.197,225.99,417.739z"/>
	</g>
	<g>
		<path fill="#8C675C" stroke="#000000" stroke-miterlimit="10" d="M185.639,353.761c-8.172-12.958-13.918-22.068-13.918-22.068
			l-13.918,22.068H185.639z"/>
	</g>
	<g>
		<polyline fill="#FEF0DC" stroke="#000000" stroke-miterlimit="10" points="186.433,331.693 186.433,263.649 168.043,252.615 
			168.043,331.693 		"/>
	</g>
	<g>
		<polygon fill="#FFFFFF" stroke="#000000" stroke-miterlimit="10" points="134.94,239.742 134.94,331.693 153.331,331.693 
			153.331,249.396 153.331,226.869 		"/>
	</g>
	<g>
		<rect x="212.179" y="255.374" fill="#FFFFFF" stroke="#000000" stroke-miterlimit="10" width="14.712" height="76.319"/>
	</g>
	<g>
		<polyline fill="#A29B91" stroke="#000000" stroke-miterlimit="10" points="120.229,331.693 120.229,313.303 98.16,313.303 
			98.16,331.693 		"/>
	</g>
	<g>
		<polyline fill="#9FC3DD" stroke="#000000" stroke-miterlimit="10" points="141.377,331.693 141.377,287.556 120.229,287.556 
			120.229,331.693 		"/>
	</g>
	<g>
		<polyline fill="#89B7C6" stroke="#000000" stroke-miterlimit="10" points="201.145,331.693 201.145,316.98 179.077,320.659 
			179.077,331.693 		"/>
	</g>
	<g>
		<rect x="237.926" y="294.913" fill="#FEF0DC" stroke="#000000" stroke-miterlimit="10" width="14.712" height="36.78"/>
	</g>
	<g>
		<path fill="#FFFFFF" stroke="#000000" stroke-miterlimit="10" d="M171.721,331.693l48.655,88.778
			c1.899-0.864,3.771-1.772,5.614-2.732L171.721,331.693z"/>
	</g>
	<g>
		<path fill="#FFFFFF" stroke="#000000" stroke-miterlimit="10" d="M171.721,331.693l-54.269,86.046
			c1.843,0.959,3.715,1.869,5.614,2.732L171.721,331.693z"/>
	</g>
	<g>
		<path fill="#E9B668" stroke="#000000" stroke-miterlimit="10" d="M181.92,430.509l-10.199-98.816l3.414,99.203
			C177.413,430.83,179.675,430.703,181.92,430.509z"/>
	</g>
	<g>
		<path fill="#E9B668" stroke="#000000" stroke-miterlimit="10" d="M171.721,331.693l-10.199,98.816
			c2.245,0.193,4.507,0.321,6.786,0.387L171.721,331.693z"/>
	</g>
	<g>
		<rect x="72.414" y="305.947" fill="#9FC3DD" stroke="#000000" stroke-miterlimit="10" width="14.712" height="25.746"/>
	</g>
	<g>
		<rect x="205.513" y="321.693" fill="#A29B91" stroke="#000000" stroke-miterlimit="10" width="24.597" height="10"/>
	</g>
	<g>
		<rect x="153.331" y="296.062" fill="#B39191" stroke="#000000" stroke-miterlimit="10" width="8.191" height="35.631"/>
	</g>
	<g>
		<rect x="109.194" y="324.337" fill="#9F8382" stroke="#000000" stroke-miterlimit="10" width="20.995" height="7.356"/>
	</g>
	<g>
		<rect x="91.876" y="324.337" fill="#EEE1C2" stroke="#000000" stroke-miterlimit="10" width="9.842" height="7.356"/>
	</g>
	<g>
		<rect x="157.454" y="324.337" fill="#EEE1C2" stroke="#000000" stroke-miterlimit="10" width="8.137" height="7.356"/>
	</g>
	<g>
		<rect x="226.892" y="324.337" fill="#EEE1C2" stroke="#000000" stroke-miterlimit="10" width="13.103" height="7.356"/>
	</g>
	<g>
		<rect x="185.639" y="326.359" fill="#9F8382" stroke="#000000" stroke-miterlimit="10" width="10.334" height="5.334"/>
	</g>
	<g>
		<rect x="234.948" y="319.74" fill="#9F8382" stroke="#000000" stroke-miterlimit="10" width="10.334" height="11.953"/>
	</g>
	<g>
		<rect x="262.184" y="322.651" fill="#9F8382" stroke="#000000" stroke-miterlimit="10" width="21.564" height="9.042"/>
	</g>
	<g>
		<rect x="67.247" y="319.74" fill="#9F8382" stroke="#000000" stroke-miterlimit="10" width="10.334" height="11.953"/>
	</g>
	<g>
		<rect x="136.779" y="319.74" fill="#B2B9C9" stroke="#000000" stroke-miterlimit="10" width="7.808" height="11.953"/>
	</g>
	<g>
		<rect x="213.448" y="326.359" fill="#B2B9C9" stroke="#000000" stroke-miterlimit="10" width="7.807" height="5.334"/>
	</g>
	<g>
		<rect x="64.606" y="326.359" fill="#B2B9C9" stroke="#000000" stroke-miterlimit="10" width="7.808" height="5.334"/>
	</g>
	<g>
		<rect x="99.241" y="328.015" fill="#B2B9C9" stroke="#000000" stroke-miterlimit="10" width="15.003" height="3.678"/>
	</g>
</g>
<g>
	<path fill="#E78324" d="M95.571,331.328c1.056-0.749,5.676,2.024,13.86,8.317c4.092,3.167,8.073,6.401,11.946,9.702
		c4.268-1.937,9.504-3.696,15.708-5.281c6.469-1.628,9.79-1.936,9.966-0.924c0.22,1.452-3.542,9.614-11.287,24.485l4.225,9.835
		c2.728,6.687,3.829,10.382,3.3,11.087c-0.484,0.705-2.068,0.859-4.752,0.463l-25.08-6.534l-10.56,3.828
		c-7.128,2.375-10.934,3.036-11.417,1.98c-0.529-1.011,1.166-5.169,5.083-12.475l6.004-10.626
		c-5.059-14.124-7.744-24.002-8.051-29.634c-0.088-1.761,0.066-2.992,0.462-3.697L95.571,331.328"/>
	<path fill="#3C3B60" d="M141.837,396.536c14.124,14.344,33,21.12,56.628,20.328l0.33,14.059c-26.84,2.023-48.839-5.412-66-22.308
		c-5.94-5.898-10.956-12.606-15.048-20.13c-2.991-5.544-4.993-10.43-6.006-14.651c-1.188-4.931-0.946-8.516,0.727-10.759
		c0.528-0.704,1.165-1.21,1.914-1.519c0.351-0.177,0.659-0.285,0.923-0.329l3.234-0.134c2.464,0.661,4.401,2.906,5.808,6.734
		C128.571,379.442,134.401,389.012,141.837,396.536"/>
	<path fill="#C96828" d="M110.488,370.862c0.484,2.903,1.474,6.775,2.97,11.617c-7.304,3.255-12.958,5.17-16.962,5.74l-3.895-0.064
		c4.181-2.113,8.427-5.632,12.739-10.562L110.488,370.862"/>
	<path fill="#11161C" d="M100.125,333.902c-1.496-0.968-2.706-1.519-3.63-1.65l-0.99,0.066l-0.33,0.396
		c-0.176,0.484-0.242,1.21-0.198,2.178l0.528,4.025c0.484,2.992,1.848,8.052,4.092,15.181l3.762,11.417l0.132,0.595l-0.132,0.594
		l-4.224,7.324c-2.948,5.236-4.796,8.778-5.544,10.626c-0.924,1.716-1.254,2.729-0.991,3.038l4.687-0.792l8.448-2.772
		c3.696-1.411,6.336-2.531,7.919-3.366c0.265-0.132,0.551,0.239,0.858,1.12c0.354,0.835,0.375,1.321,0.066,1.452l-8.58,3.235
		c-3.3,1.099-6.072,1.89-8.317,2.377c-4.268,1.012-6.621,1.033-7.061,0.064c-0.528-0.837-0.177-2.574,1.056-5.214l4.62-9.503
		l4.488-8.316c-0.967-2.333-2.2-6.162-3.696-11.486c-1.716-6.159-2.905-11.373-3.564-15.64l-0.396-4.358
		c0-2.199,0.462-3.562,1.386-4.091l2.375-0.264c1.276,0.264,2.75,1.012,4.422,2.244c1.804,1.188,5.214,3.762,10.229,7.723
		l9.769,8.051l7.589-2.905c4.269-1.406,8.271-2.462,12.012-3.166c4.092-0.704,6.446-0.749,7.062-0.131
		c0.572,0.57,0.132,2.551-1.32,5.939c-1.364,3.52-4.598,10.187-9.702,19.997l3.696,8.185l3.631,8.779l0.593,2.111
		c0.265,1.541,0.154,2.575-0.33,3.103l-4.818,0.33l-4.884-0.725c-0.396-0.265-0.661-0.705-0.792-1.322
		c-0.088-0.659,0.043-0.968,0.395-0.924l5.345,0.924l2.773-0.133c0.132-0.306,0-1.076-0.396-2.309l-4.158-10.098l-3.367-7.524
		l-0.065-0.396l0.131-0.526l10.099-19.999c1.188-2.508,1.693-3.85,1.519-4.026c-0.397-0.353-2.068-0.155-5.017,0.595
		c-6.467,1.495-13.045,3.74-19.733,6.731c-0.528,0.219-0.99,0.132-1.385-0.265c-0.617-0.705-3.564-3.256-8.845-7.656
		C105.802,338.125,102.062,335.178,100.125,333.902"/>
	<path fill="#11161C" d="M121.377,361.292c1.804,1.366,3.168,3.453,4.091,6.27c6.029,18.085,16.611,31.088,31.747,39.007
		c11.483,5.985,25.234,8.89,41.25,8.713c0.308-0.045,0.461,0.438,0.461,1.45c-0.044,1.012-0.22,1.519-0.528,1.519
		c-16.236,0.176-30.337-2.969-42.306-9.437c-15.62-8.406-26.51-21.956-32.67-40.655c-0.792-2.377-1.87-4.114-3.233-5.217
		c-1.364-1.143-2.883-1.494-4.555-1.056c-3.784,1.056-4.818,4.843-3.102,11.354c3.871,14.562,12.056,27.125,24.552,37.685
		c16.544,13.948,37.378,20.329,62.502,19.14c0.308,0,0.484,0.373,0.528,1.122c0.044,0.75-0.087,1.144-0.396,1.188
		c-26.444,2.026-48.158-4.509-65.141-19.6c-12.32-10.869-20.395-23.85-24.223-38.939c-0.968-3.74-1.079-6.778-0.33-9.109
		c0.792-2.552,2.53-4.157,5.214-4.819C117.44,359.379,119.486,359.841,121.377,361.292"/>
	<path fill="#F5BE18" d="M357.592,237.872c11.528,2.507,18.921,12.671,22.178,30.492c2.374,13.331,2.354,25.431-0.068,36.299
		c-1.407,6.468-4.157,12.827-8.249,19.074c-3.829,5.809-7.349,9.482-10.562,11.022l11.618,9.176
		c-1.938,1.012-6.49,2.177-13.663,3.497l-10.164,1.648c0.879,1.805,2.222,7.24,4.025,16.305c-2.374-0.925-5.938-2.862-10.69-5.81
		l-6.403-4.223c-12.495,10.822-26.29,17.356-41.381,19.601c-9.504,1.409-21.934,1.058-37.291-1.056
		c-5.279,6.556-9.9,11.506-13.861,14.851l-2.045-16.962c-1.67,1.318-6.424,3.763-14.256,7.324
		c-0.044-1.849,0.484-5.234,1.584-10.165l1.65-6.862c-8.448,2.508-16.104,2.332-22.968-0.529c-7.128-2.992-14.41-9.262-21.845-18.81
		c-3.916-5.016-7.062-11.022-9.439-18.019c-2.332-6.863-3.564-13.618-3.695-20.261c-0.177-6.952,0.901-12.761,3.233-17.425
		c2.552-5.104,6.38-8.294,11.484-9.57c8.492-2.156,17.314,0.109,26.466,6.798c4.576,3.344,8.293,6.908,11.154,10.691
		c1.716-3.431,6.094-7.942,13.134-13.529l10.031-7.392c-7.039-4.708-11.659-10.67-13.86-17.886c-0.704-2.245-1.1-4.489-1.188-6.733
		v-2.706c2.596,2.859,5.831,5.895,9.703,9.108c-3.213-4.708-5.149-11.242-5.809-19.603c-0.308-4.18-0.308-7.876,0-11.088
		c4.533,6.513,9.46,12.211,14.784,17.094c10.955,9.989,22.286,15.532,33.991,16.633c13.112,1.276,22.065,2.441,26.86,3.499
		c4.577,1.012,8.36,2.617,11.353,4.817c1.981-7.523,5.633-14.277,10.956-20.261C341.356,239.082,349.099,236.067,357.592,237.872"/>
	<path fill="#F5BE18" d="M304.858,372.778c6.819-2.158,12.518-4.578,17.094-7.262c10.383,16.368,15.971,31.792,16.764,46.266
		c0.439,8.492-0.924,16.852-4.091,25.079c-1.541,4.006-2.883,8.559-4.026,13.665l-1.32,6.47l2.574,1.449
		c1.759,1.23,2.749,2.639,2.97,4.225c0.352,2.374-0.836,4.488-3.564,6.339c-3.388,2.326-8.404,3.472-15.048,3.426
		c-6.115-0.044-10.934-1.361-14.454-3.958l-3.366-3.896c-1.672,1.278-3.497,2.072-5.478,2.378h-2.442
		c-7.524-0.484-13.221-4.002-17.094-10.561c-1.232-2.068-2.2-4.312-2.904-6.731l-0.726-3.036c-1.364,0.132-3.212-0.219-5.545-1.055
		c-4.62-1.629-9.306-4.774-14.059-9.44c-6.6-6.818-9.612-15.267-9.041-25.341c0.353-6.162,1.848-12.057,4.488-17.688
		c6.688-2.82,12.319-6.56,16.896-11.222c2.29-2.332,3.895-4.399,4.819-6.202C278.656,378.099,291.173,377.131,304.858,372.778"/>
	<path fill="#3C3B60" d="M194.704,377.462l1.056,0.13c0.969,0.31,1.981,1.124,3.036,2.442l14.652,18.811l3.828-3.629
		c2.729-2.553,4.555-4.07,5.479-4.556l0.396,5.217c0.177,3.74,0.044,6.29-0.396,7.655l22.835-10.427l-1.584,3.497
		c-1.144,2.993-1.958,6.094-2.441,9.305c-1.496,10.208,0.661,19.537,6.468,27.986c4.005,4.971,8.472,8.556,13.398,10.757
		c2.465,1.1,4.533,1.692,6.205,1.782l-0.331,8.646l1.914,2.177c1.188,1.761,1.607,3.367,1.254,4.82
		c-0.395,1.935-2.2,3.321-5.412,4.159c-3.652,0.967-8.713,1.1-15.18,0.394c-6.16-0.661-10.009-2.31-11.55-4.95
		c-0.792-1.361-1.231-4.775-1.319-10.229l-4.092,5.412c-3.211,3.828-6.16,6.379-8.844,7.657l1.98,3.629
		c0.879,2.728,0.286,4.95-1.782,6.665c-2.816,2.289-6.82,3.521-12.012,3.698c-5.764,0.175-10.054-1.256-12.871-4.291
		c-2.992-3.213-5.06-7.635-6.204-13.267c-1.144-5.544-0.857-9.46,0.858-11.749l3.895-4.09c0.968-1.011,1.759-2.597,2.376-4.751
		l-2.64,0.658l1.518-6.929l-12.869,3.563c-0.133-0.175,0.153-0.856,0.857-2.046c1.32-2.418,3.959-6.226,7.92-11.416l-7.59-5.81
		c-5.544-4.443-9.548-8.228-12.012-11.352l9.9-0.064l14.916,0.657l-3.301-14.848C194.902,382.831,194.132,377.725,194.704,377.462"
		/>
	<path fill="#3C3B60" d="M308.554,371.392c5.764-1.939,10.009-3.983,12.737-6.14c1.542,1.146,3.938,5.125,7.195,11.946l4.355,9.966
		l-2.31,6.073c-0.526-0.924-2.749-3.652-6.666-8.185l-5.676-6.469c-3.917,1.98-9.13,3.148-15.643,3.499l-8.646-0.065l-9.833,16.235
		c-2.155-4.488-5.807-9.086-10.957-13.793l-7.062-5.677l1.98-3.302h0.265C283.605,376.625,297.026,375.263,308.554,371.392"/>
	<path fill="#F7BE16" d="M276.609,449.005c-0.747-1.407-1.232-2.86-1.451-4.354l-0.068-1.915l1.848,2.245
		c1.673,1.713,3.478,3.211,5.413,4.486c6.249,4.004,12.87,4.818,19.866,2.444l0.53,2.241c-0.574,0.575-1.519,1.144-2.839,1.718
		c-2.686,1.231-5.919,1.936-9.703,2.11C283.519,456.487,278.985,453.493,276.609,449.005"/>
	<path fill="#E78324" d="M321.424,459.631c-6.557,1.277-12.782-0.022-18.677-3.893l-0.728-3.038l6.733-4.815l1.518,0.925
		c1.363,0.657,2.838,1.143,4.422,1.449c5.104,1.013,10.56,0.023,16.369-2.968l-1.651,9.303
		C327.34,458.006,324.68,459.016,321.424,459.631"/>
	<path fill="#E78324" d="M347.89,279.188c2.859-8.58,4.708-13.662,5.544-15.246c0.88-1.583,1.761-2.75,2.639-3.499
		c0.441-0.396,0.793-0.616,1.058-0.66c1.363,0.177,2.727,7.547,4.093,22.11l1.584,21.781c6.95,5.5,10.052,8.492,9.304,8.976
		c-1.144,0.968-5.85,1.715-14.123,2.244l-4.62,7.787c-3.255,5.147-5.369,7.635-6.337,7.458c-0.968-0.176-2.046-3.19-3.234-9.042
		l-1.518-8.646c-2.332-1.011-4.972-2.398-7.92-4.157c-2.992-1.761-4.444-2.816-4.355-3.169c0.132-0.308,2.089-1.209,5.873-2.705
		l5.676-2.112C342.786,295.292,344.897,288.251,347.89,279.188"/>
	<path fill="#E98424" d="M211.204,344.923c-9.284,1.848-14.741,2.265-16.368,1.255c-1.012-0.616-0.352-2.685,1.98-6.204l3.762-5.017
		c-2.64-4.62-5.148-9.525-7.524-14.718c-4.751-10.296-6.468-16.786-5.148-19.469l0.924,0.065c0.837,0.264,1.892,0.968,3.168,2.112
		l9.966,9.503c5.632,5.192,9.504,8.338,11.616,9.438l1.188,10.098c1.54,7.832,4.048,14.586,7.524,20.262
		C218.859,350.709,215.164,348.267,211.204,344.923"/>
	<path fill="#EC8599" d="M286.641,348.225c0.573,6.423-0.659,10.582-3.695,12.473c-2.331,1.454-4.752,1.872-7.259,1.254
		c-1.849-0.484-3.981-1.673-6.403-3.563c-0.571-3.522-0.351-6.953,0.661-10.297c2.067-6.732,7.04-9.725,14.917-8.977
		L286.641,348.225"/>
	<path fill="#92321E" d="M252.058,336.146c3.387-0.616,7.678-2.398,12.869-5.346l6.733-4.158c2.684,2.111,5.016,3.63,6.996,4.554
		l0.131-5.017l2.509,4.225c1.847,3.3,3.146,6.248,3.895,8.844l-4.95-0.527c-2.201,0.264-4.27,1.077-6.206,2.442
		c-2.903,2.155-4.532,5.698-4.883,10.627c-0.176,2.417-0.067,4.641,0.331,6.666c-0.528-0.135-6.183-6.029-16.962-17.69
		L252.058,336.146"/>
	<path fill="#EA8399" d="M247.769,317.864l3.564-0.199c1.056,0.22,1.671,0.661,1.847,1.32c0.22,0.66-0.088,1.364-0.924,2.112
		c-0.792,0.748-1.827,1.297-3.103,1.649l-3.564,0.265c-1.011-0.22-1.628-0.682-1.848-1.386c-0.175-0.659,0.132-1.364,0.925-2.112
		C245.458,318.766,246.492,318.216,247.769,317.864"/>
	<path fill="#FFFFFF" d="M252.058,336.146c0.395,5.148,0.439,7.722,0.131,7.722c-0.306-0.043-2.375-2.111-6.203-6.204
		L252.058,336.146"/>
	<path fill="#FFFFFF" d="M271.263,326.773l4.688-3.761l1.386,1.254c1.407,4.708,1.849,7.019,1.319,6.93L271.263,326.773"/>
	<path fill="#FFFFFF" d="M226.45,304.994c5.676-0.793,9.636,4.751,11.879,16.631c1.233,6.556,1.255,11.682,0.066,15.378
		c-0.836,2.685-2.067,4.247-3.695,4.686c-2.509,0.661-5.018-0.132-7.525-2.375c-3.036-2.685-5.083-6.866-6.138-12.542
		c-1.188-6.204-1.1-11.307,0.264-15.311C222.402,308.206,224.118,306.05,226.45,304.994"/>
	<path fill="#E78324" d="M230.211,308.954c2.464-0.748,4.423,0.924,5.875,5.016c1.012,2.816,1.826,7.04,2.442,12.672
		c0.395,3.563-0.067,6.138-1.386,7.722l-2.113,1.386c-1.451,0.176-3.014-0.551-4.686-2.179c-2.024-1.98-3.52-4.795-4.489-8.447
		c-0.967-3.829-0.989-7.37-0.065-10.626C226.713,311.374,228.188,309.525,230.211,308.954"/>
	<path fill="#FFFFFF" d="M309.346,293.246c2.42,6.248,3.234,11.946,2.441,17.094c-0.66,4.356-2.31,7.743-4.95,10.164
		c-1.672,1.1-3.716,1.474-6.137,1.122c-4.84-0.792-9.175-4.906-13.002-12.342c-2.507-5.5-3.697-10.868-3.564-16.104
		c0.133-6.028,2.113-10.231,5.94-12.606l1.716-0.66c1.363-0.308,2.772-0.286,4.224,0.066
		C300.634,281.167,305.078,285.59,309.346,293.246"/>
	<path fill="#E78324" d="M299.38,290.275c1.495,1.673,2.685,3.543,3.564,5.61c1.892,3.212,2.595,7.084,2.112,11.617
		c-0.484,4.4-1.803,7.15-3.96,8.25c-3.565,1.848-6.777,1.453-9.636-1.188c-2.685-2.464-4.863-6.644-6.534-12.54
		c-1.057-3.784-1.145-6.996-0.265-9.636c0.837-2.419,2.355-4.136,4.555-5.148C292.957,285.92,296.343,286.932,299.38,290.275"/>
	<path fill="#DAA228" d="M312.975,440.821c-1.804,5.896-5.477,9.66-11.021,11.286c-6.954,2.07-13.509,1.166-19.669-2.707
		c-6.599-4.135-11.219-10.91-13.858-20.327l3.035,3.103c2.508,2.418,5.082,4.531,7.723,6.336c8.315,5.895,15.464,7.786,21.449,5.676
		c4.664-1.629,8.294-4.071,10.891-7.328c1.318-1.625,2.155-3.079,2.507-4.354v2.506
		C313.899,437.039,313.547,438.975,312.975,440.821"/>
	<path fill="#DAA228" d="M270.208,446.168c0.264-1.409,0.792-2.684,1.585-3.827l1.122-1.322l0.923,0.925l0.792,2.508
		c0.749,1.98,1.672,3.807,2.771,5.477c3.521,5.324,8.185,8.052,13.993,8.186l3.563-0.331c2.772-0.528,5.126-1.431,7.062-2.705
		l-1.188,5.61c-1.54,3.739-4.246,5.698-8.117,5.872l-5.082-0.197c-4.092-0.746-7.942-2.684-11.55-5.808
		C271.287,455.408,269.327,450.613,270.208,446.168"/>
	<path fill="#DAA228" d="M324.262,421.55c-0.706,3.255-2.509,6.182-5.412,8.778l-4.158,2.904l-1.65-6.336
		c2.111,0,4.62-0.881,7.523-2.641L324.262,421.55"/>
	<path fill="#DAA228" d="M308.817,471.513c-5.015-0.838-8.316-3.256-9.9-7.262l1.519-2.244c1.1-1.935,1.825-4.134,2.178-6.599
		l0.859,1.056c0.835,0.791,2.001,1.386,3.497,1.781l-0.263,1.386c-0.132,1.102-0.044,2.222,0.263,3.369
		c1.013,3.604,3.96,6.49,8.845,8.644C313.658,471.997,311.326,471.951,308.817,471.513"/>
	<path fill="#E78324" d="M274.696,443.595c4.664,5.851,10.779,8.999,18.349,9.436c3.783,0.223,7.105-0.152,9.966-1.12l-0.132,2.572
		l-3.498,1.85c-2.904,1.187-5.809,1.76-8.712,1.716c-5.676-0.573-10.053-3.146-13.133-7.722c-0.925-1.453-1.671-3.016-2.245-4.688
		L274.696,443.595"/>
	<path fill="#C96828" d="M306.969,458.245c-2.904-1.494-4.355-2.441-4.355-2.837l-0.066-3.035l6.731-3.432l-1.319,2.571
		C307.08,453.715,306.75,455.957,306.969,458.245"/>
	<path fill="#CF7487" d="M269.944,348.95c-0.573,0.22-0.573-0.331,0-1.651c0.572-1.363,1.474-2.75,2.705-4.157
		c3.652-4.048,7.657-5.369,12.011-3.959l0.133,0.395c1.233,3.345,1.827,6.864,1.782,10.561l-0.461,4.621
		c-2.86-4.226-6.403-6.47-10.626-6.735l-3.96,0.397L269.944,348.95"/>
	<path fill="#DAA228" d="M339.507,340.04c3.434,1.584,8.03,1.21,13.794-1.123c2.86-1.144,5.39-2.463,7.589-3.96l11.683,9.108
		c-1.672,0.792-6.137,1.782-13.399,2.971l-10.36,1.518c0.702,2.244,2.045,7.962,4.024,17.159c-1.144-0.438-7.082-3.98-17.819-10.626
		c-14.388,13.995-32.272,21.099-53.658,21.32c-6.688,0.043-13.333-0.595-19.933-1.916l-7.854-1.979l9.108,0.462
		c7.568,0.044,15.026-0.594,22.374-1.912C308.642,366.835,326.791,356.496,339.507,340.04"/>
	<path fill="#DAA228" d="M192.525,350.005c2.948,1.803,5.896,3.344,8.844,4.62c9.548,4.05,17.6,4.709,24.156,1.982l4.357,4.354
		c-4.181,2.157-9.395,2.815-15.643,1.979c-9.46-1.231-17.863-6.312-25.211-15.246L192.525,350.005"/>
	<path fill="#DAA228" d="M252.52,372.049l4.224,2.179l-13.664,14.521L252.52,372.049"/>
	<path fill="#11161C" d="M314.164,264.536c-3.652-1.101-7.657-1.87-12.013-2.311l-19.668-2.507
		c-10.868-1.805-20.834-6.6-29.897-14.388c-6.028-5.193-11.132-11.133-15.312-17.82c-0.221,3.652-0.045,7.634,0.527,11.945
		c0.967,6.645,2.794,12.035,5.479,16.17c-1.585-0.088-2.486-0.308-2.707-0.659c-2.552-3.74-4.18-8.866-4.884-15.378
		c-0.572-5.016-0.572-9.812,0-14.387c0.221-2.068,0.881-2.223,1.981-0.463c4.531,7.217,10.428,13.706,17.687,19.47
		c8.844,7.04,18.019,11.396,27.523,13.068l19.205,2.442c9.811,0.704,17.072,2.617,21.78,5.742c0.264,0.22,0.221,0.813-0.131,1.782
		c-0.352,0.968-0.683,1.364-0.99,1.188C320.543,266.934,317.683,265.636,314.164,264.536"/>
	<path fill="#11161C" d="M251.067,274.766l1.519,0.659c0.528,0.308,0.747,0.594,0.659,0.859c-0.175,0.571-1.208,0.439-3.102-0.397
		c-8.447-3.608-14.145-9.593-17.092-17.952c-0.924-2.595-1.519-5.301-1.783-8.118l-0.132-3.498c0-1.319,0.176-2.001,0.528-2.046
		c0.265-0.044,0.506,0.067,0.726,0.331l0.99,1.32c1.232,1.629,3.256,3.674,6.072,6.138c4.312,3.345,7.502,6.578,9.571,9.702
		l0.725,1.188c0.264,0.616,0.287,1.011,0.066,1.188c-0.221,0.133-0.55-0.021-0.99-0.462l-1.188-1.319
		c-2.245-2.421-5.456-5.259-9.637-8.515c-1.76-1.408-3.388-3.08-4.884-5.016c1.1,5.457,2.552,9.834,4.356,13.134
		C240.507,267.506,245.04,271.773,251.067,274.766"/>
	<path fill="#11161C" d="M247.372,273.71c0.264-0.133,0.55,0.043,0.859,0.527c0.306,0.439,0.33,0.748,0.064,0.924
		c-8.799,5.236-16.104,11.659-21.912,19.272c-10.383,13.552-13.288,28.117-8.711,43.692c2.243,7.656,5.961,14.344,11.153,20.063
		c2.597,2.904,4.995,5.038,7.194,6.404c1.408,0.968,2.002,1.647,1.782,2.045c-0.22,0.484-1.056,0.309-2.509-0.527
		c-2.684-1.409-5.499-3.587-8.447-6.535c-5.853-5.896-9.923-12.892-12.21-20.988c-4.62-16.324-1.408-31.503,9.636-45.54
		C231.268,284.116,238.967,277.669,247.372,273.71"/>
	<path fill="#11161C" d="M335.812,354.823c0.483,0.573,0.615,0.968,0.396,1.188c-12.936,12.409-28.732,19.404-47.389,20.989
		c-12.1,1.055-23.781-0.089-35.045-3.434c-1.716-0.701-2.508-1.23-2.376-1.583l2.046-0.13l2.375,0.461
		c12.277,2.155,22.704,2.88,31.284,2.176c18.48-1.495,34.365-8.225,47.654-20.194C334.976,354.076,335.328,354.253,335.812,354.823"
		/>
	<path fill="#11161C" d="M379.371,276.217c-1.893-13.507-5.521-23.364-10.889-29.568c-4.576-5.279-10.207-7.722-16.896-7.326
		c-9.107,0.572-16.456,6.028-22.044,16.368c-5.193,9.679-8.075,21.889-8.646,36.629c-0.176,1.584-0.485,2.376-0.924,2.376
		c-0.53,0-0.793-0.902-0.793-2.706c-0.484-14.476,2.244-27.104,8.185-37.884c6.204-11.352,14.299-17.292,24.287-17.82
		c7.612-0.441,14.037,2.309,19.273,8.25c6.071,6.82,9.966,17.358,11.681,31.614c1.278,10.561,0.396,21.032-2.641,31.417
		c-3.078,10.384-7.721,18.524-13.924,24.42c-5.104,4.884-10.582,7.92-16.435,9.107c-3.961,0.792-7.151,0.749-9.571-0.131
		c-1.319-0.439-1.892-0.924-1.714-1.452c0.13-0.264,0.417-0.375,0.856-0.33l1.453,0.264l8.779-0.396
		c5.146-1.232,10.097-4.093,14.849-8.58c5.457-5.104,9.658-12.782,12.605-23.034C379.944,296.831,380.78,286.426,379.371,276.217"/>
	<path fill="#11161C" d="M225.129,294.764c0.219,0.22,0.022,0.572-0.594,1.056c-0.572,0.44-0.967,0.549-1.187,0.331
		c-6.204-7.92-13.025-13.31-20.46-16.17c-6.601-2.508-12.453-2.662-17.557-0.462c-5.72,2.464-9.372,7.656-10.956,15.577
		c-1.452,7.305-0.902,15.157,1.649,23.562c2.904,9.681,6.887,18.062,11.947,25.146c5.28,7.437,11.132,12.562,17.556,15.378
		c4.048,1.804,8.03,2.816,11.945,3.035c4.27,0.264,8.207-0.417,11.815-2.046c0.309-0.132,0.616,0.154,0.923,0.859
		c0.309,0.704,0.309,1.123,0,1.254c-3.606,1.673-7.59,2.462-11.945,2.375c-4.532-0.088-9.086-1.12-13.662-3.102
		c-6.997-2.949-13.289-8.207-18.876-15.774c-5.412-7.259-9.702-15.972-12.87-26.135c-2.86-9.064-3.454-17.578-1.781-25.542
		c1.848-8.711,6.116-14.476,12.804-17.292c5.984-2.464,12.43-2.376,19.338,0.264C210.962,280.067,218.266,285.963,225.129,294.764"
		/>
	<path fill="#11161C" d="M352.707,268.297c-1.451,3.521-3.453,9.438-6.006,17.754c-2.331,7.569-3.673,12.32-4.025,14.256
		l-0.727,0.99c-5.983,2.112-9.614,3.476-10.889,4.092c2.419,1.936,6.356,3.938,11.813,6.005c0.396,0.175,0.593,0.463,0.593,0.858
		c1.541,10.076,2.817,15.774,3.829,17.094c0.747-0.44,2.133-2.177,4.158-5.215l5.543-9.107c0.221-0.307,0.485-0.484,0.792-0.527
		l7.062-0.858l6.271-0.99c-1.189-1.408-3.058-3.213-5.608-5.412l-3.498-2.971c-0.266-0.177-0.398-0.439-0.398-0.792
		c0-2.948-0.967-14.629-2.904-35.046c-0.482-5.104-1.077-7.7-1.78-7.788c-0.309-0.044-0.881,0.705-1.717,2.245L352.707,268.297
		 M359.111,261.169c0.439,1.232,0.967,3.674,1.58,7.326c0.532,3.564,1.147,9.328,1.851,17.292
		c0.748,8.448,1.145,14.189,1.189,17.226c4.267,3.872,7.258,6.929,8.973,9.174l0.266,0.859l-0.726,0.726
		c-1.012,0.484-5.566,1.408-13.663,2.772c-5.718,9.812-9.526,14.63-11.417,14.453c-1.98-0.351-3.872-6.292-5.675-17.819
		c-6.337-2.86-10.428-5.236-12.276-7.128l-0.331-0.726l0.132-0.528c0.661-0.836,4.532-2.574,11.617-5.215
		c0.351-2.463,1.803-7.611,4.356-15.444c2.419-7.26,4.399-12.76,5.94-16.5c2.463-5.852,4.552-8.711,6.269-8.58
		C357.988,259.146,358.625,259.85,359.111,261.169"/>
	<path fill="#11161C" d="M215.296,322.286c0.264,0.131,0.22,0.505-0.132,1.122l-0.924,0.725c-1.671-0.968-5.257-3.937-10.758-8.909
		l-10.361-9.636l-3.234-3.168c-0.617-0.528-1.078-0.727-1.386-0.594c-0.308,0.176-0.088,1.826,0.66,4.95
		c2.64,9.592,6.775,18.766,12.407,27.521l0.199,0.594l-0.199,0.594c-3.74,5.456-5.808,8.91-6.203,10.361
		c1.408,0.309,6.49-0.307,15.247-1.848l0.792,0.266l5.28,4.025c3.696,2.729,6.204,4.379,7.523,4.95c0.264,0.088,0.264,0.374,0,0.858
		c-0.264,0.482-0.528,0.681-0.791,0.593c-1.321-0.572-3.586-2.047-6.797-4.421l-5.677-4.291l-14.388,1.519
		c-1.628-0.133-2.552-0.529-2.772-1.19c-0.352-1.582,1.54-5.411,5.676-11.482c-6.249-9.769-10.339-19.096-12.276-27.984
		c-0.396-1.627-0.572-3.058-0.528-4.29c0-1.364,0.286-2.2,0.858-2.509c0.66-0.308,1.518-0.175,2.574,0.396
		c1.056,0.573,2.552,1.76,4.488,3.564l10.692,9.899C210.456,318.612,213.8,321.406,215.296,322.286"/>
	<path fill="#11161C" d="M244.731,338.39c-1.627,0-2.441-0.155-2.441-0.462c-0.046-0.352,0.79-0.683,2.507-0.991l9.372-2.573
		c7.48-2.817,14.696-6.931,21.648-12.342c0.572-0.397,1.057-0.331,1.453,0.197c4.138,5.06,7.085,10.757,8.845,17.095
		c1.583,5.762,1.936,10.867,1.056,15.311c-0.529,2.772-1.474,4.862-2.839,6.271c-1.231,1.275-2.903,2.068-5.015,2.375
		c-1.848,0.266-3.828-0.108-5.94-1.12c-2.771-1.278-5.566-3.521-8.382-6.734l-8.316-9.173l-4.489-4.687l0.132-0.989
		c0.132-0.617,0.286-0.836,0.462-0.66l5.213,5.28l8.383,8.91c4.532,5.325,8.667,7.787,12.407,7.392
		c3.521-0.485,5.677-2.75,6.468-6.799c0.792-3.872,0.638-8.162-0.462-12.87c-1.451-6.115-4.311-11.923-8.58-17.423
		c-7.173,5.719-14.498,9.746-21.979,12.077L244.731,338.39"/>
	<path fill="#11161C" d="M272.716,341.359c2.507-2.288,5.257-3.542,8.249-3.762l4.026,0.462c0.264,0.088,0.374,0.418,0.331,0.99
		c0,0.571-0.155,0.814-0.461,0.727l-3.829-0.199c-2.816,0.22-5.169,1.276-7.062,3.168c-2.596,2.288-4.025,5.565-4.291,9.835
		c-0.132,2.155,0,4.092,0.397,5.808c0.087,0.306-0.088,0.461-0.53,0.461c-0.395,0-0.637-0.131-0.726-0.395
		c-0.572-1.938-0.836-4.049-0.792-6.336C268.161,347.586,269.724,343.999,272.716,341.359"/>
	<path fill="#11161C" d="M247.966,340.964l-2.639-2.904c-0.177-0.175-0.045-0.44,0.395-0.792c0.396-0.351,0.661-0.439,0.792-0.264
		l2.573,3.037l2.64,2.839c0-2.465-0.242-4.62-0.725-6.469c-0.044-0.043,0.219-0.198,0.792-0.462l0.989-0.066
		c0.177,0.528,0.265,1.805,0.265,3.828l-0.066,3.895l-0.331,0.99l-0.792-0.134C250.935,343.891,249.636,342.724,247.966,340.964"/>
	<path fill="#11161C" d="M276.544,323.869l0.726-0.396l0.858-0.065c0.396,1.319,0.814,3.806,1.254,7.458l-0.197,0.989l-0.992-0.131
		l-5.148-2.97l-2.177-1.452c-0.177-0.131,0-0.418,0.526-0.858c0.573-0.439,0.948-0.594,1.123-0.462l1.649,1.518l3.96,2.838
		C277.908,328.578,277.38,326.421,276.544,323.869"/>
	<path fill="#11161C" d="M243.941,319.447c0.747-0.924,1.892-1.628,3.431-2.112l3.894-0.331c1.188,0.265,1.959,0.814,2.31,1.65
		c0.308,0.704,0.067,1.475-0.726,2.311c-0.792,0.834-1.935,1.495-3.432,1.979l-3.828,0.396c-1.232-0.22-1.979-0.704-2.243-1.452
		C243.081,321.098,243.28,320.284,243.941,319.447 M250.671,318.458l-2.838,0.396c-0.879,0.308-1.627,0.704-2.244,1.188
		c-0.527,0.44-0.748,0.835-0.66,1.188c0.133,0.396,0.529,0.638,1.188,0.726l2.772-0.33c2.376-0.704,3.388-1.562,3.037-2.574
		C251.838,318.699,251.421,318.501,250.671,318.458"/>
	<path fill="#11161C" d="M304.528,320.042c2.947-0.923,4.84-3.63,5.675-8.118c0.879-4.443,0.485-9.459-1.188-15.047
		c-1.716-5.765-4.4-10.121-8.053-13.069c-3.386-2.683-6.6-3.52-9.635-2.507c-2.947,0.968-4.862,3.674-5.742,8.118
		c-0.836,4.532-0.375,9.614,1.386,15.246c1.628,5.28,4.201,9.438,7.722,12.474C298.127,320.085,301.404,321.053,304.528,320.042
		 M311.195,296.083c1.803,5.72,2.177,11.198,1.121,16.434c-1.099,5.369-3.409,8.69-6.929,9.967
		c-3.741,1.187-7.568,0.175-11.485-3.037c-4.092-3.3-7.084-8.03-8.976-14.189c-1.98-6.336-2.42-11.925-1.32-16.764
		c1.055-4.839,3.41-7.854,7.062-9.042c3.828-1.232,7.635-0.417,11.418,2.441C306.134,284.93,309.17,289.66,311.195,296.083"/>
	<path fill="#11161C" d="M305.056,298.195c1.363,3.96,1.606,7.832,0.726,11.616c-0.88,3.785-2.573,6.227-5.082,7.326
		c-2.067,0.88-4.29,0.837-6.667-0.132c-2.418-0.967-4.378-2.618-5.874-4.949c-0.132-0.176,0.044-0.419,0.528-0.727
		c0.44-0.307,0.726-0.373,0.858-0.197c1.276,2.024,2.838,3.432,4.686,4.225l5.281,0.131c1.979-0.88,3.342-2.948,4.09-6.204
		c0.836-3.476,0.617-7.062-0.659-10.758c-1.233-3.74-3.103-6.666-5.61-8.778c-2.509-2.156-4.863-2.86-7.062-2.112
		c-2.29,0.748-3.828,2.441-4.62,5.082c-0.485,1.496-0.683,3.081-0.595,4.752c0,0.22-0.264,0.352-0.792,0.396
		c-0.572,0-0.859-0.11-0.859-0.33c-0.132-2.508,0.287-4.775,1.253-6.798c1.1-2.333,2.796-3.872,5.082-4.621
		c2.729-0.879,5.588-0.154,8.582,2.179C301.361,290.672,303.603,293.972,305.056,298.195"/>
	<path fill="#11161C" d="M295.881,304.532c0.089-1.188-0.088-2.553-0.526-4.093c-0.441-1.583-0.991-2.794-1.65-3.63
		c-0.617-0.836-1.189-1.166-1.717-0.99c-0.571,0.176-0.902,0.836-0.989,1.981c-0.088,1.143,0.111,2.485,0.594,4.025
		c0.485,1.496,1.056,2.684,1.716,3.564c0.661,0.792,1.231,1.121,1.717,0.99C295.508,306.247,295.793,305.632,295.881,304.532
		 M291.525,294.235c1.013-0.308,2.045,0.045,3.102,1.057c1.145,1.1,2.025,2.75,2.639,4.949c0.485,1.848,0.617,3.564,0.398,5.149
		c-0.265,1.627-0.837,2.596-1.716,2.904c-1.056,0.352-2.09,0.043-3.103-0.925c-1.099-1.056-2.023-2.75-2.771-5.082
		c-0.704-2.112-0.88-3.939-0.528-5.478C289.898,295.401,290.558,294.544,291.525,294.235"/>
	<path fill="#11161C" d="M233.512,321.56c-0.617-3.08-1.298-4.51-2.046-4.29c-0.705,0.133-0.792,1.76-0.265,4.883
		c0.572,3.169,1.276,4.643,2.112,4.423c0.395-0.044,0.572-0.748,0.528-2.112L233.512,321.56 M231.268,315.554
		c0.748-0.176,1.474,0.308,2.178,1.451c0.704,1.145,1.21,2.597,1.519,4.357c0.308,1.76,0.351,3.3,0.132,4.62
		c-0.22,1.32-0.66,2.068-1.32,2.245c-0.704,0.131-1.43-0.308-2.178-1.32c-0.881-1.144-1.474-2.662-1.782-4.554
		C229.156,318.26,229.64,315.994,231.268,315.554"/>
	<path fill="#11161C" d="M232.983,309.68c-1.892-2.816-3.872-4.025-5.94-3.63c-2.244,0.483-3.85,2.552-4.817,6.204
		c-1.013,3.695-1.122,7.942-0.331,12.738c0.793,4.752,2.354,8.646,4.687,11.682c2.376,3.079,4.795,4.377,7.26,3.895
		c1.892-0.354,3.124-2.399,3.696-6.139c0.571-3.696,0.375-8.294-0.594-13.794C236.152,316.104,234.831,312.451,232.983,309.68
		 M226.846,304.201c2.639-0.483,5.015,0.704,7.127,3.564c2.112,2.816,3.762,6.996,4.949,12.541
		c1.232,5.808,1.386,10.933,0.462,15.377c-0.967,4.445-2.75,6.909-5.345,7.392c-2.685,0.529-5.413-0.726-8.185-3.761
		c-3.08-3.389-5.104-8.009-6.071-13.861c-0.925-5.368-0.748-10.076,0.528-14.125C221.632,307.149,223.81,304.774,226.846,304.201"/>
	<path fill="#11161C" d="M229.816,308.228c1.364-0.308,2.662-0.044,3.893,0.792c1.013,0.66,1.849,1.584,2.509,2.772l-0.594,0.726
		l-0.858,0.067c-0.439-0.837-1.011-1.519-1.715-2.047c-0.924-0.704-1.893-0.946-2.905-0.726c-1.32,0.308-2.376,1.672-3.167,4.091
		c-0.924,2.685-1.079,5.765-0.462,9.241c0.617,3.432,1.826,6.314,3.63,8.646c1.672,2.243,3.256,3.234,4.752,2.969
		c1.628-0.265,2.64-1.583,3.036-3.959l0.857-0.132c0.573,0.087,0.835,0.22,0.793,0.395c-0.31,1.761-0.968,3.125-1.98,4.092
		c-0.792,0.749-1.694,1.211-2.706,1.386c-1.98,0.309-3.982-0.835-6.006-3.432c-2.024-2.597-3.388-5.787-4.093-9.57
		c-0.66-3.873-0.439-7.349,0.661-10.428C226.516,310.295,227.968,308.668,229.816,308.228"/>
	<path fill="#11161C" d="M255.886,373.172c0.175-0.263,0.573-0.155,1.187,0.331c0.616,0.439,0.836,0.793,0.661,1.056l-8.249,9.702
		l-5.082,5.413c-0.75,0.748-1.278,1.076-1.584,0.987c-0.309-0.088-0.528-0.549-0.661-1.386l-0.989-6.931
		c-0.485-3.826-0.748-6.863-0.792-9.104c-4.665,2.859-8.867,5.083-12.607,6.665l-1.782,0.265c-0.308-0.222-0.418-0.86-0.33-1.916
		c0.352-3.958,1.034-7.897,2.045-11.812l1.453-5.018l1.188,0.067l1.055,0.526l-1.583,5.412c-1.1,4.094-1.826,7.548-2.178,10.364
		c5.104-2.333,9.283-4.621,12.539-6.864c0.573-0.354,0.991-0.461,1.254-0.331l0.528,1.188l1.981,15.445
		C247.548,383.535,251.529,378.848,255.886,373.172"/>
	<path fill="#11161C" d="M347.428,348.225c0.044-0.133,0.396-0.264,1.057-0.397l8.91-1.32c6.381-1.056,10.89-2.023,13.53-2.904
		l-6.864-5.149l-4.292-3.036c-0.218-0.088,0.022-0.33,0.728-0.726c0.659-0.396,1.121-0.528,1.387-0.396
		c0.615,0.308,2.244,1.453,4.884,3.432l6.137,4.95c0.617,0.528,0.925,0.969,0.925,1.32l-0.991,0.859
		c-2.199,1.012-5.478,1.98-9.833,2.903l-13.267,1.782c1.937,4.841,3.412,10.207,4.423,16.106l-0.066,1.319l-1.451-0.066
		c-2.421-0.967-6.205-3.212-11.352-6.732l-7.657-5.41c-1.583-1.189-2.244-2.003-1.979-2.445c0.307-0.439,1.297-0.064,2.97,1.123
		l6.071,3.96c4.444,2.862,8.031,4.993,10.758,6.402c-1.539-6.466-2.817-11.264-3.828-14.389
		C347.362,348.751,347.294,348.354,347.428,348.225"/>
	<path fill="#11161C" d="M266.71,375.086l1.188-0.066c0.616,0.174,0.88,0.417,0.792,0.726c-0.924,2.728-3.477,5.853-7.655,9.371
		c-5.413,4.489-12.454,8.515-21.121,12.081c-7.963,3.079-14.146,5.85-18.546,8.315c-2.728,1.496-5.059,3.234-6.996,5.214
		l-3.696,4.555l-1.716,2.442l-0.989,0.79c-0.308-0.131-0.353-0.593-0.133-1.382c0.176-0.75,0.55-1.629,1.122-2.641
		c2.64-4.576,6.424-8.316,11.353-11.221c4.62-2.64,10.713-5.412,18.282-8.315c8.844-3.651,15.862-7.569,21.055-11.749
		C263.521,380.125,265.874,377.418,266.71,375.086"/>
	<path fill="#11161C" d="M194.44,461.283c1.056,5.542,3.365,9.723,6.93,12.537c4.18,3.347,9.592,4.29,16.236,2.84
		c3.916-0.88,6.379-2.42,7.392-4.619c0.704-1.585,0.639-3.127-0.198-4.621l-1.583-1.915c-0.264-0.175-0.22-0.526,0.133-1.056
		c0.395-0.568,0.704-0.749,0.923-0.526c1.188,0.925,2.068,2.024,2.64,3.299c0.88,1.805,0.946,3.676,0.198,5.611
		c-0.616,1.625-1.65,2.947-3.103,3.96c-1.495,1.01-3.541,1.823-6.137,2.44c-7.259,1.673-13.288,0.682-18.083-2.971
		c-4.137-3.166-6.865-7.852-8.185-14.055c-0.792-3.784-0.902-6.866-0.33-9.24c0.396-1.455,1.209-2.993,2.442-4.622l2.112-2.244
		l2.376-2.837c0.967-1.628,1.76-3.807,2.375-6.534c1.32-6.028,2.596-10.23,3.829-12.606c0.835-1.542,1.43-2.18,1.781-1.916
		c0.353,0.265,0.309,1.058-0.132,2.376c-0.968,2.641-2.09,6.82-3.367,12.542c-0.66,3.034-1.495,5.433-2.507,7.193
		c-0.704,1.231-1.65,2.375-2.838,3.434l-1.716,1.848c-1.012,1.318-1.606,2.528-1.782,3.628
		C193.537,454.946,193.736,457.632,194.44,461.283"/>
	<path fill="#11161C" d="M218.661,467.024c6.292-3.608,11.683-8.558,16.17-14.851c3.653-5.104,6.183-10.251,7.591-15.443
		c0.396-1.806,0.792-2.662,1.188-2.574c0.571,0.131,0.637,1.099,0.197,2.904c-1.233,5.985-3.519,11.463-6.864,16.433
		c-4.443,6.469-10.361,11.463-17.753,14.982c-1.496,0.661-2.332,0.792-2.508,0.396C216.461,468.476,217.122,467.858,218.661,467.024
		"/>
	<path fill="#11161C" d="M239.716,446.432c-0.308-0.133-0.351-0.528-0.131-1.188c0.219-0.66,0.461-0.902,0.725-0.725
		c3.169,1.494,7.107,2.53,11.815,3.1c6.468,0.705,12.32,0.066,17.555-1.913c0.309-0.089,0.506,0.241,0.595,0.988
		c0.089,0.749-0.022,1.168-0.33,1.255c-5.588,1.935-11.529,2.551-17.82,1.848C247.195,449.271,243.061,448.148,239.716,446.432"/>
	<path fill="#11161C" d="M314.361,427.426c1.849,6.069,1.563,11.569-0.856,16.497c-2.728,5.592-7.745,8.956-15.049,10.1
		c-9.194,1.406-17.072-2.003-23.627-10.231c-5.192-6.556-8.579-14.387-10.164-23.495c-0.395-2.333-0.374-3.542,0.067-3.629
		c0.351-0.134,0.77,0.901,1.254,3.1c1.892,8.845,5.39,16.348,10.493,22.506c6.336,7.699,13.574,10.803,21.714,9.308
		c6.205-1.144,10.562-4.026,13.069-8.646c2.333-4.313,2.639-9.24,0.924-14.784c-2.64-8.449-8.469-16.478-17.49-24.092
		c-1.276-1.056-1.737-1.78-1.386-2.175c0.307-0.398,1.298,0.064,2.971,1.384c4.576,3.562,8.491,7.545,11.748,11.946
		C311.019,419.349,313.13,423.42,314.361,427.426"/>
	<path fill="#11161C" d="M326.638,418.316c0.177,0.044,0.177,0.44,0,1.188l-0.727,1.979c-1.144,2.333-2.287,4.226-3.432,5.677
		c-2.025,2.595-4.642,4.929-7.854,6.997c-0.265,0.176-0.506-0.11-0.727-0.86c-0.219-0.746-0.197-1.231,0.067-1.45
		c4.355-2.991,7.787-6.6,10.296-10.824C325.537,419.042,326.33,418.142,326.638,418.316"/>
	<path fill="#11161C" d="M336.537,406.503c-0.88-8.009-3.079-16.105-6.6-24.29c-2.816-6.6-5.895-12.077-9.24-16.434
		c-0.175-0.219,0.067-0.549,0.727-0.991c0.616-0.438,1.012-0.526,1.188-0.263c3.916,5.808,7.062,11.22,9.438,16.238
		c3.96,8.447,6.423,16.829,7.392,25.144c0.747,6.293,0.527,12.541-0.66,18.746c-0.705,3.873-2.158,9.019-4.357,15.442l-2.509,7.524
		c-0.791,2.862-1.298,6.05-1.518,9.569c0,0.354-0.374,0.506-1.121,0.462c-0.792-0.042-1.166-0.239-1.122-0.593
		c0.22-3.651,0.66-6.888,1.319-9.703c0.44-1.804,1.21-4.158,2.31-7.061c1.849-5.236,3.212-10.8,4.093-16.7
		C336.846,417.173,337.066,411.475,336.537,406.503"/>
	<path fill="#11161C" d="M311.127,459.037c5.632,1.454,11.549,0.594,17.754-2.573c0.264-0.175,0.485,0,0.661,0.531
		c0.175,0.524,0.132,0.878-0.133,1.054c-6.688,3.521-13.113,4.334-19.271,2.442c-1.938-0.617-3.741-1.454-5.413-2.511l-1.915-1.45
		c-0.264-0.178-0.329-0.527-0.197-1.058c0.133-0.482,0.309-0.615,0.528-0.395C305.519,456.969,308.18,458.288,311.127,459.037"/>
	<path fill="#11161C" d="M302.482,452.107c0.572-0.219,0.858-0.175,0.858,0.131c0.22,3.17-0.111,5.987-0.991,8.45
		c-1.363,3.783-3.828,6.137-7.392,7.062c-4.355,1.144-8.887,0.551-13.595-1.783c-5.017-2.551-8.558-6.379-10.627-11.483
		c-1.935-4.751-2.132-8.646-0.593-11.681c0.484-0.968,1.145-1.783,1.98-2.441l1.122-0.792c0.31-0.132,0.507,0.131,0.594,0.792
		c0.132,0.658,0.045,1.056-0.264,1.188l-1.98,2.31c-0.924,2.287-0.594,5.368,0.99,9.239c1.937,4.621,5.126,8.119,9.571,10.497
		c4.268,2.241,8.293,2.792,12.078,1.646c3.079-0.923,5.237-3.146,6.468-6.666c0.616-1.804,0.924-3.696,0.924-5.674
		C301.581,452.594,301.866,452.328,302.482,452.107"/>
	<path fill="#11161C" d="M273.837,441.151l0.858,0.924c0.616,3.388,1.98,6.36,4.091,8.911c2.728,3.21,6.38,5.214,10.956,6.009
		l7.393-0.401c1.98-0.568,3.587-1.449,4.819-2.641c0.219-0.173,0.438-0.062,0.66,0.332c0.264,0.397,0.286,0.681,0.066,0.859
		c-1.319,1.232-2.969,2.2-4.951,2.904c-2.639,0.924-5.411,1.144-8.316,0.655c-9.02-1.534-14.475-7.433-16.368-17.685
		C273.002,440.756,273.266,440.801,273.837,441.151"/>
	<path fill="#11161C" d="M328.683,458.181c-0.307-0.044-0.33-0.354-0.064-0.926c0.307-0.572,0.613-0.812,0.923-0.725l3.298,1.85
		c1.892,1.361,2.95,2.857,3.169,4.485c0.176,2.288-0.462,4.226-1.915,5.81c-1.363,1.539-3.477,2.748-6.336,3.63
		c-3.036,0.967-6.577,1.453-10.626,1.453c-8.007,0.041-13.661-1.431-16.961-4.424c-1.057-0.923-1.804-1.979-2.245-3.168
		c-0.263-0.617-0.396-1.144-0.396-1.586c0-0.306,0.375-0.462,1.121-0.462c0.749,0,1.145,0.156,1.189,0.462l0.33,0.991
		c0.396,0.792,1.056,1.52,1.979,2.179c2.861,2.155,7.767,3.28,14.719,3.367c3.564,0.044,6.886-0.398,9.965-1.321
		c2.684-0.788,4.511-1.714,5.479-2.771c1.056-1.146,1.517-2.444,1.387-3.894c-0.133-1.232-0.86-2.378-2.179-3.433
		C330.421,458.818,329.476,458.312,328.683,458.181"/>
	<path fill="#11161C" d="M314.692,451.448c-1.54-0.354-2.948-0.923-4.224-1.716l-1.583-1.19c-0.176-0.175-0.111-0.414,0.197-0.724
		c0.308-0.308,0.551-0.375,0.727-0.199l1.518,0.991c1.187,0.616,2.509,1.056,3.959,1.318c4.532,0.836,9.417-0.263,14.652-3.298
		c0.22-0.132,0.44,0.064,0.661,0.594c0.175,0.485,0.153,0.792-0.067,0.924C324.768,451.492,319.487,452.594,314.692,451.448"/>
	<path fill="#11161C" d="M285.454,459.236c0.307-0.177,0.836,0.395,1.585,1.716l0.593,1.451l0.726,3.433
		c0.043,0.264-0.264,0.417-0.925,0.461c-0.659,0.046-1.011-0.062-1.055-0.33l-0.462-3.298l-0.264-1.122
		C285.299,460.091,285.234,459.323,285.454,459.236"/>
	<path fill="#11161C" d="M299.38,464.185l-1.783,1.32c-0.043-2.287-0.176-3.54-0.395-3.761c-0.221-1.453-0.199-2.221,0.064-2.309
		c0.354-0.133,0.816,0.482,1.386,1.848C298.874,461.503,299.115,462.47,299.38,464.185"/>
	<path fill="#11161C" d="M248.89,467.816c-5.016-0.925-8.493-2.355-10.429-4.29c-1.451-1.233-2.133-3.564-2.045-6.996l0.66-6.139
		c0.044-0.308,0.286-0.507,0.726-0.594c0.483-0.089,0.703,0.022,0.659,0.328c-0.704,6.163-0.285,10.035,1.255,11.618
		c1.584,1.672,4.751,2.948,9.503,3.827l16.765-0.528c2.112-0.525,3.343-1.343,3.695-2.44c0.397-1.365-0.308-3.235-2.111-5.607
		l-1.056-1.72l-0.264-1.652v-6.466c0-0.307,0.395-0.462,1.187-0.462c0.749,0,1.123,0.156,1.123,0.462l-0.331,6.271
		c0,1.056,0.198,1.848,0.593,2.376l2.245,3.233c0.791,1.454,1.011,2.797,0.659,4.025c-0.659,2.291-2.529,3.763-5.608,4.424
		C260.306,468.763,254.566,468.872,248.89,467.816"/>
	<path fill="#11161C" d="M257.602,460.556l0.99,0.066l0.989,0.595l1.386,1.386c0.88,1.144,1.32,2.333,1.32,3.563
		c0,0.264-0.309,0.395-0.923,0.395c-0.66,0-0.991-0.131-0.991-0.395c0-1.409-0.573-2.728-1.716-3.958
		C257.777,461.326,257.427,460.777,257.602,460.556"/>
	<path fill="#11161C" d="M212.986,472.238c0.308-0.308,0.946-0.042,1.914,0.79l1.32,1.521c0.792,1.23,1.122,2.463,0.99,3.696
		c-0.044,0.264-0.441,0.395-1.188,0.395c-0.748-0.046-1.1-0.199-1.056-0.462c0.132-1.719-0.242-3.122-1.122-4.226l-0.726-0.925
		C212.854,472.677,212.81,472.415,212.986,472.238"/>
	<path fill="#11161C" d="M221.632,470.259l1.32,1.518c0.792,1.188,1.122,2.397,0.989,3.63c-0.043,0.264-0.373,0.374-0.989,0.33
		c-0.66-0.043-0.99-0.197-0.99-0.461c0.176-1.366-0.265-2.729-1.32-4.096l-0.727-0.987c-0.264-0.354-0.33-0.617-0.198-0.792
		l0.99,0.131L221.632,470.259"/>
	<path fill="#11161C" d="M264.73,459.105l0.989,0.064l0.991,0.595l1.45,1.387c0.88,1.142,1.322,2.331,1.322,3.562
		c0,0.31-0.331,0.462-0.991,0.462c-0.659,0-0.99-0.152-0.99-0.462c0-1.405-0.572-2.728-1.715-3.96l-0.859-0.857
		C264.664,459.588,264.598,459.323,264.73,459.105"/>
	<path fill="#11161C" d="M316.936,465.043c0.352-0.351,1.013-0.107,1.981,0.728l1.318,1.518c0.793,1.146,1.167,2.355,1.124,3.63
		l-0.924,0.53c-0.661,0.043-0.992-0.068-0.992-0.331c0.133-1.586-0.374-3.035-1.518-4.356
		C317.089,465.836,316.76,465.266,316.936,465.043"/>
	<path fill="#11161C" d="M326.109,463.393l0.991,0.068l0.99,0.595l1.453,1.385c0.879,1.1,1.319,2.287,1.319,3.567
		c0,0.26-0.308,0.459-0.924,0.59c-0.659,0.09-0.99,0-0.99-0.264c0-0.79-0.198-1.626-0.594-2.509l-1.188-1.782l-0.857-0.858
		C326.044,463.881,325.979,463.613,326.109,463.393"/>
	<path fill="#11161C" d="M245.986,392.181c0.175-0.222,0.462-0.135,0.858,0.263c0.439,0.396,0.572,0.705,0.395,0.924
		c-2.507,3.386-4.158,7.723-4.948,13c-0.97,6.822-0.046,13.529,2.771,20.132c2.595,5.939,6.622,10.758,12.078,14.454
		c4.268,2.86,8.272,4.445,12.012,4.752c0.263,0.043,0.243,0.287-0.067,0.726c-0.307,0.441-0.614,0.638-0.924,0.592
		c-3.871-0.307-7.918-1.803-12.144-4.488c-5.807-3.605-10.141-8.644-13-15.111c-3.169-7.041-4.093-14.17-2.771-21.385
		C241.168,400.761,243.081,396.142,245.986,392.181"/>
	<path fill="#11161C" d="M331.785,385.646c0.088-0.264,0.44-0.155,1.056,0.33c0.617,0.526,0.88,0.9,0.793,1.123l-2.046,6.269
		c-0.265,0.704-0.507,1.076-0.727,1.123l-1.056-0.924l-5.082-6.468l-6.6-7.657c-6.205,3.168-14.168,4.288-23.892,3.365
		l-8.977,15.974l-0.925,0.924c-0.263,0-0.526-0.331-0.791-0.992c-1.671-3.52-5.104-7.831-10.297-12.937l-7.392-6.666
		c-0.219-0.176-0.153-0.482,0.198-0.924c0.353-0.438,0.617-0.57,0.792-0.395l6.798,5.612c4.752,4.44,8.337,8.929,10.758,13.462
		l8.447-15.248c0.22-0.395,0.55-0.549,0.99-0.461l8.051,0.198c6.206-0.306,11.574-1.517,16.105-3.63
		c0.396-0.219,0.77-0.153,1.122,0.198l4.62,5.214c3.124,3.607,5.367,6.423,6.732,8.447L331.785,385.646"/>
	<path fill="#11161C" d="M193.78,378.915c0.044-1.012,0.242-1.74,0.594-2.178c0.528-0.487,1.386-0.287,2.573,0.594
		c1.276,0.879,2.75,2.441,4.423,4.687c5.456,6.644,10.142,12.738,14.058,18.281l0.396,0.792c0.264,0.527,0.308,0.9,0.132,1.12
		c-0.263,0.354-0.836-0.02-1.716-1.12l-14.85-19.074c-2.024-2.64-3.299-3.808-3.827-3.5c-0.221,0.13-0.155,1.321,0.197,3.564
		c0.484,3.169,2.398,11.549,5.743,25.147c0.176,0.614,0.176,1.011,0,1.187l-1.254,0.199l-23.232-0.924
		c2.112,2.155,4.862,4.664,8.25,7.523c3.959,3.346,7.457,6.005,10.494,7.985l0.792,0.792l-0.396,0.924l-8.777,11.881l11.22-3.632
		l1.253-0.065c0.22,0.132,0.264,0.571,0.132,1.319l-0.197,1.585l-0.661,3.298l1.122-0.725c0.308-0.087,0.484,0.242,0.528,0.991
		c0.088,0.749-0.022,1.165-0.33,1.252l-1.98,0.659l-1.453,0.133c-0.22-0.176-0.242-0.615-0.066-1.319l1.122-4.883l-6.665,1.716
		l-4.488,0.989l-1.65-0.132c-0.219-0.307-0.088-0.813,0.396-1.518l8.382-11.947c-3.784-2.505-7.766-5.697-11.945-9.568l-6.732-6.93
		c-0.44-0.705-0.638-1.145-0.594-1.321c0.131-0.265,0.616-0.439,1.451-0.526l7.591-0.199l15.443,0.661
		c-2.375-9.507-4.047-17.361-5.016-23.562C193.934,381.224,193.78,379.838,193.78,378.915"/>
	<path fill="#11161C" d="M223.349,388.879c0.263,0.133,0.439,0.594,0.528,1.386l0.396,4.884c0.088,3.389-0.132,6.226-0.66,8.515
		c-0.088,0.394-0.814,0.242-2.178-0.462c0.484-2.421,0.727-5.72,0.726-9.901v-1.386c-3.036,2.816-5.478,5.393-7.326,7.724
		c-0.176,0.262-0.572,0.154-1.188-0.331c-0.616-0.483-0.814-0.837-0.594-1.056c1.54-1.937,3.454-3.96,5.742-6.071l3.168-2.708
		C222.577,388.99,223.04,388.792,223.349,388.879"/>
</g>
<text transform="matrix(1 0 0 1 128.9961 526.7373)"><tspan x="0" y="0" font-family="'Helvetica'" font-size="35.9315">I-10 West</tspan><tspan x="13.933" y="28.8" font-family="'Helvetica-LightOblique'" font-size="24">@ Kirkwood</tspan></text>
<g>
	<g>
		<g>
			<g>
				<path fill="#51BA67" d="M20.642,209.188c0,25.386,20.58,45.964,45.962,45.964c25.386,0,45.965-20.579,45.965-45.964
					c0-25.384-20.58-45.963-45.965-45.963C41.221,163.225,20.642,183.805,20.642,209.188z"/>
			</g>
			<g>
				<path fill="#0BB285" d="M112.569,209.188c0-25.384-20.58-45.963-45.965-45.963c-25.383,0-45.962,20.58-45.962,45.963"/>
			</g>
			<g>
				<path fill="#34373B" d="M20.642,210.3c-0.614,0-1.112-0.498-1.112-1.112c0-25.958,21.117-47.075,47.074-47.075
					c0.614,0,1.112,0.498,1.112,1.112c0,0.614-0.499,1.112-1.112,1.112c-24.73,0-44.851,20.121-44.851,44.852
					C21.753,209.802,21.256,210.3,20.642,210.3z"/>
			</g>
			<g>
				<path fill="#34373B" d="M66.604,256.265c-0.613,0-1.112-0.499-1.112-1.112s0.499-1.112,1.112-1.112
					c24.732,0,44.854-20.121,44.854-44.853c0-0.614,0.498-1.112,1.112-1.112s1.112,0.498,1.112,1.112
					C113.682,235.146,92.562,256.265,66.604,256.265z"/>
			</g>
		</g>
		<g>
			<g>
				<path fill="#48BD9B" d="M31.27,209.188c0,19.516,15.822,35.334,35.334,35.334c19.517,0,35.334-15.818,35.334-35.334
					c0-19.513-15.817-35.334-35.334-35.334C47.091,173.854,31.27,189.675,31.27,209.188z"/>
			</g>
			<g>
				<path fill="#81C88C" d="M31.27,209.188c0,19.516,15.822,35.334,35.334,35.334c19.517,0,35.334-15.818,35.334-35.334H31.27
					L31.27,209.188z"/>
			</g>
			<g>
				<path fill="#447DC0" d="M101.752,212.843H58.935v-38.144c-3.566,0.79-6.927,2.118-9.998,3.896v61.189
					c3.07,1.777,6.433,3.105,9.998,3.895v-20.838h40.267C100.516,219.711,101.391,216.354,101.752,212.843z"/>
			</g>
			<g>
				<path fill="#34373B" d="M103.051,209.188c0-20.096-16.35-36.446-36.447-36.446c-0.762,0-1.533,0.023-2.292,0.071
					c-0.613,0.038-1.079,0.565-1.041,1.178c0.037,0.589,0.526,1.043,1.109,1.043c0.023,0,0.047,0,0.07-0.002
					c0.713-0.044,1.438-0.066,2.155-0.066c18.871,0,34.223,15.352,34.223,34.222c0,0.717-0.022,1.442-0.066,2.154
					c-0.008,0.136,0.011,0.267,0.048,0.389H60.047v-36.144c0.569-0.141,0.937-0.704,0.823-1.289
					c-0.117-0.603-0.702-0.998-1.305-0.877c-0.265,0.052-0.526,0.125-0.791,0.183c-0.027,0.003-0.053,0.002-0.08,0.008
					c-0.289,0.064-0.575,0.137-0.861,0.208c-0.416,0.103-0.827,0.213-1.239,0.331c-0.348,0.1-0.694,0.203-1.039,0.313
					c-0.204,0.064-0.413,0.117-0.615,0.185c-0.04,0.014-0.076,0.034-0.113,0.051c-1.428,0.488-2.824,1.065-4.181,1.728
					c-0.042,0.015-0.086,0.027-0.128,0.048c-0.194,0.095-0.381,0.207-0.574,0.307c-0.295,0.153-0.589,0.311-0.882,0.471
					c-0.916,0.505-1.82,1.034-2.687,1.614c-0.511,0.341-0.648,1.032-0.307,1.542c0.214,0.322,0.567,0.495,0.925,0.495
					c0.213,0,0.427-0.061,0.617-0.188c0.07-0.046,0.145-0.087,0.215-0.133v57.195c-9.294-6.126-15.444-16.65-15.444-28.59
					c0-0.718,0.022-1.441,0.066-2.154c0.039-0.612-0.427-1.14-1.04-1.178c-0.603-0.039-1.141,0.429-1.179,1.041
					c-0.046,0.758-0.071,1.529-0.071,2.292c0,13.43,7.307,25.178,18.149,31.5c0.026,0.018,0.047,0.042,0.074,0.057
					c0.215,0.125,0.435,0.241,0.652,0.361c0.109,0.061,0.217,0.122,0.328,0.182c0.468,0.252,0.939,0.496,1.417,0.727
					c0.015,0.007,0.03,0.016,0.044,0.022c0.478,0.229,0.962,0.447,1.449,0.656c0.182,0.078,0.365,0.151,0.548,0.226
					c0.304,0.125,0.609,0.246,0.916,0.361c0.228,0.086,0.456,0.171,0.685,0.252c0.263,0.093,0.528,0.182,0.794,0.269
					c0.256,0.084,0.51,0.17,0.768,0.249c0.178,0.054,0.358,0.102,0.537,0.153c0.604,0.174,1.214,0.333,1.831,0.476
					c0.116,0.027,0.23,0.058,0.346,0.084c0.009,0.002,0.019,0.001,0.029,0.003c2.54,0.562,5.174,0.868,7.88,0.868
					c0.762,0,1.534-0.024,2.292-0.071c0.613-0.038,1.079-0.566,1.041-1.179c-0.038-0.612-0.573-1.079-1.179-1.041
					c-0.713,0.044-1.438,0.066-2.155,0.066c-2.243,0-4.433-0.223-6.557-0.637v-18.82h37.541c-0.11,0.095-0.204,0.212-0.272,0.351
					c-0.661,1.339-1.415,2.646-2.245,3.886c-0.341,0.51-0.204,1.201,0.306,1.543c0.19,0.126,0.405,0.187,0.618,0.187
					c0.358,0,0.711-0.173,0.925-0.493c0.883-1.321,1.688-2.714,2.392-4.14c0.23-0.465,0.1-1.011-0.278-1.334h0.168
					c0.448,0,0.852-0.269,1.025-0.682c0.329-0.784,0.627-1.577,0.899-2.379c0.003-0.008,0.009-0.014,0.011-0.021
					c0.007-0.022,0.013-0.045,0.021-0.068c0.222-0.661,0.42-1.329,0.604-2.001c0.033-0.12,0.067-0.238,0.099-0.358
					c0.175-0.669,0.33-1.344,0.466-2.023c0.012-0.058,0.028-0.114,0.04-0.172c0.003-0.019,0.002-0.037,0.005-0.056
					c0.208-1.069,0.374-2.147,0.486-3.235c0.027-0.271-0.051-0.538-0.208-0.757c0.188-0.186,0.312-0.436,0.33-0.719
					C103.027,210.722,103.051,209.951,103.051,209.188z M58.935,221.729c-0.613,0-1.112,0.498-1.112,1.111v19.423
					c-0.009-0.002-0.018-0.005-0.026-0.007c-0.607-0.162-1.208-0.343-1.805-0.538c-0.148-0.049-0.295-0.1-0.442-0.15
					c-0.468-0.16-0.933-0.331-1.395-0.511c-0.17-0.066-0.342-0.133-0.511-0.201c-0.483-0.198-0.962-0.41-1.437-0.631
					c-0.116-0.054-0.235-0.104-0.352-0.159c-0.562-0.269-1.118-0.556-1.666-0.857c-0.047-0.026-0.093-0.055-0.141-0.081v-59.882
					c0.083-0.046,0.167-0.089,0.251-0.134c2.384-1.296,4.904-2.306,7.523-3v36.73c0,0.614,0.498,1.112,1.111,1.112h41.562
					c-0.089,0.646-0.2,1.288-0.327,1.926c-0.137,0.691-0.296,1.382-0.478,2.067c-0.054,0.206-0.122,0.408-0.181,0.613
					c-0.135,0.476-0.272,0.95-0.428,1.418c-0.196,0.589-0.403,1.173-0.631,1.75H58.935L58.935,221.729z"/>
				<path fill="#34373B" d="M34.403,194.579c0.158,0.077,0.326,0.114,0.491,0.114c0.41,0,0.804-0.228,0.998-0.621
					c0.659-1.336,1.415-2.644,2.245-3.886c0.341-0.51,0.204-1.201-0.306-1.542c-0.509-0.339-1.201-0.205-1.542,0.306
					c-0.885,1.323-1.689,2.716-2.392,4.14C33.626,193.64,33.853,194.307,34.403,194.579z"/>
				<path fill="#34373B" d="M31.718,203.434c0.073,0.015,0.145,0.021,0.216,0.021c0.521,0,0.986-0.368,1.089-0.897
					c0.288-1.465,0.676-2.923,1.155-4.338c0.197-0.582-0.115-1.213-0.697-1.41c-0.583-0.197-1.213,0.116-1.409,0.697
					c-0.51,1.507-0.923,3.062-1.229,4.622C30.723,202.732,31.116,203.316,31.718,203.434z"/>
				<path fill="#34373B" d="M40.036,187.005c0.309,0,0.617-0.128,0.836-0.379c0.987-1.125,2.056-2.192,3.177-3.175
					c0.46-0.404,0.508-1.107,0.103-1.568c-0.406-0.46-1.106-0.509-1.569-0.104c-1.193,1.047-2.332,2.184-3.382,3.381
					c-0.405,0.461-0.359,1.164,0.103,1.568C39.514,186.914,39.776,187.005,40.036,187.005z"/>
				<path fill="#34373B" d="M85.598,237.662c-1.241,0.83-2.55,1.586-3.889,2.245c-0.551,0.271-0.777,0.938-0.506,1.489
					c0.194,0.393,0.589,0.621,0.999,0.621c0.166,0,0.333-0.037,0.491-0.114c1.426-0.703,2.82-1.508,4.143-2.392
					c0.51-0.342,0.647-1.032,0.306-1.543C86.799,237.457,86.108,237.321,85.598,237.662z"/>
				<path fill="#34373B" d="M92.338,231.751c-0.988,1.125-2.056,2.192-3.177,3.175c-0.461,0.405-0.508,1.107-0.103,1.569
					c0.22,0.251,0.528,0.379,0.837,0.379c0.26,0,0.521-0.09,0.732-0.276c1.193-1.046,2.332-2.184,3.382-3.38
					c0.405-0.461,0.359-1.164-0.102-1.569C93.445,231.244,92.741,231.291,92.338,231.751z"/>
				<path fill="#34373B" d="M77.558,241.622c-1.417,0.479-2.878,0.865-4.342,1.152c-0.603,0.117-0.995,0.702-0.877,1.305
					c0.104,0.531,0.568,0.898,1.089,0.898c0.071,0,0.143-0.006,0.215-0.021c1.559-0.305,3.116-0.718,4.625-1.226
					c0.582-0.196,0.894-0.827,0.698-1.409C78.771,241.739,78.143,241.429,77.558,241.622z"/>
			</g>
		</g>
	</g>
	<g>
		<circle fill="#F58E90" cx="77.791" cy="193.637" r="10.529"/>
	</g>
	<g>
		<ellipse fill="#EE2A28" cx="77.791" cy="193.637" rx="10.529" ry="8.065"/>
	</g>
	<g>
		<path fill="#FFFFFF" d="M67.261,193.637c0,5.816,4.714,10.529,10.53,10.529c5.814,0,10.529-4.713,10.529-10.529H67.261z"/>
	</g>
	<g>
		<path fill="#D8E5EA" d="M77.791,201.703c5.814,0,10.529-3.61,10.529-8.065H67.261C67.261,198.092,71.975,201.703,77.791,201.703z"
			/>
	</g>
	<path fill="#34373B" d="M89.432,193.637c0-6.418-5.223-11.64-11.641-11.64c-6.419,0-11.641,5.222-11.641,11.64
		c0,6.044,4.63,11.023,10.529,11.585v7.621c0,0.614,0.498,1.112,1.112,1.112c0.614,0,1.112-0.498,1.112-1.112v-7.621
		C84.802,204.66,89.432,199.681,89.432,193.637z M77.791,184.221c4.816,0,8.793,3.636,9.345,8.305H68.444
		C68.998,187.856,72.975,184.221,77.791,184.221z M77.791,203.054c-4.816,0-8.793-3.635-9.346-8.305h18.692
		C86.583,199.42,82.606,203.054,77.791,203.054z"/>
	<g>
		<g>
			<circle fill="#A7BBC1" cx="77.79" cy="194.844" r="3.481"/>
		</g>
		<g>
			<circle fill="#FFFFFF" cx="77.79" cy="193.66" r="3.482"/>
		</g>
		<g>
			<path fill="#D8E5EA" d="M75.328,196.122c-1.359-1.358-1.359-3.564,0-4.924c1.361-1.359,3.564-1.359,4.924,0"/>
		</g>
		<g>
			<path fill="#34373B" d="M77.791,198.251c-1.176,0-2.353-0.448-3.249-1.343c-0.867-0.868-1.345-2.021-1.345-3.249
				c0-1.227,0.478-2.381,1.345-3.248c1.792-1.791,4.707-1.791,6.496,0c0.868,0.867,1.345,2.021,1.345,3.248
				c0,1.228-0.479,2.381-1.345,3.249C80.143,197.803,78.967,198.251,77.791,198.251z M77.791,191.292
				c-0.607,0-1.215,0.232-1.677,0.693c-0.448,0.447-0.695,1.042-0.695,1.675s0.247,1.229,0.695,1.676
				c0.923,0.92,2.426,0.924,3.351,0c0.448-0.447,0.694-1.042,0.694-1.676c0-0.633-0.247-1.229-0.694-1.676
				C79.003,191.522,78.397,191.292,77.791,191.292z"/>
		</g>
	</g>
</g>
</svg>
