<?xml version="1.0" encoding="utf-8"?>
<!-- Generator: Adobe Illustrator 16.0.4, SVG Export Plug-In . SVG Version: 6.00 Build 0)  -->
<!DOCTYPE svg PUBLIC "-//W3C//DTD SVG 1.1//EN" "http://www.w3.org/Graphics/SVG/1.1/DTD/svg11.dtd">
<svg version="1.1" id="Layer_1" xmlns="http://www.w3.org/2000/svg" xmlns:xlink="http://www.w3.org/1999/xlink" x="0px" y="0px"
	 width="400px" height="580px" viewBox="0 0 400 580" enable-background="new 0 0 400 580" xml:space="preserve">
<rect opacity="0.3" width="400" height="580"/>
<rect y="490.5" opacity="0.3" fill="#FFFFFF" width="400" height="74.075"/>
<rect y="8.5" opacity="0.3" fill="#FFFFFF" width="400" height="141"/>
<text transform="matrix(1 0 0 1 22.0591 49.7373)"><tspan x="0" y="0" font-family="'Helvetica-Bold'" font-size="35.9315">West Houston POGO</tspan><tspan x="34.923" y="43.118" font-family="'Helvetica-Bold'" font-size="35.9315">Mapping Project </tspan><tspan x="131.744" y="86.236" font-family="'Helvetica-LightOblique'" font-size="35.9315">Demo</tspan></text>
<g>
	<g>
		<g>
			<circle fill="none" stroke="#000000" stroke-width="6" cx="168.721" cy="311.302" r="117.698"/>
		</g>
		<g>
			<circle fill="#93D7F6" stroke="#000000" stroke-width="2" stroke-miterlimit="10" cx="168.721" cy="311.302" r="117.698"/>
		</g>
	</g>
	<g>
		<rect x="76.77" y="288.531" fill="#FFFFFF" stroke="#000000" stroke-miterlimit="10" width="10.334" height="20.933"/>
	</g>
	<g>
		<rect x="260.365" y="296.016" fill="#B2B9C9" stroke="#000000" stroke-miterlimit="10" width="12.72" height="17.126"/>
	</g>
	<g>
		<path fill="#9FC3DD" stroke="#000000" stroke-miterlimit="10" d="M264.35,329.693h20.629c0.941-5.993,1.439-12.133,1.439-18.39
			c0-1.85-0.055-3.687-0.139-5.517H264.35V329.693z"/>
	</g>
	<g>
		<path fill="#B39191" stroke="#000000" stroke-miterlimit="10" d="M51.069,309.97c-0.007,0.447-0.046,0.884-0.046,1.333
			c0,6.257,0.499,12.397,1.439,18.39h21.089V309.97H51.069z"/>
	</g>
	<g>
		<polyline fill="#B2B9C9" stroke="#000000" stroke-miterlimit="10" points="84.126,329.693 106.194,329.693 102.516,289.234 
			84.126,296.591 84.126,329.693 		"/>
	</g>
	<g>
		<rect x="192.973" y="292.913" fill="#7FAAB8" stroke="#000000" stroke-miterlimit="10" width="21.379" height="36.78"/>
	</g>
	<g>
		<rect x="102.516" y="274.522" fill="#EEE1C2" stroke="#000000" stroke-miterlimit="10" width="14.712" height="55.17"/>
	</g>
	<g>
		<rect x="183.433" y="281.879" fill="#EEE1C2" stroke="#000000" stroke-miterlimit="10" width="14.712" height="47.814"/>
	</g>
	<g>
		<rect x="150.331" y="272.684" fill="#9FC3DD" stroke="#000000" stroke-miterlimit="10" width="14.712" height="57.009"/>
	</g>
	<g>
		<rect x="219.754" y="296.591" fill="#B2B9C9" stroke="#000000" stroke-miterlimit="10" width="21.378" height="33.102"/>
	</g>
	<g>
		<rect x="242.972" y="302.107" fill="#B39191" stroke="#000000" stroke-miterlimit="10" width="21.378" height="27.585"/>
	</g>
	<g>
		<path fill="#43AC5F" stroke="#000000" stroke-miterlimit="10" d="M52.463,329.693C61.293,385.958,109.976,429,168.721,429
			c58.746,0,107.427-43.042,116.258-99.307H52.463z"/>
	</g>
	<g>
		<path fill="#71BF64" stroke="#000000" stroke-miterlimit="10" d="M268.431,373.829c8.285-13.185,14.034-28.121,16.548-44.136
			H52.463c2.514,16.015,8.264,30.952,16.548,44.136H268.431z"/>
	</g>
	<g>
		<path fill="#97CB5E" stroke="#000000" stroke-miterlimit="10" d="M58.203,351.761h221.037c2.59-7.066,4.543-14.44,5.74-22.068
			H52.463C53.66,337.321,55.612,344.695,58.203,351.761z"/>
	</g>
	<g>
		<path fill="#B4D781" stroke="#000000" stroke-miterlimit="10" d="M53.896,337.049h229.649c0.546-2.428,1.044-4.873,1.434-7.356
			H52.463C52.853,332.176,53.351,334.621,53.896,337.049z"/>
	</g>
	<g>
		<path fill="#674548" stroke="#000000" stroke-miterlimit="10" d="M222.99,415.739c-20.333-32.239-54.269-86.046-54.269-86.046
			l-54.269,86.046c16.241,8.458,34.69,13.261,54.269,13.261C188.3,429,206.749,424.197,222.99,415.739z"/>
	</g>
	<g>
		<path fill="#8C675C" stroke="#000000" stroke-miterlimit="10" d="M182.639,351.761c-8.172-12.958-13.918-22.068-13.918-22.068
			l-13.918,22.068H182.639z"/>
	</g>
	<g>
		<polyline fill="#FEF0DC" stroke="#000000" stroke-miterlimit="10" points="183.433,329.693 183.433,261.649 165.043,250.615 
			165.043,329.693 		"/>
	</g>
	<g>
		<polygon fill="#FFFFFF" stroke="#000000" stroke-miterlimit="10" points="131.94,237.742 131.94,329.693 150.331,329.693 
			150.331,247.396 150.331,224.869 		"/>
	</g>
	<g>
		<rect x="209.179" y="253.374" fill="#FFFFFF" stroke="#000000" stroke-miterlimit="10" width="14.712" height="76.319"/>
	</g>
	<g>
		<polyline fill="#A29B91" stroke="#000000" stroke-miterlimit="10" points="117.229,329.693 117.229,311.303 95.16,311.303 
			95.16,329.693 		"/>
	</g>
	<g>
		<polyline fill="#9FC3DD" stroke="#000000" stroke-miterlimit="10" points="138.377,329.693 138.377,285.556 117.229,285.556 
			117.229,329.693 		"/>
	</g>
	<g>
		<polyline fill="#89B7C6" stroke="#000000" stroke-miterlimit="10" points="198.145,329.693 198.145,314.98 176.077,318.659 
			176.077,329.693 		"/>
	</g>
	<g>
		<rect x="234.926" y="292.913" fill="#FEF0DC" stroke="#000000" stroke-miterlimit="10" width="14.712" height="36.78"/>
	</g>
	<g>
		<path fill="#FFFFFF" stroke="#000000" stroke-miterlimit="10" d="M168.721,329.693l48.655,88.778
			c1.899-0.864,3.771-1.772,5.614-2.732L168.721,329.693z"/>
	</g>
	<g>
		<path fill="#FFFFFF" stroke="#000000" stroke-miterlimit="10" d="M168.721,329.693l-54.269,86.046
			c1.843,0.959,3.715,1.869,5.614,2.732L168.721,329.693z"/>
	</g>
	<g>
		<path fill="#E9B668" stroke="#000000" stroke-miterlimit="10" d="M178.92,428.509l-10.199-98.816l3.414,99.203
			C174.413,428.83,176.675,428.703,178.92,428.509z"/>
	</g>
	<g>
		<path fill="#E9B668" stroke="#000000" stroke-miterlimit="10" d="M168.721,329.693l-10.199,98.816
			c2.245,0.193,4.507,0.321,6.786,0.387L168.721,329.693z"/>
	</g>
	<g>
		<rect x="69.414" y="303.947" fill="#9FC3DD" stroke="#000000" stroke-miterlimit="10" width="14.712" height="25.746"/>
	</g>
	<g>
		<rect x="202.513" y="319.693" fill="#A29B91" stroke="#000000" stroke-miterlimit="10" width="24.597" height="10"/>
	</g>
	<g>
		<rect x="150.331" y="294.062" fill="#B39191" stroke="#000000" stroke-miterlimit="10" width="8.191" height="35.631"/>
	</g>
	<g>
		<rect x="106.194" y="322.337" fill="#9F8382" stroke="#000000" stroke-miterlimit="10" width="20.995" height="7.356"/>
	</g>
	<g>
		<rect x="88.876" y="322.337" fill="#EEE1C2" stroke="#000000" stroke-miterlimit="10" width="9.842" height="7.356"/>
	</g>
	<g>
		<rect x="154.454" y="322.337" fill="#EEE1C2" stroke="#000000" stroke-miterlimit="10" width="8.137" height="7.356"/>
	</g>
	<g>
		<rect x="223.892" y="322.337" fill="#EEE1C2" stroke="#000000" stroke-miterlimit="10" width="13.103" height="7.356"/>
	</g>
	<g>
		<rect x="182.639" y="324.359" fill="#9F8382" stroke="#000000" stroke-miterlimit="10" width="10.334" height="5.334"/>
	</g>
	<g>
		<rect x="231.948" y="317.74" fill="#9F8382" stroke="#000000" stroke-miterlimit="10" width="10.334" height="11.953"/>
	</g>
	<g>
		<rect x="259.184" y="320.651" fill="#9F8382" stroke="#000000" stroke-miterlimit="10" width="21.564" height="9.042"/>
	</g>
	<g>
		<rect x="64.247" y="317.74" fill="#9F8382" stroke="#000000" stroke-miterlimit="10" width="10.334" height="11.953"/>
	</g>
	<g>
		<rect x="133.779" y="317.74" fill="#B2B9C9" stroke="#000000" stroke-miterlimit="10" width="7.808" height="11.953"/>
	</g>
	<g>
		<rect x="210.448" y="324.359" fill="#B2B9C9" stroke="#000000" stroke-miterlimit="10" width="7.807" height="5.334"/>
	</g>
	<g>
		<rect x="61.606" y="324.359" fill="#B2B9C9" stroke="#000000" stroke-miterlimit="10" width="7.808" height="5.334"/>
	</g>
	<g>
		<rect x="96.241" y="326.015" fill="#B2B9C9" stroke="#000000" stroke-miterlimit="10" width="15.003" height="3.678"/>
	</g>
</g>
<g>
	<path fill="#E78324" d="M88.718,333.115c1.085-0.77,5.836,2.082,14.253,8.552c4.208,3.257,8.302,6.583,12.284,9.977
		c4.389-1.992,9.773-3.8,16.153-5.43c6.652-1.674,10.067-1.99,10.249-0.95c0.226,1.494-3.643,9.887-11.606,25.179l4.344,10.114
		c2.805,6.875,3.937,10.676,3.394,11.401c-0.499,0.725-2.127,0.884-4.887,0.476l-25.791-6.719l-10.859,3.936
		c-7.33,2.443-11.244,3.122-11.741,2.037c-0.544-1.04,1.199-5.316,5.226-12.829l6.175-10.927
		c-5.203-14.524-7.963-24.682-8.279-30.473c-0.09-1.811,0.068-3.077,0.476-3.801L88.718,333.115"/>
	<path fill="#3C3B60" d="M136.295,400.171c14.524,14.75,33.935,21.718,58.233,20.904l0.339,14.457
		c-27.601,2.081-50.223-5.565-67.87-22.94c-6.109-6.065-11.267-12.963-15.475-20.7c-3.076-5.701-5.135-10.725-6.176-15.066
		c-1.222-5.07-0.973-8.757,0.748-11.064c0.543-0.724,1.198-1.244,1.968-1.562c0.361-0.182,0.678-0.293,0.95-0.338l3.326-0.138
		c2.534,0.679,4.525,2.989,5.973,6.925C122.653,382.592,128.648,392.434,136.295,400.171"/>
	<path fill="#C96828" d="M104.057,373.77c0.498,2.985,1.516,6.967,3.054,11.946c-7.511,3.347-13.325,5.316-17.442,5.903
		l-4.005-0.066c4.299-2.173,8.666-5.792,13.1-10.862L104.057,373.77"/>
	<path fill="#11161C" d="M93.401,335.762c-1.539-0.996-2.783-1.562-3.732-1.696l-1.018,0.067l-0.339,0.407
		c-0.181,0.498-0.249,1.245-0.203,2.24l0.542,4.139c0.498,3.077,1.9,8.28,4.208,15.611l3.868,11.741l0.135,0.611l-0.135,0.611
		l-4.343,7.532c-3.032,5.385-4.932,9.027-5.701,10.928c-0.951,1.765-1.29,2.806-1.019,3.124l4.819-0.814l8.688-2.851
		c3.801-1.451,6.515-2.602,8.144-3.461c0.272-0.136,0.566,0.246,0.883,1.152c0.363,0.859,0.385,1.359,0.068,1.493l-8.823,3.327
		c-3.393,1.13-6.244,1.944-8.553,2.444c-4.388,1.041-6.808,1.062-7.26,0.066c-0.543-0.861-0.182-2.647,1.085-5.362l4.751-9.772
		l4.615-8.552c-0.995-2.399-2.262-6.336-3.8-11.812c-1.765-6.333-2.987-11.695-3.666-16.083l-0.407-4.481
		c0-2.261,0.476-3.664,1.426-4.207l2.443-0.271c1.312,0.271,2.828,1.041,4.547,2.307c1.855,1.222,5.362,3.869,10.52,7.942
		l10.045,8.279l7.805-2.987c4.389-1.446,8.506-2.532,12.352-3.256c4.208-0.724,6.629-0.77,7.262-0.135
		c0.588,0.586,0.136,2.623-1.357,6.107c-1.403,3.619-4.728,10.476-9.977,20.563l3.8,8.417l3.734,9.027l0.61,2.171
		c0.272,1.584,0.159,2.648-0.339,3.19l-4.954,0.339l-5.022-0.745c-0.408-0.272-0.679-0.725-0.814-1.359
		c-0.091-0.677,0.045-0.995,0.406-0.95l5.497,0.95l2.851-0.136c0.136-0.314,0-1.106-0.407-2.375l-4.276-10.384l-3.462-7.737
		l-0.067-0.408l0.135-0.541l10.385-20.566c1.221-2.579,1.741-3.959,1.562-4.14c-0.408-0.363-2.127-0.159-5.159,0.612
		c-6.651,1.537-13.415,3.846-20.292,6.922c-0.543,0.226-1.018,0.136-1.425-0.272c-0.634-0.725-3.666-3.349-9.095-7.873
		C99.238,340.105,95.392,337.074,93.401,335.762"/>
	<path fill="#11161C" d="M115.255,363.928c1.855,1.405,3.258,3.551,4.208,6.447c6.199,18.597,17.081,31.969,32.646,40.112
		c11.809,6.155,25.949,9.142,42.419,8.96c0.316-0.047,0.475,0.451,0.475,1.491c-0.045,1.041-0.226,1.562-0.543,1.562
		c-16.696,0.181-31.197-3.053-43.504-9.704c-16.062-8.645-27.261-22.578-33.596-41.807c-0.814-2.445-1.923-4.231-3.325-5.365
		c-1.403-1.175-2.964-1.537-4.684-1.085c-3.891,1.085-4.954,4.98-3.189,11.676c3.981,14.974,12.397,27.893,25.248,38.752
		c17.013,14.343,38.437,20.905,64.272,19.682c0.317,0,0.498,0.384,0.543,1.154c0.045,0.771-0.09,1.176-0.407,1.222
		c-27.193,2.083-49.522-4.637-66.987-20.156c-12.669-11.177-20.972-24.525-24.909-40.042c-0.996-3.846-1.109-6.97-0.339-9.367
		c0.814-2.625,2.602-4.275,5.361-4.956C111.207,361.961,113.311,362.437,115.255,363.928"/>
	<path fill="#F5BE18" d="M358.162,237.012c11.854,2.578,19.456,13.03,22.806,31.356c2.441,13.708,2.42,26.151-0.07,37.327
		c-1.447,6.651-4.275,13.19-8.482,19.615c-3.938,5.973-7.557,9.75-10.86,11.334l11.946,9.436c-1.992,1.041-6.674,2.239-14.05,3.596
		l-10.452,1.695c0.904,1.856,2.285,7.445,4.14,16.767c-2.441-0.951-6.107-2.943-10.994-5.975l-6.584-4.342
		c-12.849,11.129-27.035,17.848-42.554,20.156c-9.773,1.449-22.555,1.087-38.347-1.085c-5.429,6.741-10.18,11.832-14.253,15.271
		l-2.103-17.442c-1.718,1.355-6.606,3.87-14.66,7.532c-0.045-1.901,0.498-5.382,1.629-10.452l1.697-7.057
		c-8.688,2.58-16.56,2.398-23.619-0.543c-7.331-3.077-14.818-9.524-22.464-19.343c-4.027-5.158-7.263-11.334-9.706-18.529
		c-2.398-7.057-3.666-14.004-3.8-20.835c-0.182-7.149,0.927-13.123,3.325-17.918c2.625-5.249,6.561-8.529,11.81-9.841
		c8.732-2.217,17.805,0.112,27.216,6.991c4.706,3.439,8.528,7.104,11.47,10.994c1.764-3.528,6.266-8.167,13.506-13.912l10.315-7.602
		c-7.238-4.841-11.989-10.972-14.252-18.393c-0.724-2.309-1.131-4.616-1.221-6.923v-2.782c2.669,2.94,5.996,6.062,9.978,9.366
		c-3.305-4.841-5.295-11.56-5.974-20.158c-0.317-4.299-0.317-8.099,0-11.402c4.661,6.697,9.729,12.557,15.203,17.578
		c11.266,10.272,22.917,15.973,34.954,17.104c13.483,1.312,22.69,2.511,27.621,3.598c4.706,1.041,8.597,2.691,11.675,4.954
		c2.037-7.737,5.792-14.682,11.266-20.835C341.466,238.256,349.428,235.156,358.162,237.012"/>
	<path fill="#F5BE18" d="M303.934,375.74c7.012-2.219,12.873-4.708,17.578-7.468c10.678,16.831,16.423,32.692,17.239,47.577
		c0.452,8.732-0.951,17.329-4.207,25.79c-1.584,4.12-2.965,8.801-4.14,14.051l-1.358,6.653l2.647,1.49
		c1.809,1.266,2.827,2.714,3.054,4.345c0.362,2.441-0.86,4.615-3.666,6.518c-3.484,2.393-8.642,3.57-15.475,3.523
		c-6.289-0.045-11.243-1.4-14.863-4.07l-3.461-4.006c-1.72,1.314-3.596,2.131-5.633,2.445h-2.511
		c-7.738-0.498-13.596-4.115-17.578-10.859c-1.268-2.127-2.263-4.434-2.987-6.923l-0.746-3.121
		c-1.402,0.136-3.303-0.226-5.702-1.085c-4.751-1.676-9.569-4.91-14.457-9.708c-6.787-7.012-9.885-15.699-9.297-26.06
		c0.362-6.336,1.9-12.398,4.615-18.189c6.877-2.899,12.668-6.745,17.374-11.54c2.354-2.397,4.005-4.523,4.956-6.378
		C276.989,381.212,289.861,380.216,303.934,375.74"/>
	<path fill="#3C3B60" d="M190.659,380.557l1.085,0.134c0.996,0.319,2.037,1.156,3.122,2.511l15.067,19.344l3.936-3.731
		c2.806-2.625,4.684-4.186,5.634-4.685l0.407,5.365c0.182,3.846,0.045,6.468-0.407,7.872l23.482-10.723l-1.629,3.596
		c-1.176,3.078-2.013,6.267-2.511,9.568c-1.538,10.497,0.68,20.09,6.651,28.779c4.118,5.112,8.711,8.798,13.777,11.062
		c2.535,1.131,4.662,1.74,6.381,1.832l-0.34,8.891l1.968,2.239c1.222,1.811,1.653,3.462,1.29,4.956
		c-0.406,1.99-2.262,3.416-5.565,4.277c-3.755,0.994-8.959,1.131-15.61,0.404c-6.334-0.68-10.292-2.375-11.877-5.09
		c-0.814-1.4-1.266-4.911-1.357-10.52l-4.208,5.565c-3.303,3.937-6.335,6.56-9.094,7.874l2.036,3.732
		c0.904,2.805,0.294,5.09-1.832,6.854c-2.896,2.354-7.014,3.621-12.353,3.803c-5.927,0.18-10.339-1.291-13.235-4.412
		c-3.076-3.305-5.203-7.852-6.38-13.643c-1.176-5.701-0.881-9.729,0.883-12.082l4.005-4.206c0.995-1.04,1.809-2.671,2.443-4.886
		l-2.715,0.676l1.561-7.125l-13.234,3.664c-0.137-0.18,0.157-0.88,0.882-2.104c1.358-2.486,4.072-6.402,8.145-11.739l-7.805-5.974
		c-5.701-4.569-9.818-8.461-12.353-11.673l10.181-0.066l15.338,0.676l-3.394-15.269
		C190.863,386.078,190.071,380.827,190.659,380.557"/>
	<path fill="#3C3B60" d="M307.734,374.314c5.927-1.994,10.293-4.096,13.098-6.314c1.585,1.178,4.05,5.271,7.398,12.285l4.479,10.248
		l-2.375,6.246c-0.541-0.95-2.827-3.756-6.854-8.417l-5.836-6.652c-4.027,2.036-9.389,3.237-16.085,3.598l-8.891-0.067
		l-10.112,16.695c-2.216-4.616-5.972-9.344-11.267-14.184l-7.262-5.838l2.036-3.395h0.272
		C282.079,379.696,295.88,378.295,307.734,374.314"/>
	<path fill="#F7BE16" d="M274.885,454.126c-0.768-1.446-1.267-2.94-1.492-4.478l-0.069-1.969l1.9,2.309
		c1.721,1.762,3.576,3.302,5.566,4.613c6.425,4.117,13.235,4.954,20.428,2.514l0.545,2.305c-0.59,0.591-1.562,1.176-2.919,1.766
		c-2.761,1.267-6.086,1.991-9.978,2.171C281.99,461.82,277.328,458.741,274.885,454.126"/>
	<path fill="#E78324" d="M320.969,465.054c-6.743,1.313-13.145-0.023-19.206-4.003l-0.748-3.125l6.924-4.951l1.561,0.951
		c1.401,0.676,2.918,1.175,4.547,1.49c5.249,1.041,10.859,0.023,16.833-3.053l-1.698,9.566
		C327.053,463.382,324.317,464.421,320.969,465.054"/>
	<path fill="#E78324" d="M348.185,279.498c2.94-8.823,4.841-14.049,5.701-15.678c0.905-1.628,1.811-2.828,2.714-3.598
		c0.454-0.407,0.815-0.634,1.088-0.679c1.402,0.182,2.805,7.761,4.209,22.736l1.629,22.397c7.147,5.656,10.337,8.732,9.567,9.23
		c-1.176,0.995-6.016,1.764-14.523,2.308l-4.751,8.008c-3.348,5.293-5.521,7.851-6.516,7.67c-0.996-0.181-2.104-3.281-3.326-9.298
		l-1.561-8.891c-2.398-1.04-5.113-2.466-8.145-4.275c-3.077-1.811-4.57-2.896-4.478-3.258c0.135-0.316,2.148-1.244,6.039-2.782
		l5.837-2.172C342.936,296.059,345.107,288.818,348.185,279.498"/>
	<path fill="#E98424" d="M207.626,347.096c-9.547,1.9-15.158,2.329-16.832,1.291c-1.041-0.634-0.361-2.761,2.036-6.38l3.869-5.159
		c-2.714-4.751-5.294-9.795-7.737-15.135c-4.886-10.588-6.651-17.261-5.294-20.021l0.951,0.067c0.86,0.271,1.946,0.996,3.258,2.172
		l10.248,9.773c5.792,5.339,9.773,8.574,11.945,9.706l1.222,10.384c1.583,8.054,4.162,15,7.737,20.836
		C215.499,353.045,211.699,350.535,207.626,347.096"/>
	<path fill="#EC8599" d="M285.201,350.491c0.589,6.605-0.678,10.881-3.8,12.827c-2.397,1.495-4.886,1.924-7.465,1.29
		c-1.901-0.498-4.094-1.72-6.584-3.665c-0.587-3.622-0.361-7.149,0.68-10.588c2.126-6.923,7.239-10,15.339-9.231L285.201,350.491"/>
	<path fill="#92321E" d="M249.638,338.069c3.483-0.633,7.896-2.466,13.233-5.497l6.924-4.275c2.76,2.171,5.158,3.733,7.194,4.683
		l0.135-5.159l2.58,4.344c1.899,3.394,3.235,6.425,4.005,9.094l-5.09-0.542c-2.263,0.271-4.391,1.107-6.381,2.511
		c-2.985,2.217-4.661,5.859-5.021,10.928c-0.181,2.485-0.069,4.772,0.34,6.855c-0.543-0.139-6.358-6.2-17.443-18.191
		L249.638,338.069"/>
	<path fill="#EA8399" d="M245.227,319.271l3.666-0.205c1.085,0.227,1.718,0.68,1.899,1.358c0.226,0.679-0.091,1.402-0.95,2.171
		c-0.814,0.77-1.879,1.334-3.19,1.696l-3.666,0.272c-1.04-0.226-1.675-0.701-1.9-1.425c-0.181-0.678,0.136-1.403,0.951-2.172
		C242.852,320.197,243.915,319.632,245.227,319.271"/>
	<path fill="#FFFFFF" d="M249.638,338.069c0.406,5.294,0.452,7.941,0.135,7.941c-0.315-0.045-2.442-2.171-6.378-6.379
		L249.638,338.069"/>
	<path fill="#FFFFFF" d="M269.387,328.432l4.82-3.868l1.425,1.29c1.446,4.842,1.901,7.217,1.356,7.126L269.387,328.432"/>
	<path fill="#FFFFFF" d="M223.305,306.036c5.837-0.815,9.909,4.886,12.216,17.103c1.268,6.741,1.291,12.013,0.068,15.813
		c-0.86,2.761-2.126,4.368-3.8,4.818c-2.58,0.679-5.16-0.136-7.738-2.442c-3.122-2.76-5.226-7.06-6.312-12.896
		c-1.222-6.38-1.131-11.627,0.272-15.745C219.142,309.338,220.906,307.121,223.305,306.036"/>
	<path fill="#E78324" d="M227.172,310.107c2.534-0.769,4.548,0.95,6.042,5.158c1.041,2.896,1.877,7.239,2.511,13.031
		c0.406,3.665-0.069,6.312-1.425,7.941l-2.173,1.425c-1.492,0.181-3.099-0.567-4.818-2.241c-2.082-2.036-3.619-4.931-4.616-8.687
		c-0.995-3.938-1.018-7.579-0.067-10.927C223.576,312.596,225.092,310.695,227.172,310.107"/>
	<path fill="#FFFFFF" d="M308.549,293.954c2.488,6.425,3.326,12.285,2.511,17.579c-0.679,4.479-2.375,7.963-5.091,10.452
		c-1.72,1.131-3.821,1.515-6.311,1.153c-4.977-0.814-9.435-5.045-13.371-12.692c-2.578-5.655-3.801-11.176-3.666-16.56
		c0.137-6.199,2.173-10.521,6.109-12.964l1.765-0.678c1.402-0.317,2.851-0.294,4.343,0.068
		C299.59,281.534,304.16,286.082,308.549,293.954"/>
	<path fill="#E78324" d="M298.301,290.899c1.537,1.72,2.76,3.644,3.666,5.77c1.945,3.303,2.668,7.285,2.171,11.946
		c-0.498,4.524-1.854,7.353-4.072,8.483c-3.666,1.9-6.969,1.494-9.909-1.222c-2.76-2.534-5.001-6.832-6.719-12.895
		c-1.086-3.891-1.177-7.194-0.272-9.909c0.86-2.488,2.421-4.253,4.684-5.294C291.696,286.421,295.178,287.462,298.301,290.899"/>
	<path fill="#DAA228" d="M312.281,445.711c-1.855,6.063-5.632,9.934-11.333,11.605c-7.15,2.129-13.892,1.199-20.226-2.783
		c-6.786-4.253-11.537-11.219-14.251-20.903l3.121,3.191c2.579,2.487,5.226,4.659,7.942,6.516
		c8.551,6.062,15.902,8.006,22.056,5.836c4.796-1.676,8.53-4.186,11.2-7.536c1.356-1.671,2.216-3.166,2.579-4.478v2.577
		C313.231,441.821,312.87,443.812,312.281,445.711"/>
	<path fill="#DAA228" d="M268.302,451.209c0.271-1.449,0.815-2.76,1.63-3.936l1.153-1.359l0.95,0.951l0.814,2.579
		c0.77,2.036,1.72,3.915,2.85,5.632c3.62,5.475,8.417,8.28,14.389,8.417l3.665-0.34c2.851-0.543,5.271-1.472,7.263-2.782
		l-1.222,5.77c-1.583,3.846-4.366,5.859-8.347,6.039l-5.226-0.203c-4.208-0.768-8.167-2.76-11.877-5.973
		C269.412,460.711,267.396,455.78,268.302,451.209"/>
	<path fill="#DAA228" d="M323.888,425.894c-0.725,3.347-2.58,6.356-5.565,9.027l-4.276,2.986l-1.697-6.516
		c2.171,0,4.751-0.906,7.737-2.716L323.888,425.894"/>
	<path fill="#DAA228" d="M308.005,477.271c-5.157-0.861-8.552-3.348-10.18-7.467l1.562-2.309c1.131-1.989,1.877-4.251,2.239-6.785
		l0.883,1.086c0.859,0.813,2.058,1.425,3.596,1.831l-0.271,1.426c-0.136,1.132-0.045,2.284,0.271,3.464
		c1.042,3.707,4.073,6.674,9.096,8.889C312.983,477.77,310.585,477.723,308.005,477.271"/>
	<path fill="#E78324" d="M272.917,448.563c4.796,6.017,11.084,9.253,18.868,9.703c3.891,0.229,7.307-0.156,10.248-1.151
		l-0.136,2.645l-3.597,1.902c-2.986,1.22-5.974,1.81-8.959,1.765c-5.836-0.59-10.338-3.236-13.505-7.94
		c-0.951-1.495-1.719-3.102-2.308-4.821L272.917,448.563"/>
	<path fill="#C96828" d="M306.105,463.628c-2.986-1.536-4.479-2.511-4.479-2.917l-0.068-3.121l6.922-3.529l-1.356,2.645
		C306.219,458.97,305.879,461.275,306.105,463.628"/>
	<path fill="#CF7487" d="M268.031,351.236c-0.589,0.227-0.589-0.34,0-1.697c0.588-1.402,1.516-2.828,2.782-4.275
		c3.755-4.163,7.874-5.521,12.352-4.071l0.136,0.406c1.269,3.439,1.879,7.059,1.833,10.86l-0.475,4.752
		c-2.941-4.345-6.584-6.653-10.927-6.925l-4.073,0.409L268.031,351.236"/>
	<path fill="#DAA228" d="M339.565,342.074c3.531,1.629,8.257,1.245,14.185-1.155c2.941-1.176,5.543-2.533,7.805-4.072l12.013,9.366
		c-1.719,0.815-6.311,1.832-13.778,3.055l-10.654,1.561c0.722,2.308,2.103,8.188,4.138,17.645
		c-1.176-0.451-7.282-4.093-18.323-10.928c-14.796,14.392-33.187,21.697-55.178,21.924c-6.877,0.045-13.71-0.612-20.497-1.97
		l-8.076-2.036l9.366,0.475c7.782,0.045,15.452-0.61,23.008-1.966C307.825,369.629,326.488,358.997,339.565,342.074"/>
	<path fill="#DAA228" d="M188.419,352.322c3.031,1.854,6.063,3.439,9.095,4.751c9.819,4.165,18.099,4.843,24.84,2.038l4.48,4.478
		c-4.299,2.218-9.661,2.896-16.086,2.035c-9.729-1.266-18.369-6.491-25.926-15.678L188.419,352.322"/>
	<path fill="#DAA228" d="M250.113,374.99l4.344,2.241l-14.051,14.932L250.113,374.99"/>
	<path fill="#11161C" d="M313.503,264.431c-3.755-1.132-7.874-1.923-12.353-2.376l-20.226-2.579
		c-11.175-1.855-21.424-6.787-30.744-14.795c-6.199-5.34-11.447-11.448-15.746-18.325c-0.227,3.756-0.046,7.85,0.542,12.284
		c0.995,6.833,2.874,12.375,5.634,16.628c-1.63-0.09-2.557-0.316-2.783-0.678c-2.625-3.846-4.299-9.117-5.022-15.814
		c-0.588-5.158-0.588-10.089,0-14.795c0.227-2.127,0.906-2.285,2.037-0.476c4.659,7.421,10.724,14.094,18.188,20.021
		c9.094,7.24,18.529,11.719,28.303,13.439l19.75,2.511c10.089,0.724,17.556,2.691,22.396,5.905c0.272,0.226,0.227,0.836-0.135,1.833
		c-0.362,0.996-0.702,1.402-1.019,1.221C320.064,266.897,317.123,265.562,313.503,264.431"/>
	<path fill="#11161C" d="M248.619,274.951l1.562,0.678c0.542,0.316,0.768,0.61,0.677,0.883c-0.18,0.587-1.243,0.452-3.19-0.408
		c-8.687-3.71-14.546-9.864-17.577-18.46c-0.95-2.669-1.562-5.452-1.833-8.348l-0.136-3.597c0-1.357,0.181-2.058,0.543-2.104
		c0.272-0.045,0.521,0.069,0.747,0.34l1.018,1.357c1.267,1.675,3.348,3.778,6.245,6.312c4.434,3.439,7.714,6.764,9.842,9.977
		l0.745,1.222c0.271,0.633,0.295,1.04,0.068,1.221c-0.228,0.136-0.566-0.022-1.018-0.475l-1.221-1.356
		c-2.309-2.489-5.61-5.408-9.91-8.756c-1.81-1.447-3.484-3.167-5.022-5.158c1.131,5.611,2.625,10.113,4.479,13.506
		C237.76,267.486,242.421,271.874,248.619,274.951"/>
	<path fill="#11161C" d="M244.819,273.866c0.272-0.137,0.565,0.045,0.883,0.542c0.315,0.452,0.339,0.769,0.066,0.95
		c-9.048,5.385-16.56,11.99-22.532,19.818c-10.678,13.937-13.664,28.914-8.958,44.93c2.307,7.873,6.13,14.75,11.469,20.632
		c2.671,2.986,5.137,5.181,7.398,6.585c1.447,0.995,2.059,1.694,1.833,2.103c-0.227,0.498-1.085,0.317-2.58-0.542
		c-2.76-1.449-5.655-3.688-8.687-6.72c-6.019-6.062-10.204-13.257-12.556-21.583c-4.751-16.787-1.448-32.396,9.909-46.83
		C228.259,284.566,236.176,277.937,244.819,273.866"/>
	<path fill="#11161C" d="M335.765,357.276c0.498,0.589,0.632,0.995,0.407,1.222c-13.302,12.761-29.546,19.954-48.731,21.583
		c-12.442,1.085-24.455-0.091-36.038-3.531c-1.765-0.721-2.58-1.266-2.444-1.627l2.104-0.134l2.442,0.474
		c12.625,2.216,23.348,2.961,32.17,2.238c19.004-1.537,35.338-8.458,49.004-20.766C334.905,356.508,335.268,356.69,335.765,357.276"
		/>
	<path fill="#11161C" d="M380.558,276.443c-1.945-13.89-5.678-24.026-11.197-30.405c-4.705-5.429-10.496-7.941-17.374-7.533
		c-9.366,0.588-16.922,6.199-22.668,16.832c-5.34,9.953-8.304,22.509-8.891,37.667c-0.181,1.629-0.499,2.443-0.95,2.443
		c-0.544,0-0.815-0.928-0.815-2.782c-0.498-14.886,2.308-27.873,8.417-38.957c6.379-11.673,14.705-17.782,24.975-18.325
		c7.828-0.454,14.435,2.375,19.819,8.483c6.244,7.014,10.248,17.851,12.012,32.51c1.314,10.859,0.408,21.627-2.715,32.306
		c-3.166,10.678-7.939,19.049-14.318,25.112c-5.249,5.023-10.882,8.145-16.9,9.365c-4.074,0.815-7.354,0.77-9.842-0.135
		c-1.357-0.452-1.945-0.95-1.763-1.493c0.134-0.272,0.429-0.385,0.88-0.339l1.494,0.271l9.027-0.407
		c5.292-1.268,10.383-4.208,15.27-8.823c5.611-5.249,9.932-13.144,12.963-23.687C381.147,297.641,382.007,286.941,380.558,276.443"
		/>
	<path fill="#11161C" d="M221.947,295.516c0.226,0.226,0.022,0.588-0.611,1.085c-0.588,0.453-0.994,0.565-1.22,0.34
		c-6.38-8.145-13.394-13.687-21.04-16.628c-6.788-2.579-12.806-2.738-18.054-0.476c-5.882,2.534-9.638,7.873-11.266,16.018
		c-1.493,7.511-0.928,15.586,1.696,24.229c2.986,9.955,7.082,18.574,12.285,25.859c5.429,7.647,11.447,12.918,18.053,15.814
		c4.162,1.855,8.257,2.896,12.283,3.121c4.39,0.271,8.439-0.429,12.149-2.104c0.317-0.136,0.634,0.159,0.95,0.884
		c0.317,0.724,0.317,1.154,0,1.29c-3.709,1.72-7.805,2.532-12.284,2.442c-4.661-0.09-9.344-1.152-14.049-3.189
		c-7.195-3.032-13.666-8.439-19.411-16.221c-5.565-7.465-9.977-16.424-13.235-26.876c-2.941-9.321-3.552-18.076-1.832-26.266
		c1.9-8.958,6.289-14.886,13.167-17.782c6.153-2.534,12.782-2.443,19.885,0.271C207.378,280.403,214.889,286.466,221.947,295.516"/>
	<path fill="#11161C" d="M353.139,268.299c-1.492,3.62-3.551,9.706-6.176,18.257c-2.396,7.783-3.777,12.669-4.139,14.66
		l-0.747,1.019c-6.153,2.171-9.886,3.574-11.197,4.208c2.487,1.99,6.537,4.049,12.148,6.176c0.407,0.18,0.61,0.476,0.61,0.882
		c1.584,10.362,2.896,16.221,3.938,17.578c0.768-0.453,2.193-2.239,4.275-5.362l5.7-9.366c0.228-0.316,0.499-0.498,0.815-0.542
		l7.261-0.882l6.449-1.018c-1.223-1.448-3.145-3.304-5.768-5.565l-3.597-3.055c-0.273-0.182-0.41-0.452-0.41-0.814
		c0-3.032-0.994-15.044-2.986-36.039c-0.496-5.249-1.107-7.918-1.83-8.009c-0.317-0.045-0.906,0.725-1.766,2.308L353.139,268.299
		 M359.725,260.969c0.451,1.268,0.994,3.778,1.625,7.534c0.547,3.666,1.18,9.592,1.902,17.782c0.77,8.687,1.177,14.591,1.224,17.714
		c4.387,3.982,7.463,7.125,9.227,9.434l0.273,0.883l-0.746,0.746c-1.041,0.498-5.725,1.448-14.051,2.851
		c-5.88,10.09-9.795,15.044-11.741,14.863c-2.036-0.361-3.981-6.47-5.836-18.324c-6.517-2.941-10.723-5.385-12.625-7.33l-0.34-0.747
		l0.136-0.542c0.679-0.86,4.661-2.647,11.946-5.363c0.361-2.533,1.854-7.827,4.479-15.881c2.488-7.465,4.523-13.122,6.108-16.967
		c2.533-6.018,4.682-8.958,6.446-8.823C358.569,258.889,359.225,259.612,359.725,260.969"/>
	<path fill="#11161C" d="M211.834,323.817c0.271,0.135,0.227,0.52-0.136,1.154l-0.951,0.746c-1.719-0.996-5.406-4.048-11.062-9.162
		l-10.655-9.909l-3.326-3.257c-0.634-0.543-1.108-0.747-1.425-0.611c-0.317,0.181-0.091,1.878,0.678,5.09
		c2.715,9.864,6.967,19.298,12.759,28.301l0.205,0.611l-0.205,0.611c-3.846,5.611-5.972,9.163-6.379,10.655
		c1.448,0.318,6.674-0.316,15.678-1.9l0.814,0.273l5.43,4.139c3.8,2.806,6.38,4.503,7.736,5.09c0.271,0.091,0.271,0.384,0,0.883
		c-0.271,0.496-0.543,0.701-0.813,0.61c-1.358-0.588-3.688-2.105-6.99-4.546l-5.838-4.413l-14.795,1.562
		c-1.674-0.137-2.625-0.544-2.851-1.224c-0.362-1.627,1.583-5.564,5.836-11.808c-6.425-10.045-10.632-19.637-12.624-28.777
		c-0.407-1.673-0.588-3.144-0.543-4.411c0-1.403,0.294-2.262,0.882-2.58c0.679-0.316,1.561-0.18,2.646,0.408
		c1.086,0.589,2.625,1.81,4.615,3.666l10.995,10.179C206.857,320.039,210.296,322.912,211.834,323.817"/>
	<path fill="#11161C" d="M242.104,340.378c-1.673,0-2.51-0.159-2.51-0.475c-0.047-0.362,0.812-0.703,2.578-1.019l9.637-2.646
		c7.692-2.896,15.112-7.127,22.261-12.691c0.588-0.408,1.087-0.34,1.494,0.203c4.255,5.203,7.286,11.062,9.095,17.579
		c1.628,5.926,1.991,11.175,1.085,15.745c-0.544,2.851-1.515,5-2.919,6.449c-1.266,1.311-2.986,2.126-5.157,2.441
		c-1.901,0.274-3.936-0.111-6.108-1.151c-2.85-1.314-5.724-3.62-8.619-6.925l-8.552-9.434l-4.616-4.819l0.136-1.017
		c0.136-0.634,0.294-0.859,0.475-0.679l5.361,5.429l8.621,9.163c4.66,5.476,8.913,8.007,12.759,7.602
		c3.62-0.499,5.837-2.829,6.651-6.991c0.814-3.981,0.656-8.393-0.475-13.235c-1.492-6.289-4.433-12.261-8.822-17.917
		c-7.376,5.881-14.908,10.021-22.601,12.419L242.104,340.378"/>
	<path fill="#11161C" d="M270.882,343.431c2.578-2.353,5.406-3.643,8.482-3.869l4.141,0.475c0.271,0.091,0.385,0.431,0.34,1.019
		c0,0.587-0.16,0.837-0.475,0.747l-3.937-0.205c-2.896,0.226-5.316,1.312-7.263,3.258c-2.669,2.353-4.139,5.723-4.412,10.114
		c-0.136,2.216,0,4.208,0.409,5.973c0.089,0.315-0.091,0.474-0.545,0.474c-0.406,0-0.655-0.135-0.746-0.406
		c-0.588-1.994-0.86-4.164-0.814-6.516C266.197,349.834,267.804,346.146,270.882,343.431"/>
	<path fill="#11161C" d="M245.43,343.024l-2.714-2.987c-0.182-0.18-0.047-0.452,0.406-0.814c0.407-0.361,0.679-0.452,0.814-0.271
		l2.646,3.123l2.715,2.919c0-2.535-0.249-4.751-0.745-6.652c-0.045-0.045,0.225-0.204,0.814-0.475l1.017-0.068
		c0.182,0.543,0.272,1.856,0.272,3.936l-0.068,4.005l-0.34,1.018l-0.815-0.138C248.483,346.035,247.148,344.834,245.43,343.024"/>
	<path fill="#11161C" d="M274.818,325.445l0.746-0.407l0.882-0.067c0.407,1.356,0.837,3.914,1.29,7.669l-0.202,1.018l-1.02-0.135
		l-5.294-3.054l-2.239-1.494c-0.182-0.134,0-0.43,0.541-0.882c0.589-0.451,0.975-0.61,1.155-0.475l1.696,1.561l4.073,2.918
		C276.22,330.288,275.678,328.069,274.818,325.445"/>
	<path fill="#11161C" d="M241.291,320.898c0.769-0.95,1.946-1.674,3.528-2.172l4.004-0.34c1.221,0.272,2.015,0.837,2.375,1.697
		c0.317,0.724,0.069,1.516-0.747,2.376c-0.814,0.858-1.99,1.537-3.529,2.035l-3.937,0.407c-1.267-0.226-2.035-0.724-2.307-1.493
		C240.406,322.595,240.612,321.758,241.291,320.898 M248.212,319.881l-2.919,0.407c-0.904,0.316-1.673,0.724-2.307,1.221
		c-0.542,0.453-0.769,0.859-0.679,1.222c0.136,0.407,0.544,0.656,1.222,0.747l2.851-0.339c2.443-0.724,3.484-1.606,3.123-2.646
		C249.412,320.129,248.983,319.926,248.212,319.881"/>
	<path fill="#11161C" d="M303.595,321.509c3.031-0.95,4.977-3.733,5.836-8.348c0.904-4.569,0.499-9.728-1.221-15.474
		c-1.765-5.928-4.525-10.407-8.281-13.439c-3.482-2.759-6.787-3.62-9.908-2.579c-3.03,0.995-5,3.778-5.905,8.348
		c-0.859,4.661-0.385,9.887,1.426,15.678c1.674,5.429,4.32,9.706,7.941,12.828C297.012,321.555,300.382,322.55,303.595,321.509
		 M310.45,296.873c1.854,5.882,2.239,11.516,1.152,16.899c-1.13,5.521-3.505,8.937-7.125,10.249
		c-3.847,1.221-7.782,0.18-11.81-3.123c-4.208-3.394-7.285-8.257-9.23-14.592c-2.037-6.516-2.488-12.262-1.358-17.239
		c1.085-4.977,3.507-8.077,7.262-9.298c3.936-1.267,7.851-0.429,11.742,2.511C305.246,285.403,308.369,290.267,310.45,296.873"/>
	<path fill="#11161C" d="M304.138,299.044c1.402,4.072,1.651,8.054,0.746,11.945s-2.646,6.403-5.226,7.533
		c-2.126,0.905-4.412,0.86-6.855-0.136c-2.487-0.994-4.502-2.692-6.04-5.089c-0.136-0.181,0.045-0.431,0.542-0.748
		c0.453-0.315,0.747-0.383,0.883-0.203c1.312,2.082,2.918,3.529,4.819,4.344l5.431,0.135c2.035-0.905,3.437-3.032,4.206-6.38
		c0.86-3.574,0.635-7.262-0.677-11.062c-1.268-3.846-3.19-6.855-5.769-9.027c-2.581-2.217-5-2.941-7.262-2.171
		c-2.354,0.769-3.937,2.511-4.751,5.226c-0.499,1.539-0.702,3.167-0.611,4.887c0,0.227-0.272,0.362-0.814,0.407
		c-0.588,0-0.883-0.113-0.883-0.339c-0.136-2.579,0.295-4.91,1.289-6.991c1.131-2.399,2.875-3.981,5.226-4.751
		c2.806-0.904,5.747-0.158,8.825,2.241C300.338,291.308,302.644,294.701,304.138,299.044"/>
	<path fill="#11161C" d="M294.703,305.561c0.092-1.222-0.09-2.625-0.542-4.208c-0.454-1.628-1.019-2.874-1.697-3.733
		c-0.634-0.86-1.223-1.199-1.766-1.018c-0.587,0.181-0.927,0.86-1.018,2.037c-0.09,1.175,0.114,2.555,0.611,4.139
		c0.499,1.539,1.085,2.76,1.764,3.666c0.68,0.814,1.267,1.153,1.766,1.018C294.319,307.324,294.612,306.691,294.703,305.561
		 M290.224,294.972c1.042-0.316,2.104,0.046,3.19,1.086c1.177,1.131,2.083,2.828,2.714,5.089c0.499,1.901,0.634,3.666,0.409,5.295
		c-0.272,1.673-0.86,2.669-1.765,2.986c-1.086,0.362-2.15,0.045-3.191-0.951c-1.13-1.085-2.081-2.828-2.85-5.226
		c-0.724-2.171-0.905-4.05-0.543-5.633C288.551,296.171,289.229,295.29,290.224,294.972"/>
	<path fill="#11161C" d="M230.567,323.07c-0.634-3.167-1.335-4.637-2.104-4.412c-0.724,0.137-0.815,1.81-0.272,5.022
		c0.588,3.259,1.312,4.774,2.172,4.548c0.406-0.045,0.588-0.769,0.542-2.171L230.567,323.07 M228.259,316.895
		c0.769-0.181,1.516,0.317,2.239,1.492c0.724,1.177,1.245,2.67,1.562,4.48c0.316,1.81,0.361,3.393,0.136,4.75
		c-0.226,1.357-0.678,2.127-1.357,2.308c-0.724,0.135-1.47-0.317-2.239-1.358c-0.906-1.176-1.516-2.737-1.833-4.683
		C226.087,319.677,226.584,317.347,228.259,316.895"/>
	<path fill="#11161C" d="M230.023,310.854c-1.945-2.896-3.981-4.14-6.108-3.733c-2.308,0.497-3.959,2.624-4.954,6.38
		c-1.041,3.8-1.154,8.167-0.34,13.099c0.815,4.887,2.421,8.891,4.82,12.013c2.443,3.167,4.931,4.501,7.465,4.005
		c1.946-0.363,3.212-2.467,3.801-6.312c0.587-3.801,0.385-8.529-0.611-14.185C233.281,317.46,231.923,313.704,230.023,310.854
		 M223.712,305.22c2.714-0.497,5.157,0.724,7.33,3.666c2.172,2.896,3.869,7.194,5.089,12.896c1.267,5.973,1.426,11.243,0.475,15.813
		c-0.995,4.57-2.828,7.104-5.496,7.601c-2.761,0.544-5.566-0.746-8.417-3.867c-3.167-3.484-5.249-8.235-6.243-14.253
		c-0.951-5.52-0.769-10.361,0.543-14.525C218.35,308.252,220.59,305.809,223.712,305.22"/>
	<path fill="#11161C" d="M226.766,309.361c1.402-0.317,2.737-0.045,4.003,0.814c1.042,0.679,1.901,1.628,2.58,2.85l-0.611,0.747
		l-0.883,0.069c-0.452-0.86-1.04-1.562-1.764-2.104c-0.95-0.724-1.946-0.973-2.987-0.747c-1.358,0.316-2.443,1.719-3.257,4.207
		c-0.951,2.761-1.109,5.928-0.476,9.502c0.634,3.529,1.878,6.493,3.733,8.892c1.719,2.307,3.348,3.325,4.887,3.053
		c1.674-0.272,2.714-1.628,3.122-4.072l0.881-0.135c0.59,0.089,0.859,0.226,0.815,0.406c-0.318,1.811-0.996,3.213-2.036,4.208
		c-0.815,0.77-1.742,1.245-2.783,1.425c-2.037,0.317-4.095-0.859-6.176-3.529c-2.082-2.67-3.484-5.95-4.208-9.841
		c-0.679-3.982-0.452-7.557,0.679-10.724C223.372,311.487,224.866,309.813,226.766,309.361"/>
	<path fill="#11161C" d="M253.574,376.145c0.18-0.271,0.589-0.159,1.221,0.34c0.634,0.451,0.86,0.815,0.68,1.085l-8.482,9.977
		l-5.226,5.566c-0.771,0.769-1.314,1.106-1.629,1.015c-0.317-0.09-0.543-0.564-0.68-1.425l-1.017-7.127
		c-0.499-3.935-0.769-7.057-0.814-9.362c-4.796,2.94-9.118,5.227-12.964,6.853l-1.832,0.272c-0.317-0.229-0.431-0.884-0.34-1.97
		c0.362-4.07,1.063-8.122,2.104-12.147l1.494-5.16l1.222,0.069l1.085,0.542l-1.628,5.565c-1.131,4.21-1.877,7.761-2.24,10.657
		c5.248-2.4,9.546-4.751,12.895-7.059c0.589-0.363,1.019-0.474,1.29-0.34l0.543,1.222l2.037,15.882
		C245,386.801,249.094,381.982,253.574,376.145"/>
	<path fill="#11161C" d="M347.71,350.491c0.045-0.136,0.407-0.271,1.087-0.408l9.162-1.357c6.562-1.086,11.198-2.081,13.913-2.986
		l-7.059-5.295l-4.413-3.122c-0.225-0.09,0.023-0.339,0.748-0.747c0.678-0.407,1.152-0.542,1.426-0.407
		c0.633,0.317,2.308,1.494,5.022,3.529l6.311,5.09c0.635,0.543,0.951,0.996,0.951,1.357l-1.02,0.883
		c-2.262,1.041-5.633,2.037-10.112,2.985l-13.642,1.833c1.991,4.979,3.508,10.496,4.548,16.562l-0.068,1.357l-1.492-0.068
		c-2.489-0.994-6.38-3.304-11.673-6.923l-7.874-5.563c-1.628-1.223-2.307-2.06-2.036-2.514c0.315-0.452,1.334-0.066,3.055,1.154
		l6.243,4.073c4.57,2.943,8.258,5.134,11.063,6.583c-1.582-6.649-2.897-11.583-3.937-14.796
		C347.642,351.033,347.573,350.625,347.71,350.491"/>
	<path fill="#11161C" d="M264.706,378.114l1.221-0.068c0.633,0.179,0.905,0.429,0.814,0.746c-0.95,2.805-3.575,6.019-7.872,9.636
		c-5.566,4.616-12.807,8.756-21.719,12.423c-8.189,3.166-14.547,6.016-19.072,8.551c-2.805,1.539-5.203,3.326-7.194,5.362
		l-3.801,4.684l-1.765,2.511l-1.018,0.812c-0.317-0.134-0.362-0.609-0.136-1.421c0.181-0.771,0.565-1.675,1.154-2.715
		c2.715-4.706,6.606-8.552,11.674-11.539c4.751-2.714,11.017-5.565,18.8-8.551c9.095-3.754,16.311-7.784,21.651-12.081
		C261.425,383.295,263.845,380.511,264.706,378.114"/>
	<path fill="#11161C" d="M190.388,466.752c1.086,5.699,3.46,9.998,7.126,12.893c4.299,3.441,9.864,4.412,16.696,2.92
		c4.027-0.904,6.56-2.488,7.601-4.75c0.724-1.629,0.657-3.215-0.204-4.752l-1.628-1.969c-0.272-0.18-0.226-0.541,0.136-1.086
		c0.406-0.584,0.724-0.77,0.95-0.541c1.222,0.951,2.126,2.082,2.714,3.393c0.905,1.855,0.973,3.779,0.204,5.77
		c-0.634,1.672-1.697,3.031-3.191,4.072c-1.538,1.039-3.642,1.875-6.311,2.51c-7.465,1.721-13.665,0.701-18.596-3.055
		c-4.254-3.256-7.059-8.074-8.417-14.453c-0.815-3.892-0.928-7.061-0.339-9.502c0.407-1.496,1.244-3.078,2.511-4.753l2.172-2.308
		l2.443-2.918c0.995-1.674,1.81-3.915,2.443-6.719c1.357-6.198,2.669-10.52,3.937-12.963c0.859-1.586,1.471-2.242,1.832-1.97
		c0.362,0.272,0.317,1.087-0.136,2.444c-0.996,2.715-2.149,7.013-3.462,12.896c-0.678,3.12-1.538,5.586-2.579,7.397
		c-0.724,1.266-1.697,2.441-2.918,3.531l-1.765,1.9c-1.041,1.355-1.651,2.6-1.833,3.73
		C189.459,460.236,189.664,462.997,190.388,466.752"/>
	<path fill="#11161C" d="M215.295,472.656c6.471-3.711,12.013-8.8,16.628-15.271c3.757-5.248,6.357-10.541,7.806-15.881
		c0.408-1.856,0.814-2.737,1.222-2.647c0.587,0.135,0.655,1.13,0.203,2.986c-1.268,6.155-3.619,11.788-7.059,16.898
		c-4.569,6.652-10.655,11.788-18.256,15.407c-1.539,0.68-2.397,0.814-2.579,0.408C213.033,474.148,213.712,473.514,215.295,472.656"
		/>
	<path fill="#11161C" d="M236.946,451.48c-0.316-0.137-0.361-0.543-0.135-1.222c0.225-0.679,0.475-0.928,0.746-0.745
		c3.259,1.536,7.308,2.602,12.149,3.188c6.651,0.725,12.669,0.068,18.053-1.967c0.317-0.092,0.521,0.248,0.611,1.016
		c0.091,0.771-0.023,1.201-0.339,1.291c-5.747,1.99-11.855,2.624-18.325,1.9C244.638,454.4,240.386,453.245,236.946,451.48"/>
	<path fill="#11161C" d="M313.706,431.936c1.901,6.242,1.608,11.897-0.881,16.965c-2.805,5.75-7.964,9.21-15.476,10.386
		c-9.455,1.446-17.556-2.06-24.297-10.521c-5.339-6.741-8.822-14.794-10.452-24.16c-0.406-2.399-0.385-3.642,0.068-3.732
		c0.361-0.138,0.792,0.927,1.29,3.188c1.945,9.096,5.542,16.812,10.79,23.144c6.516,7.917,13.959,11.108,22.329,9.571
		c6.38-1.176,10.861-4.141,13.439-8.892c2.398-4.435,2.714-9.502,0.95-15.202c-2.715-8.688-8.709-16.945-17.985-24.775
		c-1.312-1.085-1.786-1.831-1.426-2.237c0.316-0.409,1.335,0.066,3.056,1.424c4.706,3.664,8.731,7.759,12.08,12.285
		C310.269,423.63,312.44,427.816,313.706,431.936"/>
	<path fill="#11161C" d="M326.331,422.568c0.182,0.045,0.182,0.452,0,1.221l-0.747,2.036c-1.176,2.399-2.352,4.346-3.529,5.837
		c-2.083,2.669-4.773,5.068-8.076,7.195c-0.272,0.181-0.52-0.113-0.748-0.884c-0.225-0.767-0.203-1.266,0.069-1.491
		c4.479-3.076,8.008-6.787,10.587-11.131C325.199,423.315,326.014,422.389,326.331,422.568"/>
	<path fill="#11161C" d="M336.511,410.421c-0.905-8.236-3.167-16.562-6.787-24.979c-2.896-6.787-6.062-12.418-9.502-16.899
		c-0.18-0.226,0.069-0.565,0.747-1.02c0.633-0.451,1.04-0.541,1.222-0.271c4.026,5.972,7.262,11.538,9.705,16.698
		c4.072,8.687,6.605,17.305,7.602,25.856c0.768,6.472,0.542,12.896-0.678,19.277c-0.725,3.982-2.219,9.274-4.48,15.879l-2.58,7.737
		c-0.813,2.943-1.335,6.222-1.561,9.841c0,0.363-0.384,0.52-1.153,0.475c-0.815-0.043-1.198-0.246-1.154-0.609
		c0.227-3.755,0.679-7.083,1.357-9.978c0.453-1.855,1.245-4.275,2.375-7.261c1.901-5.384,3.303-11.106,4.208-17.173
		C336.828,421.393,337.054,415.533,336.511,410.421"/>
	<path fill="#11161C" d="M310.381,464.442c5.792,1.495,11.876,0.611,18.257-2.646c0.271-0.18,0.499,0,0.68,0.546
		c0.18,0.539,0.135,0.902-0.137,1.084c-6.878,3.62-13.484,4.456-19.816,2.511c-1.993-0.634-3.847-1.495-5.566-2.581l-1.969-1.491
		c-0.271-0.184-0.338-0.543-0.203-1.088c0.137-0.496,0.317-0.633,0.543-0.406C304.613,462.315,307.35,463.673,310.381,464.442"/>
	<path fill="#11161C" d="M301.491,457.316c0.588-0.225,0.882-0.18,0.882,0.135c0.226,3.26-0.114,6.157-1.019,8.689
		c-1.402,3.891-3.936,6.311-7.602,7.262c-4.479,1.176-9.138,0.566-13.98-1.834c-5.159-2.623-8.8-6.56-10.928-11.809
		c-1.99-4.886-2.193-8.891-0.61-12.012c0.498-0.996,1.178-1.834,2.036-2.51l1.153-0.815c0.318-0.136,0.521,0.135,0.611,0.815
		c0.136,0.676,0.046,1.085-0.271,1.221l-2.036,2.375c-0.951,2.352-0.611,5.521,1.018,9.501c1.992,4.752,5.272,8.349,9.842,10.794
		c4.389,2.305,8.529,2.871,12.42,1.693c3.166-0.949,5.385-3.234,6.651-6.854c0.634-1.854,0.95-3.801,0.95-5.835
		C300.563,457.816,300.857,457.544,301.491,457.316"/>
	<path fill="#11161C" d="M272.035,446.05l0.883,0.95c0.633,3.484,2.036,6.54,4.207,9.164c2.805,3.301,6.561,5.361,11.266,6.179
		l7.602-0.413c2.036-0.584,3.688-1.49,4.955-2.715c0.226-0.178,0.451-0.064,0.678,0.341c0.272,0.409,0.294,0.7,0.068,0.884
		c-1.356,1.268-3.053,2.263-5.091,2.987c-2.714,0.949-5.564,1.176-8.551,0.674c-9.276-1.578-14.885-7.644-16.832-18.187
		C271.175,445.644,271.447,445.689,272.035,446.05"/>
	<path fill="#11161C" d="M328.434,463.562c-0.315-0.045-0.339-0.363-0.066-0.951c0.315-0.589,0.631-0.835,0.95-0.745l3.392,1.901
		c1.946,1.4,3.033,2.938,3.259,4.612c0.181,2.354-0.475,4.346-1.969,5.975c-1.402,1.582-3.576,2.826-6.516,3.732
		c-3.122,0.994-6.763,1.494-10.927,1.494c-8.234,0.043-14.048-1.471-17.442-4.549c-1.087-0.949-1.855-2.035-2.309-3.258
		c-0.27-0.635-0.407-1.176-0.407-1.631c0-0.314,0.385-0.475,1.153-0.475c0.77,0,1.177,0.16,1.223,0.475l0.339,1.02
		c0.408,0.814,1.086,1.562,2.036,2.24c2.942,2.217,7.986,3.373,15.135,3.463c3.666,0.045,7.082-0.41,10.248-1.359
		c2.76-0.811,4.639-1.762,5.634-2.85c1.085-1.178,1.56-2.514,1.426-4.004c-0.137-1.268-0.885-2.445-2.24-3.53
		C330.222,464.218,329.249,463.696,328.434,463.562"/>
	<path fill="#11161C" d="M314.046,456.639c-1.583-0.363-3.031-0.949-4.344-1.765l-1.628-1.224c-0.181-0.18-0.114-0.426,0.203-0.744
		c0.317-0.316,0.566-0.386,0.747-0.205l1.561,1.02c1.221,0.634,2.58,1.085,4.072,1.355c4.661,0.859,9.684-0.271,15.067-3.392
		c0.226-0.136,0.453,0.065,0.68,0.61c0.18,0.499,0.158,0.814-0.069,0.95C324.408,456.684,318.978,457.816,314.046,456.639"/>
	<path fill="#11161C" d="M283.98,464.647c0.316-0.182,0.859,0.406,1.63,1.765l0.61,1.492l0.747,3.529
		c0.044,0.271-0.271,0.43-0.951,0.475c-0.678,0.047-1.04-0.064-1.085-0.34l-0.475-3.391l-0.271-1.154
		C283.821,465.526,283.754,464.737,283.98,464.647"/>
	<path fill="#11161C" d="M298.301,469.736l-1.833,1.357c-0.044-2.352-0.181-3.641-0.406-3.867c-0.227-1.494-0.204-2.284,0.066-2.374
		c0.365-0.137,0.84,0.496,1.425,1.899C297.78,466.979,298.028,467.973,298.301,469.736"/>
	<path fill="#11161C" d="M246.38,473.471c-5.158-0.951-8.733-2.422-10.724-4.412c-1.492-1.268-2.193-3.665-2.103-7.193l0.679-6.313
		c0.045-0.315,0.294-0.521,0.747-0.61c0.497-0.091,0.723,0.023,0.678,0.338c-0.724,6.338-0.293,10.319,1.291,11.947
		c1.629,1.719,4.886,3.031,9.772,3.936l17.24-0.543c2.172-0.541,3.438-1.381,3.8-2.51c0.409-1.404-0.317-3.327-2.171-5.767
		l-1.085-1.769l-0.271-1.699v-6.649c0-0.315,0.406-0.476,1.221-0.476c0.771,0,1.155,0.16,1.155,0.476l-0.34,6.449
		c0,1.085,0.204,1.899,0.61,2.442l2.308,3.325c0.813,1.495,1.04,2.876,0.678,4.14c-0.678,2.355-2.601,3.869-5.767,4.549
		C258.12,474.443,252.218,474.557,246.38,473.471"/>
	<path fill="#11161C" d="M255.339,466.004l1.018,0.068l1.017,0.611l1.425,1.426c0.905,1.176,1.358,2.398,1.358,3.664
		c0,0.271-0.317,0.406-0.95,0.406c-0.679,0-1.019-0.135-1.019-0.406c0-1.449-0.59-2.805-1.765-4.07
		C255.52,466.797,255.159,466.232,255.339,466.004"/>
	<path fill="#11161C" d="M209.459,478.018c0.317-0.316,0.973-0.043,1.968,0.812l1.358,1.564c0.814,1.266,1.154,2.533,1.018,3.801
		c-0.045,0.271-0.453,0.406-1.222,0.406c-0.769-0.047-1.131-0.205-1.086-0.475c0.136-1.768-0.249-3.211-1.154-4.346l-0.747-0.951
		C209.323,478.469,209.278,478.199,209.459,478.018"/>
	<path fill="#11161C" d="M218.35,475.982l1.357,1.561c0.814,1.221,1.154,2.465,1.018,3.732c-0.044,0.271-0.383,0.385-1.018,0.34
		c-0.678-0.045-1.018-0.203-1.018-0.475c0.181-1.404-0.272-2.807-1.357-4.211l-0.747-1.016c-0.271-0.363-0.339-0.635-0.204-0.814
		l1.018,0.135L218.35,475.982"/>
	<path fill="#11161C" d="M262.669,464.513l1.017,0.066l1.019,0.611l1.491,1.427c0.905,1.174,1.359,2.396,1.359,3.662
		c0,0.318-0.34,0.475-1.019,0.475c-0.678,0-1.018-0.156-1.018-0.475c0-1.445-0.588-2.805-1.764-4.072l-0.884-0.882
		C262.601,465.009,262.533,464.737,262.669,464.513"/>
	<path fill="#11161C" d="M316.354,470.619c0.362-0.361,1.042-0.111,2.038,0.748l1.355,1.561c0.815,1.178,1.2,2.422,1.155,3.732
		l-0.95,0.545c-0.68,0.045-1.02-0.07-1.02-0.34c0.137-1.631-0.385-3.121-1.561-4.48
		C316.512,471.434,316.173,470.848,316.354,470.619"/>
	<path fill="#11161C" d="M325.788,468.922l1.019,0.07l1.018,0.611l1.494,1.424c0.904,1.131,1.356,2.352,1.356,3.668
		c0,0.268-0.316,0.473-0.95,0.607c-0.678,0.092-1.018,0-1.018-0.271c0-0.812-0.203-1.672-0.611-2.58l-1.222-1.832l-0.881-0.883
		C325.72,469.424,325.653,469.148,325.788,468.922"/>
	<path fill="#11161C" d="M243.395,395.693c0.18-0.229,0.475-0.139,0.882,0.27c0.451,0.408,0.588,0.725,0.406,0.951
		c-2.579,3.482-4.276,7.941-5.089,13.369c-0.997,7.016-0.047,13.913,2.85,20.702c2.668,6.107,6.809,11.063,12.42,14.863
		c4.389,2.941,8.506,4.571,12.353,4.887c0.271,0.045,0.25,0.295-0.069,0.746c-0.316,0.454-0.632,0.656-0.951,0.609
		c-3.98-0.315-8.143-1.854-12.488-4.615c-5.972-3.708-10.428-8.888-13.369-15.539c-3.259-7.24-4.209-14.571-2.85-21.991
		C238.44,404.515,240.406,399.765,243.395,395.693"/>
	<path fill="#11161C" d="M331.624,388.972c0.09-0.271,0.453-0.16,1.085,0.34c0.635,0.541,0.905,0.926,0.815,1.155l-2.104,6.447
		c-0.272,0.724-0.521,1.106-0.748,1.154l-1.085-0.95l-5.226-6.651l-6.787-7.875c-6.38,3.258-14.569,4.41-24.569,3.461l-9.231,16.426
		l-0.951,0.95c-0.271,0-0.541-0.34-0.813-1.02c-1.719-3.62-5.249-8.053-10.589-13.303l-7.602-6.855
		c-0.225-0.181-0.157-0.496,0.204-0.95c0.362-0.451,0.635-0.586,0.815-0.406l6.991,5.771c4.887,4.566,8.573,9.182,11.063,13.844
		l8.687-15.679c0.226-0.406,0.566-0.564,1.018-0.475l8.279,0.204c6.382-0.314,11.902-1.561,16.562-3.733
		c0.406-0.226,0.792-0.157,1.154,0.204l4.751,5.362c3.212,3.709,5.519,6.605,6.923,8.686L331.624,388.972"/>
	<path fill="#11161C" d="M189.709,382.05c0.045-1.041,0.249-1.789,0.61-2.239c0.543-0.501,1.425-0.295,2.646,0.61
		c1.312,0.904,2.828,2.511,4.548,4.819c5.61,6.832,10.429,13.099,14.456,18.799l0.408,0.814c0.271,0.542,0.316,0.926,0.136,1.152
		c-0.271,0.364-0.86-0.021-1.765-1.152l-15.271-19.614c-2.081-2.714-3.393-3.916-3.935-3.599c-0.227,0.134-0.159,1.358,0.203,3.666
		c0.498,3.258,2.466,11.876,5.905,25.859c0.181,0.631,0.181,1.04,0,1.22l-1.29,0.205l-23.891-0.95c2.172,2.216,5,4.796,8.484,7.737
		c4.072,3.44,7.668,6.175,10.791,8.211l0.815,0.814l-0.408,0.95l-9.026,12.218l11.538-3.735l1.289-0.066
		c0.227,0.136,0.271,0.587,0.136,1.356l-0.203,1.63l-0.679,3.392l1.153-0.746c0.316-0.089,0.498,0.25,0.543,1.02
		c0.09,0.77-0.023,1.198-0.339,1.288l-2.036,0.678l-1.494,0.137c-0.226-0.182-0.249-0.633-0.068-1.357l1.154-5.021l-6.854,1.765
		l-4.615,1.018l-1.697-0.136c-0.226-0.316-0.09-0.836,0.407-1.561l8.62-12.286c-3.891-2.577-7.986-5.859-12.284-9.839l-6.923-7.126
		c-0.453-0.725-0.656-1.178-0.611-1.359c0.135-0.272,0.633-0.451,1.492-0.542l7.806-0.205l15.881,0.68
		c-2.443-9.776-4.162-17.853-5.158-24.229C189.867,384.425,189.709,383,189.709,382.05"/>
	<path fill="#11161C" d="M220.115,392.297c0.271,0.137,0.452,0.61,0.543,1.426l0.407,5.022c0.09,3.485-0.136,6.402-0.679,8.756
		c-0.091,0.405-0.837,0.249-2.24-0.476c0.498-2.49,0.747-5.882,0.747-10.182v-1.426c-3.122,2.896-5.633,5.545-7.534,7.943
		c-0.181,0.27-0.588,0.159-1.221-0.34c-0.634-0.497-0.838-0.861-0.611-1.085c1.583-1.992,3.552-4.072,5.904-6.243l3.258-2.785
		C219.322,392.412,219.798,392.208,220.115,392.297"/>
</g>
<text transform="matrix(1 0 0 1 128.9961 526.7373)"><tspan x="0" y="0" font-family="'Helvetica'" font-size="35.9315">I-10 West</tspan><tspan x="-13.415" y="28.8" font-family="'Helvetica-LightOblique'" font-size="24">@ Kirkwood</tspan></text>
<g>
	<g>
		<g>
			<g>
				<path fill="#51BA67" d="M17.642,207.188c0,25.386,20.58,45.964,45.962,45.964c25.386,0,45.965-20.579,45.965-45.964
					c0-25.384-20.58-45.963-45.965-45.963C38.221,161.225,17.642,181.805,17.642,207.188z"/>
			</g>
			<g>
				<path fill="#0BB285" d="M109.569,207.188c0-25.384-20.58-45.963-45.965-45.963c-25.383,0-45.962,20.58-45.962,45.963"/>
			</g>
			<g>
				<path fill="#34373B" d="M17.642,208.3c-0.614,0-1.112-0.498-1.112-1.112c0-25.958,21.117-47.075,47.074-47.075
					c0.614,0,1.112,0.498,1.112,1.112c0,0.614-0.499,1.112-1.112,1.112c-24.73,0-44.851,20.121-44.851,44.852
					C18.753,207.802,18.256,208.3,17.642,208.3z"/>
			</g>
			<g>
				<path fill="#34373B" d="M63.604,254.265c-0.613,0-1.112-0.499-1.112-1.112s0.499-1.112,1.112-1.112
					c24.732,0,44.854-20.121,44.854-44.853c0-0.614,0.498-1.112,1.112-1.112s1.112,0.498,1.112,1.112
					C110.682,233.146,89.562,254.265,63.604,254.265z"/>
			</g>
		</g>
		<g>
			<g>
				<path fill="#48BD9B" d="M28.27,207.188c0,19.516,15.822,35.334,35.334,35.334c19.517,0,35.334-15.818,35.334-35.334
					c0-19.513-15.817-35.334-35.334-35.334C44.091,171.854,28.27,187.675,28.27,207.188z"/>
			</g>
			<g>
				<path fill="#81C88C" d="M28.27,207.188c0,19.516,15.822,35.334,35.334,35.334c19.517,0,35.334-15.818,35.334-35.334H28.27
					L28.27,207.188z"/>
			</g>
			<g>
				<path fill="#447DC0" d="M98.752,210.843H55.935v-38.144c-3.566,0.79-6.927,2.118-9.998,3.896v61.189
					c3.07,1.777,6.433,3.105,9.998,3.895v-20.838h40.267C97.516,217.711,98.391,214.354,98.752,210.843z"/>
			</g>
			<g>
				<path fill="#34373B" d="M100.051,207.188c0-20.096-16.35-36.446-36.447-36.446c-0.762,0-1.533,0.023-2.292,0.071
					c-0.613,0.038-1.079,0.565-1.041,1.178c0.037,0.589,0.526,1.043,1.109,1.043c0.023,0,0.047,0,0.07-0.002
					c0.713-0.044,1.438-0.066,2.155-0.066c18.871,0,34.223,15.352,34.223,34.222c0,0.717-0.022,1.442-0.066,2.154
					c-0.008,0.136,0.011,0.267,0.048,0.389H57.047v-36.144c0.569-0.141,0.937-0.704,0.823-1.289
					c-0.117-0.603-0.702-0.998-1.305-0.877c-0.265,0.052-0.526,0.125-0.791,0.183c-0.027,0.003-0.053,0.002-0.08,0.008
					c-0.289,0.064-0.575,0.137-0.861,0.208c-0.416,0.103-0.827,0.213-1.239,0.331c-0.348,0.1-0.694,0.203-1.039,0.313
					c-0.204,0.064-0.413,0.117-0.615,0.185c-0.04,0.014-0.076,0.034-0.113,0.051c-1.428,0.488-2.824,1.065-4.181,1.728
					c-0.042,0.015-0.086,0.027-0.128,0.048c-0.194,0.095-0.381,0.207-0.574,0.307c-0.295,0.153-0.589,0.311-0.882,0.471
					c-0.916,0.505-1.82,1.034-2.687,1.614c-0.511,0.341-0.648,1.032-0.307,1.542c0.214,0.322,0.567,0.495,0.925,0.495
					c0.213,0,0.427-0.061,0.617-0.188c0.07-0.046,0.145-0.087,0.215-0.133v57.195c-9.294-6.126-15.444-16.65-15.444-28.59
					c0-0.718,0.022-1.441,0.066-2.154c0.039-0.612-0.427-1.14-1.04-1.178c-0.603-0.039-1.141,0.429-1.179,1.041
					c-0.046,0.758-0.071,1.529-0.071,2.292c0,13.43,7.307,25.178,18.149,31.5c0.026,0.018,0.047,0.042,0.074,0.057
					c0.215,0.125,0.435,0.241,0.652,0.361c0.109,0.061,0.217,0.122,0.328,0.182c0.468,0.252,0.939,0.496,1.417,0.727
					c0.015,0.007,0.03,0.016,0.044,0.022c0.478,0.229,0.962,0.447,1.449,0.656c0.182,0.078,0.365,0.151,0.548,0.226
					c0.304,0.125,0.609,0.246,0.916,0.361c0.228,0.086,0.456,0.171,0.685,0.252c0.263,0.093,0.528,0.182,0.794,0.269
					c0.256,0.084,0.51,0.17,0.768,0.249c0.178,0.054,0.358,0.102,0.537,0.153c0.604,0.174,1.214,0.333,1.831,0.476
					c0.116,0.027,0.23,0.058,0.346,0.084c0.009,0.002,0.019,0.001,0.029,0.003c2.54,0.562,5.174,0.868,7.88,0.868
					c0.762,0,1.534-0.024,2.292-0.071c0.613-0.038,1.079-0.566,1.041-1.179c-0.038-0.612-0.573-1.079-1.179-1.041
					c-0.713,0.044-1.438,0.066-2.155,0.066c-2.243,0-4.433-0.223-6.557-0.637v-18.82h37.541c-0.11,0.095-0.204,0.212-0.272,0.351
					c-0.661,1.339-1.415,2.646-2.245,3.886c-0.341,0.51-0.204,1.201,0.306,1.543c0.19,0.126,0.405,0.187,0.618,0.187
					c0.358,0,0.711-0.173,0.925-0.493c0.883-1.321,1.688-2.714,2.392-4.14c0.23-0.465,0.1-1.011-0.278-1.334h0.168
					c0.448,0,0.852-0.269,1.025-0.682c0.329-0.784,0.627-1.577,0.899-2.379c0.003-0.008,0.009-0.014,0.011-0.021
					c0.007-0.022,0.013-0.045,0.021-0.068c0.222-0.661,0.42-1.329,0.604-2.001c0.033-0.12,0.067-0.238,0.099-0.358
					c0.175-0.669,0.33-1.344,0.466-2.023c0.012-0.058,0.028-0.114,0.04-0.172c0.003-0.019,0.002-0.037,0.005-0.056
					c0.208-1.069,0.374-2.147,0.486-3.235c0.027-0.271-0.051-0.538-0.208-0.757c0.188-0.186,0.312-0.436,0.33-0.719
					C100.027,208.722,100.051,207.951,100.051,207.188z M55.935,219.729c-0.613,0-1.112,0.498-1.112,1.111v19.423
					c-0.009-0.002-0.018-0.005-0.026-0.007c-0.607-0.162-1.208-0.343-1.805-0.538c-0.148-0.049-0.295-0.1-0.442-0.15
					c-0.468-0.16-0.933-0.331-1.395-0.511c-0.17-0.066-0.342-0.133-0.511-0.201c-0.483-0.198-0.962-0.41-1.437-0.631
					c-0.116-0.054-0.235-0.104-0.352-0.159c-0.562-0.269-1.118-0.556-1.666-0.857c-0.047-0.026-0.093-0.055-0.141-0.081v-59.882
					c0.083-0.046,0.167-0.089,0.251-0.134c2.384-1.296,4.904-2.306,7.523-3v36.73c0,0.614,0.498,1.112,1.111,1.112h41.562
					c-0.089,0.646-0.2,1.288-0.327,1.926c-0.137,0.691-0.296,1.382-0.478,2.067c-0.054,0.206-0.122,0.408-0.181,0.613
					c-0.135,0.476-0.272,0.95-0.428,1.418c-0.196,0.589-0.403,1.173-0.631,1.75H55.935L55.935,219.729z"/>
				<path fill="#34373B" d="M31.403,192.579c0.158,0.077,0.326,0.114,0.491,0.114c0.41,0,0.804-0.228,0.998-0.621
					c0.659-1.336,1.415-2.644,2.245-3.886c0.341-0.51,0.204-1.201-0.306-1.542c-0.509-0.339-1.201-0.205-1.542,0.306
					c-0.885,1.323-1.689,2.716-2.392,4.14C30.626,191.64,30.853,192.307,31.403,192.579z"/>
				<path fill="#34373B" d="M28.718,201.434c0.073,0.015,0.145,0.021,0.216,0.021c0.521,0,0.986-0.368,1.089-0.897
					c0.288-1.465,0.676-2.923,1.155-4.338c0.197-0.582-0.115-1.213-0.697-1.41c-0.583-0.197-1.213,0.116-1.409,0.697
					c-0.51,1.507-0.923,3.062-1.229,4.622C27.723,200.732,28.116,201.316,28.718,201.434z"/>
				<path fill="#34373B" d="M37.036,185.005c0.309,0,0.617-0.128,0.836-0.379c0.987-1.125,2.056-2.192,3.177-3.175
					c0.46-0.404,0.508-1.107,0.103-1.568c-0.406-0.46-1.106-0.509-1.569-0.104c-1.193,1.047-2.332,2.184-3.382,3.381
					c-0.405,0.461-0.359,1.164,0.103,1.568C36.514,184.914,36.776,185.005,37.036,185.005z"/>
				<path fill="#34373B" d="M82.598,235.662c-1.241,0.83-2.55,1.586-3.889,2.245c-0.551,0.271-0.777,0.938-0.506,1.489
					c0.194,0.393,0.589,0.621,0.999,0.621c0.166,0,0.333-0.037,0.491-0.114c1.426-0.703,2.82-1.508,4.143-2.392
					c0.51-0.342,0.647-1.032,0.306-1.543C83.799,235.457,83.108,235.321,82.598,235.662z"/>
				<path fill="#34373B" d="M89.338,229.751c-0.988,1.125-2.056,2.192-3.177,3.175c-0.461,0.405-0.508,1.107-0.103,1.569
					c0.22,0.251,0.528,0.379,0.837,0.379c0.26,0,0.521-0.09,0.732-0.276c1.193-1.046,2.332-2.184,3.382-3.38
					c0.405-0.461,0.359-1.164-0.102-1.569C90.445,229.244,89.741,229.291,89.338,229.751z"/>
				<path fill="#34373B" d="M74.558,239.622c-1.417,0.479-2.878,0.865-4.342,1.152c-0.603,0.117-0.995,0.702-0.877,1.305
					c0.104,0.531,0.568,0.898,1.089,0.898c0.071,0,0.143-0.006,0.215-0.021c1.559-0.305,3.116-0.718,4.625-1.226
					c0.582-0.196,0.894-0.827,0.698-1.409C75.771,239.739,75.143,239.429,74.558,239.622z"/>
			</g>
		</g>
	</g>
	<g>
		<circle fill="#F58E90" cx="74.791" cy="191.637" r="10.529"/>
	</g>
	<g>
		<ellipse fill="#EE2A28" cx="74.791" cy="191.637" rx="10.529" ry="8.065"/>
	</g>
	<g>
		<path fill="#FFFFFF" d="M64.261,191.637c0,5.816,4.714,10.529,10.53,10.529c5.814,0,10.529-4.713,10.529-10.529H64.261z"/>
	</g>
	<g>
		<path fill="#D8E5EA" d="M74.791,199.703c5.814,0,10.529-3.61,10.529-8.065H64.261C64.261,196.092,68.975,199.703,74.791,199.703z"
			/>
	</g>
	<path fill="#34373B" d="M86.432,191.637c0-6.418-5.223-11.64-11.641-11.64c-6.419,0-11.641,5.222-11.641,11.64
		c0,6.044,4.63,11.023,10.529,11.585v7.621c0,0.614,0.498,1.112,1.112,1.112c0.614,0,1.112-0.498,1.112-1.112v-7.621
		C81.802,202.66,86.432,197.681,86.432,191.637z M74.791,182.221c4.816,0,8.793,3.636,9.345,8.305H65.444
		C65.998,185.856,69.975,182.221,74.791,182.221z M74.791,201.054c-4.816,0-8.793-3.635-9.346-8.305h18.692
		C83.583,197.42,79.606,201.054,74.791,201.054z"/>
	<g>
		<g>
			<circle fill="#A7BBC1" cx="74.79" cy="192.844" r="3.481"/>
		</g>
		<g>
			<circle fill="#FFFFFF" cx="74.79" cy="191.66" r="3.482"/>
		</g>
		<g>
			<path fill="#D8E5EA" d="M72.328,194.122c-1.359-1.358-1.359-3.564,0-4.924c1.361-1.359,3.564-1.359,4.924,0"/>
		</g>
		<g>
			<path fill="#34373B" d="M74.791,196.251c-1.176,0-2.353-0.448-3.249-1.343c-0.867-0.868-1.345-2.021-1.345-3.249
				c0-1.227,0.478-2.381,1.345-3.248c1.792-1.791,4.707-1.791,6.496,0c0.868,0.867,1.345,2.021,1.345,3.248
				c0,1.228-0.479,2.381-1.345,3.249C77.143,195.803,75.967,196.251,74.791,196.251z M74.791,189.292
				c-0.607,0-1.215,0.232-1.677,0.693c-0.448,0.447-0.695,1.042-0.695,1.675s0.247,1.229,0.695,1.676
				c0.923,0.92,2.426,0.924,3.351,0c0.448-0.447,0.694-1.042,0.694-1.676c0-0.633-0.247-1.229-0.694-1.676
				C76.003,189.522,75.397,189.292,74.791,189.292z"/>
		</g>
	</g>
</g>
</svg>
